<ttFont>
    <TTGlyph name="A" xMin="30" yMin="0" xMax="592" yMax="705">
      <contour>
        <pt x="42" y="0" on="1"/>
        <pt x="30" y="0" on="1"/>
        <pt x="329" y="700" on="1"/>
        <pt x="340" y="705" on="1"/>
        <pt x="592" y="0" on="1"/>
        <pt x="507" y="0" on="1"/>
        <pt x="429" y="220" on="1"/>
        <pt x="137" y="220" on="1"/>
      </contour>
      <contour>
        <pt x="298" y="592" on="1"/>
        <pt x="141" y="230" on="1"/>
        <pt x="426" y="230" on="1"/>
      </contour>
    </TTGlyph>
    <TTGlyph name="AE" xMin="30" yMin="0" xMax="659" yMax="700">
      <contour>
        <pt x="637" y="700" on="1"/>
        <pt x="637" y="690" on="1"/>
        <pt x="412" y="690" on="1"/>
        <pt x="412" y="390" on="1"/>
        <pt x="614" y="390" on="1"/>
        <pt x="614" y="380" on="1"/>
        <pt x="412" y="380" on="1"/>
        <pt x="412" y="10" on="1"/>
        <pt x="659" y="10" on="1"/>
        <pt x="659" y="0" on="1"/>
        <pt x="329" y="0" on="1"/>
        <pt x="329" y="220" on="1"/>
        <pt x="137" y="220" on="1"/>
        <pt x="42" y="0" on="1"/>
        <pt x="30" y="0" on="1"/>
        <pt x="329" y="700" on="1"/>
      </contour>
      <contour>
        <pt x="329" y="230" on="1"/>
        <pt x="329" y="664" on="1"/>
        <pt x="141" y="230" on="1"/>
      </contour>
    </TTGlyph>
    <TTGlyph name="Aacute" xMin="30" yMin="0" xMax="592" yMax="893">
      <contour>
        <pt x="42" y="0" on="1"/>
        <pt x="30" y="0" on="1"/>
        <pt x="329" y="700" on="1"/>
        <pt x="340" y="705" on="1"/>
        <pt x="592" y="0" on="1"/>
        <pt x="507" y="0" on="1"/>
        <pt x="429" y="220" on="1"/>
        <pt x="137" y="220" on="1"/>
      </contour>
      <contour>
        <pt x="298" y="592" on="1"/>
        <pt x="141" y="230" on="1"/>
        <pt x="426" y="230" on="1"/>
      </contour>
      <contour>
        <pt x="384" y="891" on="1"/>
        <pt x="456" y="893" on="1"/>
        <pt x="351" y="750" on="1"/>
        <pt x="338" y="750" on="1"/>
      </contour>
    </TTGlyph>
    <TTGlyph name="Acircumflex" xMin="30" yMin="0" xMax="592" yMax="906">
      <contour>
        <pt x="42" y="0" on="1"/>
        <pt x="30" y="0" on="1"/>
        <pt x="329" y="700" on="1"/>
        <pt x="340" y="705" on="1"/>
        <pt x="592" y="0" on="1"/>
        <pt x="507" y="0" on="1"/>
        <pt x="429" y="220" on="1"/>
        <pt x="137" y="220" on="1"/>
      </contour>
      <contour>
        <pt x="298" y="592" on="1"/>
        <pt x="141" y="230" on="1"/>
        <pt x="426" y="230" on="1"/>
      </contour>
      <contour>
        <pt x="471" y="771" on="1"/>
        <pt x="450" y="751" on="1"/>
        <pt x="329" y="881" on="1"/>
        <pt x="213" y="756" on="1"/>
        <pt x="206" y="761" on="1"/>
        <pt x="343" y="906" on="1"/>
      </contour>
    </TTGlyph>
    <TTGlyph name="Adieresis" xMin="30" yMin="0" xMax="592" yMax="835">
      <contour>
        <pt x="42" y="0" on="1"/>
        <pt x="30" y="0" on="1"/>
        <pt x="329" y="700" on="1"/>
        <pt x="340" y="705" on="1"/>
        <pt x="592" y="0" on="1"/>
        <pt x="507" y="0" on="1"/>
        <pt x="429" y="220" on="1"/>
        <pt x="137" y="220" on="1"/>
      </contour>
      <contour>
        <pt x="298" y="592" on="1"/>
        <pt x="141" y="230" on="1"/>
        <pt x="426" y="230" on="1"/>
      </contour>
      <contour>
        <pt x="181" y="774" on="0"/>
        <pt x="181" y="810" on="0"/>
        <pt x="205" y="835" on="0"/>
        <pt x="241" y="835" on="0"/>
        <pt x="266" y="810" on="0"/>
        <pt x="266" y="774" on="0"/>
        <pt x="241" y="750" on="0"/>
        <pt x="205" y="750" on="0"/>
      </contour>
      <contour>
        <pt x="399" y="774" on="0"/>
        <pt x="399" y="810" on="0"/>
        <pt x="423" y="835" on="0"/>
        <pt x="459" y="835" on="0"/>
        <pt x="484" y="810" on="0"/>
        <pt x="484" y="774" on="0"/>
        <pt x="459" y="750" on="0"/>
        <pt x="423" y="750" on="0"/>
      </contour>
    </TTGlyph>
    <TTGlyph name="Agrave" xMin="30" yMin="0" xMax="592" yMax="894">
      <contour>
        <pt x="42" y="0" on="1"/>
        <pt x="30" y="0" on="1"/>
        <pt x="329" y="700" on="1"/>
        <pt x="340" y="705" on="1"/>
        <pt x="592" y="0" on="1"/>
        <pt x="507" y="0" on="1"/>
        <pt x="429" y="220" on="1"/>
        <pt x="137" y="220" on="1"/>
      </contour>
      <contour>
        <pt x="298" y="592" on="1"/>
        <pt x="141" y="230" on="1"/>
        <pt x="426" y="230" on="1"/>
      </contour>
      <contour>
        <pt x="222" y="894" on="1"/>
        <pt x="294" y="892" on="1"/>
        <pt x="340" y="751" on="1"/>
        <pt x="327" y="751" on="1"/>
      </contour>
    </TTGlyph>
    <TTGlyph name="Aring" xMin="30" yMin="0" xMax="592" yMax="928">
      <contour>
        <pt x="42" y="0" on="1"/>
        <pt x="30" y="0" on="1"/>
        <pt x="329" y="700" on="1"/>
        <pt x="340" y="705" on="1"/>
        <pt x="592" y="0" on="1"/>
        <pt x="507" y="0" on="1"/>
        <pt x="429" y="220" on="1"/>
        <pt x="137" y="220" on="1"/>
      </contour>
      <contour>
        <pt x="298" y="592" on="1"/>
        <pt x="141" y="230" on="1"/>
        <pt x="426" y="230" on="1"/>
      </contour>
      <contour>
        <pt x="288" y="751" on="0"/>
        <pt x="221" y="796" on="0"/>
        <pt x="221" y="878" on="0"/>
        <pt x="290" y="928" on="0"/>
        <pt x="392" y="928" on="0"/>
        <pt x="458" y="883" on="0"/>
        <pt x="458" y="800" on="0"/>
        <pt x="390" y="751" on="0"/>
      </contour>
      <contour>
        <pt x="315" y="920" on="0"/>
        <pt x="281" y="873" on="0"/>
        <pt x="281" y="802" on="0"/>
        <pt x="314" y="759" on="0"/>
        <pt x="363" y="759" on="0"/>
        <pt x="398" y="806" on="0"/>
        <pt x="398" y="877" on="0"/>
        <pt x="364" y="920" on="0"/>
      </contour>
    </TTGlyph>
    <TTGlyph name="Atilde" xMin="30" yMin="0" xMax="592" yMax="829">
      <contour>
        <pt x="42" y="0" on="1"/>
        <pt x="30" y="0" on="1"/>
        <pt x="329" y="700" on="1"/>
        <pt x="340" y="705" on="1"/>
        <pt x="592" y="0" on="1"/>
        <pt x="507" y="0" on="1"/>
        <pt x="429" y="220" on="1"/>
        <pt x="137" y="220" on="1"/>
      </contour>
      <contour>
        <pt x="298" y="592" on="1"/>
        <pt x="141" y="230" on="1"/>
        <pt x="426" y="230" on="1"/>
      </contour>
      <contour>
        <pt x="238" y="786" on="1"/>
        <pt x="185" y="786" on="0"/>
        <pt x="176" y="751" on="1"/>
        <pt x="168" y="754" on="1"/>
        <pt x="173" y="784" on="0"/>
        <pt x="194" y="808" on="1"/>
        <pt x="201" y="816" on="0"/>
        <pt x="217" y="819" on="1"/>
        <pt x="241" y="824" on="1"/>
        <pt x="258" y="827" on="0"/>
        <pt x="348" y="806" on="0"/>
        <pt x="384" y="798" on="1"/>
        <pt x="423" y="789" on="0"/>
        <pt x="487" y="789" on="0"/>
        <pt x="507" y="806" on="0"/>
        <pt x="513" y="829" on="1"/>
        <pt x="522" y="827" on="1"/>
        <pt x="511" y="773" on="0"/>
        <pt x="481" y="757" on="1"/>
        <pt x="469" y="750" on="0"/>
        <pt x="449" y="750" on="0"/>
        <pt x="439" y="751" on="1"/>
        <pt x="416" y="751" on="0"/>
        <pt x="359" y="768" on="0"/>
        <pt x="355" y="769" on="0"/>
        <pt x="350" y="770" on="0"/>
        <pt x="276" y="786" on="0"/>
      </contour>
    </TTGlyph>
    <TTGlyph name="B" xMin="70" yMin="0" xMax="535" yMax="701">
      <contour>
        <pt x="70" y="692" on="1"/>
        <pt x="186" y="700" on="0"/>
        <pt x="275" y="700" on="1"/>
        <pt x="522" y="700" on="0"/>
        <pt x="522" y="535" on="1"/>
        <pt x="522" y="473" on="0"/>
        <pt x="450" y="384" on="0"/>
        <pt x="371" y="368" on="1"/>
        <pt x="447" y="359" on="0"/>
        <pt x="535" y="285" on="0"/>
        <pt x="535" y="193" on="1"/>
        <pt x="535" y="0" on="0"/>
        <pt x="288" y="0" on="1"/>
        <pt x="70" y="0" on="1"/>
      </contour>
      <contour>
        <pt x="153" y="10" on="1"/>
        <pt x="288" y="10" on="1"/>
        <pt x="377" y="10" on="0"/>
        <pt x="452" y="103" on="0"/>
        <pt x="452" y="295" on="0"/>
        <pt x="376" y="359" on="0"/>
        <pt x="301" y="361" on="1"/>
        <pt x="153" y="361" on="1"/>
      </contour>
      <contour>
        <pt x="275" y="690" on="1"/>
        <pt x="217" y="690" on="0"/>
        <pt x="153" y="683" on="1"/>
        <pt x="153" y="371" on="1"/>
        <pt x="301" y="371" on="1"/>
        <pt x="442" y="377" on="0"/>
        <pt x="442" y="533" on="1"/>
        <pt x="442" y="609" on="0"/>
        <pt x="358" y="690" on="0"/>
      </contour>
    </TTGlyph>
    <TTGlyph name="C" xMin="50" yMin="-4" xMax="582" yMax="701">
      <contour>
        <pt x="399" y="-4" on="1"/>
        <pt x="212" y="-4" on="0"/>
        <pt x="122" y="102" on="1"/>
        <pt x="90" y="140" on="0"/>
        <pt x="50" y="266" on="0"/>
        <pt x="50" y="446" on="0"/>
        <pt x="109" y="589" on="0"/>
        <pt x="160" y="628" on="1"/>
        <pt x="259" y="701" on="0"/>
        <pt x="399" y="701" on="1"/>
        <pt x="439" y="701" on="0"/>
        <pt x="515" y="688" on="0"/>
        <pt x="534" y="681" on="1"/>
        <pt x="552" y="674" on="1"/>
        <pt x="549" y="664" on="1"/>
        <pt x="481" y="691" on="0"/>
        <pt x="399" y="691" on="1"/>
        <pt x="293" y="691" on="0"/>
        <pt x="222" y="622" on="1"/>
        <pt x="168" y="571" on="0"/>
        <pt x="146" y="472" on="1"/>
        <pt x="133" y="416" on="0"/>
        <pt x="133" y="254" on="0"/>
        <pt x="179" y="117" on="0"/>
        <pt x="238" y="51" on="0"/>
        <pt x="322" y="12" on="0"/>
        <pt x="372" y="6" on="0"/>
        <pt x="443" y="6" on="0"/>
        <pt x="533" y="20" on="0"/>
        <pt x="556" y="26" on="1"/>
        <pt x="579" y="33" on="1"/>
        <pt x="582" y="23" on="1"/>
        <pt x="506" y="-4" on="0"/>
      </contour>
    </TTGlyph>
    <TTGlyph name="Ccedilla" xMin="50" yMin="-190" xMax="582" yMax="701">
      <contour>
        <pt x="399" y="-4" on="1"/>
        <pt x="506" y="-4" on="0"/>
        <pt x="582" y="23" on="1"/>
        <pt x="579" y="33" on="1"/>
        <pt x="556" y="26" on="1"/>
        <pt x="533" y="20" on="0"/>
        <pt x="443" y="6" on="0"/>
        <pt x="372" y="6" on="0"/>
        <pt x="322" y="12" on="0"/>
        <pt x="238" y="51" on="0"/>
        <pt x="179" y="117" on="0"/>
        <pt x="133" y="254" on="0"/>
        <pt x="133" y="416" on="0"/>
        <pt x="146" y="472" on="1"/>
        <pt x="168" y="571" on="0"/>
        <pt x="222" y="622" on="1"/>
        <pt x="293" y="691" on="0"/>
        <pt x="399" y="691" on="1"/>
        <pt x="481" y="691" on="0"/>
        <pt x="549" y="664" on="1"/>
        <pt x="552" y="674" on="1"/>
        <pt x="534" y="681" on="1"/>
        <pt x="515" y="688" on="0"/>
        <pt x="439" y="701" on="0"/>
        <pt x="399" y="701" on="1"/>
        <pt x="259" y="701" on="0"/>
        <pt x="160" y="628" on="1"/>
        <pt x="109" y="589" on="0"/>
        <pt x="50" y="446" on="0"/>
        <pt x="50" y="266" on="0"/>
        <pt x="90" y="140" on="0"/>
        <pt x="122" y="102" on="1"/>
        <pt x="212" y="-4" on="0"/>
      </contour>
      <contour>
        <pt x="358" y="0" on="1"/>
        <pt x="428" y="0" on="1"/>
        <pt x="428" y="-126" on="1"/>
        <pt x="428" y="-131" on="0"/>
        <pt x="420" y="-156" on="0"/>
        <pt x="412" y="-166" on="1"/>
        <pt x="391" y="-190" on="0"/>
        <pt x="342" y="-190" on="1"/>
        <pt x="281" y="-190" on="1"/>
        <pt x="281" y="-182" on="1"/>
        <pt x="299" y="-182" on="0"/>
        <pt x="320" y="-182" on="0"/>
        <pt x="336" y="-175" on="0"/>
        <pt x="342" y="-170" on="1"/>
        <pt x="358" y="-155" on="0"/>
        <pt x="358" y="-119" on="1"/>
      </contour>
    </TTGlyph>
    <TTGlyph name="D" xMin="70" yMin="-4" xMax="572" yMax="701">
      <contour>
        <pt x="150" y="699" on="1"/>
        <pt x="194" y="701" on="0"/>
        <pt x="279" y="701" on="0"/>
        <pt x="374" y="683" on="0"/>
        <pt x="467" y="634" on="0"/>
        <pt x="532" y="557" on="0"/>
        <pt x="572" y="431" on="0"/>
        <pt x="572" y="251" on="0"/>
        <pt x="513" y="108" on="0"/>
        <pt x="462" y="70" on="1"/>
        <pt x="363" y="-4" on="0"/>
        <pt x="223" y="-4" on="1"/>
        <pt x="174" y="-4" on="0"/>
        <pt x="120" y="0" on="1"/>
        <pt x="70" y="0" on="1"/>
        <pt x="70" y="699" on="1"/>
      </contour>
      <contour>
        <pt x="153" y="8" on="1"/>
        <pt x="174" y="6" on="0"/>
        <pt x="238" y="6" on="0"/>
        <pt x="270" y="8" on="0"/>
        <pt x="326" y="23" on="0"/>
        <pt x="374" y="49" on="0"/>
        <pt x="427" y="100" on="0"/>
        <pt x="446" y="135" on="1"/>
        <pt x="489" y="217" on="0"/>
        <pt x="489" y="349" on="1"/>
        <pt x="489" y="443" on="0"/>
        <pt x="443" y="580" on="0"/>
        <pt x="384" y="646" on="0"/>
        <pt x="300" y="685" on="0"/>
        <pt x="250" y="691" on="0"/>
        <pt x="184" y="691" on="0"/>
        <pt x="153" y="688" on="1"/>
      </contour>
    </TTGlyph>
    <TTGlyph name="E" xMin="70" yMin="0" xMax="490" yMax="700">
      <contour>
        <pt x="468" y="700" on="1"/>
        <pt x="468" y="690" on="1"/>
        <pt x="153" y="690" on="1"/>
        <pt x="153" y="390" on="1"/>
        <pt x="445" y="390" on="1"/>
        <pt x="445" y="380" on="1"/>
        <pt x="153" y="380" on="1"/>
        <pt x="153" y="10" on="1"/>
        <pt x="490" y="10" on="1"/>
        <pt x="490" y="0" on="1"/>
        <pt x="70" y="0" on="1"/>
        <pt x="70" y="700" on="1"/>
      </contour>
    </TTGlyph>
    <TTGlyph name="Eacute" xMin="30" yMin="0" xMax="450" yMax="893">
      <contour>
        <pt x="428" y="700" on="1"/>
        <pt x="428" y="690" on="1"/>
        <pt x="113" y="690" on="1"/>
        <pt x="113" y="390" on="1"/>
        <pt x="405" y="390" on="1"/>
        <pt x="405" y="380" on="1"/>
        <pt x="113" y="380" on="1"/>
        <pt x="113" y="10" on="1"/>
        <pt x="450" y="10" on="1"/>
        <pt x="450" y="0" on="1"/>
        <pt x="30" y="0" on="1"/>
        <pt x="30" y="700" on="1"/>
      </contour>
      <contour>
        <pt x="288" y="891" on="1"/>
        <pt x="360" y="893" on="1"/>
        <pt x="255" y="750" on="1"/>
        <pt x="242" y="750" on="1"/>
      </contour>
    </TTGlyph>
    <TTGlyph name="Ecircumflex" xMin="30" yMin="0" xMax="450" yMax="905">
      <contour>
        <pt x="428" y="700" on="1"/>
        <pt x="428" y="690" on="1"/>
        <pt x="113" y="690" on="1"/>
        <pt x="113" y="390" on="1"/>
        <pt x="405" y="390" on="1"/>
        <pt x="405" y="380" on="1"/>
        <pt x="113" y="380" on="1"/>
        <pt x="113" y="10" on="1"/>
        <pt x="450" y="10" on="1"/>
        <pt x="450" y="0" on="1"/>
        <pt x="30" y="0" on="1"/>
        <pt x="30" y="700" on="1"/>
      </contour>
      <contour>
        <pt x="391" y="770" on="1"/>
        <pt x="370" y="750" on="1"/>
        <pt x="249" y="880" on="1"/>
        <pt x="133" y="755" on="1"/>
        <pt x="126" y="760" on="1"/>
        <pt x="263" y="905" on="1"/>
      </contour>
    </TTGlyph>
    <TTGlyph name="Edieresis" xMin="30" yMin="0" xMax="450" yMax="835">
      <contour>
        <pt x="428" y="700" on="1"/>
        <pt x="428" y="690" on="1"/>
        <pt x="113" y="690" on="1"/>
        <pt x="113" y="390" on="1"/>
        <pt x="405" y="390" on="1"/>
        <pt x="405" y="380" on="1"/>
        <pt x="113" y="380" on="1"/>
        <pt x="113" y="10" on="1"/>
        <pt x="450" y="10" on="1"/>
        <pt x="450" y="0" on="1"/>
        <pt x="30" y="0" on="1"/>
        <pt x="30" y="700" on="1"/>
      </contour>
      <contour>
        <pt x="101" y="774" on="0"/>
        <pt x="101" y="810" on="0"/>
        <pt x="125" y="835" on="0"/>
        <pt x="161" y="835" on="0"/>
        <pt x="186" y="810" on="0"/>
        <pt x="186" y="774" on="0"/>
        <pt x="161" y="750" on="0"/>
        <pt x="125" y="750" on="0"/>
      </contour>
      <contour>
        <pt x="319" y="774" on="0"/>
        <pt x="319" y="810" on="0"/>
        <pt x="343" y="835" on="0"/>
        <pt x="379" y="835" on="0"/>
        <pt x="404" y="810" on="0"/>
        <pt x="404" y="774" on="0"/>
        <pt x="379" y="750" on="0"/>
        <pt x="343" y="750" on="0"/>
      </contour>
    </TTGlyph>
    <TTGlyph name="Egrave" xMin="30" yMin="0" xMax="450" yMax="893">
      <contour>
        <pt x="428" y="700" on="1"/>
        <pt x="428" y="690" on="1"/>
        <pt x="113" y="690" on="1"/>
        <pt x="113" y="390" on="1"/>
        <pt x="405" y="390" on="1"/>
        <pt x="405" y="380" on="1"/>
        <pt x="113" y="380" on="1"/>
        <pt x="113" y="10" on="1"/>
        <pt x="450" y="10" on="1"/>
        <pt x="450" y="0" on="1"/>
        <pt x="30" y="0" on="1"/>
        <pt x="30" y="700" on="1"/>
      </contour>
      <contour>
        <pt x="152" y="893" on="1"/>
        <pt x="224" y="891" on="1"/>
        <pt x="270" y="750" on="1"/>
        <pt x="257" y="750" on="1"/>
      </contour>
    </TTGlyph>
    <TTGlyph name="Eth" xMin="70" yMin="-4" xMax="604" yMax="701">
      <contour>
        <pt x="70" y="368" on="1"/>
        <pt x="70" y="376" on="1"/>
        <pt x="102" y="376" on="1"/>
        <pt x="102" y="699" on="1"/>
        <pt x="182" y="699" on="1"/>
        <pt x="226" y="701" on="0"/>
        <pt x="311" y="701" on="0"/>
        <pt x="406" y="683" on="0"/>
        <pt x="499" y="634" on="0"/>
        <pt x="564" y="557" on="0"/>
        <pt x="604" y="431" on="0"/>
        <pt x="604" y="251" on="0"/>
        <pt x="545" y="108" on="0"/>
        <pt x="494" y="70" on="1"/>
        <pt x="395" y="-4" on="0"/>
        <pt x="255" y="-4" on="1"/>
        <pt x="206" y="-4" on="0"/>
        <pt x="152" y="0" on="1"/>
        <pt x="102" y="0" on="1"/>
        <pt x="102" y="368" on="1"/>
      </contour>
      <contour>
        <pt x="185" y="8" on="1"/>
        <pt x="206" y="6" on="0"/>
        <pt x="270" y="6" on="0"/>
        <pt x="302" y="8" on="0"/>
        <pt x="358" y="23" on="0"/>
        <pt x="406" y="49" on="0"/>
        <pt x="459" y="100" on="0"/>
        <pt x="478" y="135" on="1"/>
        <pt x="521" y="217" on="0"/>
        <pt x="521" y="349" on="1"/>
        <pt x="521" y="443" on="0"/>
        <pt x="475" y="580" on="0"/>
        <pt x="416" y="646" on="0"/>
        <pt x="332" y="685" on="0"/>
        <pt x="282" y="691" on="0"/>
        <pt x="216" y="691" on="0"/>
        <pt x="185" y="688" on="1"/>
        <pt x="185" y="376" on="1"/>
        <pt x="366" y="376" on="1"/>
        <pt x="366" y="368" on="1"/>
        <pt x="185" y="368" on="1"/>
      </contour>
    </TTGlyph>
    <TTGlyph name="F" xMin="70" yMin="0" xMax="468" yMax="700">
      <contour>
        <pt x="468" y="700" on="1"/>
        <pt x="468" y="690" on="1"/>
        <pt x="153" y="690" on="1"/>
        <pt x="153" y="370" on="1"/>
        <pt x="445" y="370" on="1"/>
        <pt x="445" y="360" on="1"/>
        <pt x="153" y="360" on="1"/>
        <pt x="153" y="0" on="1"/>
        <pt x="70" y="0" on="1"/>
        <pt x="70" y="700" on="1"/>
      </contour>
    </TTGlyph>
    <TTGlyph name="G" xMin="50" yMin="-4" xMax="625" yMax="701">
      <contour>
        <pt x="399" y="-4" on="1"/>
        <pt x="212" y="-4" on="0"/>
        <pt x="122" y="102" on="1"/>
        <pt x="90" y="140" on="0"/>
        <pt x="50" y="266" on="0"/>
        <pt x="50" y="446" on="0"/>
        <pt x="109" y="589" on="0"/>
        <pt x="160" y="628" on="1"/>
        <pt x="259" y="701" on="0"/>
        <pt x="399" y="701" on="1"/>
        <pt x="444" y="701" on="0"/>
        <pt x="530" y="688" on="0"/>
        <pt x="551" y="681" on="1"/>
        <pt x="572" y="674" on="1"/>
        <pt x="569" y="664" on="1"/>
        <pt x="491" y="691" on="0"/>
        <pt x="399" y="691" on="1"/>
        <pt x="293" y="691" on="0"/>
        <pt x="222" y="622" on="1"/>
        <pt x="168" y="571" on="0"/>
        <pt x="146" y="472" on="1"/>
        <pt x="133" y="416" on="0"/>
        <pt x="133" y="254" on="0"/>
        <pt x="179" y="117" on="0"/>
        <pt x="238" y="51" on="0"/>
        <pt x="322" y="12" on="0"/>
        <pt x="372" y="6" on="0"/>
        <pt x="441" y="6" on="0"/>
        <pt x="499" y="14" on="1"/>
        <pt x="499" y="220" on="1"/>
        <pt x="378" y="220" on="1"/>
        <pt x="378" y="230" on="1"/>
        <pt x="625" y="230" on="1"/>
        <pt x="625" y="220" on="1"/>
        <pt x="582" y="220" on="1"/>
        <pt x="582" y="23" on="1"/>
        <pt x="506" y="-4" on="0"/>
      </contour>
    </TTGlyph>
    <TTGlyph name="H" xMin="50" yMin="0" xMax="541" yMax="700">
      <contour>
        <pt x="133" y="0" on="1"/>
        <pt x="50" y="0" on="1"/>
        <pt x="50" y="700" on="1"/>
        <pt x="133" y="700" on="1"/>
        <pt x="133" y="378" on="1"/>
        <pt x="458" y="378" on="1"/>
        <pt x="458" y="700" on="1"/>
        <pt x="541" y="700" on="1"/>
        <pt x="541" y="0" on="1"/>
        <pt x="458" y="0" on="1"/>
        <pt x="458" y="368" on="1"/>
        <pt x="133" y="368" on="1"/>
      </contour>
    </TTGlyph>
    <TTGlyph name="I" xMin="70" yMin="0" xMax="248" yMax="700">
      <contour>
        <pt x="70" y="690" on="1"/>
        <pt x="70" y="700" on="1"/>
        <pt x="248" y="700" on="1"/>
        <pt x="248" y="690" on="1"/>
        <pt x="199" y="690" on="1"/>
        <pt x="199" y="10" on="1"/>
        <pt x="248" y="10" on="1"/>
        <pt x="248" y="0" on="1"/>
        <pt x="70" y="0" on="1"/>
        <pt x="70" y="10" on="1"/>
        <pt x="116" y="10" on="1"/>
        <pt x="116" y="690" on="1"/>
      </contour>
    </TTGlyph>
    <TTGlyph name="Iacute" xMin="70" yMin="0" xMax="250" yMax="892">
      <contour>
        <pt x="70" y="690" on="1"/>
        <pt x="70" y="700" on="1"/>
        <pt x="248" y="700" on="1"/>
        <pt x="248" y="690" on="1"/>
        <pt x="199" y="690" on="1"/>
        <pt x="199" y="10" on="1"/>
        <pt x="248" y="10" on="1"/>
        <pt x="248" y="0" on="1"/>
        <pt x="70" y="0" on="1"/>
        <pt x="70" y="10" on="1"/>
        <pt x="116" y="10" on="1"/>
        <pt x="116" y="690" on="1"/>
      </contour>
      <contour>
        <pt x="178" y="890" on="1"/>
        <pt x="250" y="892" on="1"/>
        <pt x="145" y="749" on="1"/>
        <pt x="132" y="749" on="1"/>
      </contour>
    </TTGlyph>
    <TTGlyph name="Icircumflex" xMin="26" yMin="0" xMax="291" yMax="904">
      <contour>
        <pt x="70" y="690" on="1"/>
        <pt x="70" y="700" on="1"/>
        <pt x="248" y="700" on="1"/>
        <pt x="248" y="690" on="1"/>
        <pt x="199" y="690" on="1"/>
        <pt x="199" y="10" on="1"/>
        <pt x="248" y="10" on="1"/>
        <pt x="248" y="0" on="1"/>
        <pt x="70" y="0" on="1"/>
        <pt x="70" y="10" on="1"/>
        <pt x="116" y="10" on="1"/>
        <pt x="116" y="690" on="1"/>
      </contour>
      <contour>
        <pt x="291" y="769" on="1"/>
        <pt x="270" y="749" on="1"/>
        <pt x="149" y="879" on="1"/>
        <pt x="33" y="754" on="1"/>
        <pt x="26" y="759" on="1"/>
        <pt x="163" y="904" on="1"/>
      </contour>
    </TTGlyph>
    <TTGlyph name="Idieresis" xMin="9" yMin="0" xMax="312" yMax="835">
      <contour>
        <pt x="70" y="690" on="1"/>
        <pt x="70" y="700" on="1"/>
        <pt x="248" y="700" on="1"/>
        <pt x="248" y="690" on="1"/>
        <pt x="199" y="690" on="1"/>
        <pt x="199" y="10" on="1"/>
        <pt x="248" y="10" on="1"/>
        <pt x="248" y="0" on="1"/>
        <pt x="70" y="0" on="1"/>
        <pt x="70" y="10" on="1"/>
        <pt x="116" y="10" on="1"/>
        <pt x="116" y="690" on="1"/>
      </contour>
      <contour>
        <pt x="9" y="774" on="0"/>
        <pt x="9" y="810" on="0"/>
        <pt x="33" y="835" on="0"/>
        <pt x="69" y="835" on="0"/>
        <pt x="94" y="810" on="0"/>
        <pt x="94" y="774" on="0"/>
        <pt x="69" y="750" on="0"/>
        <pt x="33" y="750" on="0"/>
      </contour>
      <contour>
        <pt x="227" y="774" on="0"/>
        <pt x="227" y="810" on="0"/>
        <pt x="251" y="835" on="0"/>
        <pt x="287" y="835" on="0"/>
        <pt x="312" y="810" on="0"/>
        <pt x="312" y="774" on="0"/>
        <pt x="287" y="750" on="0"/>
        <pt x="251" y="750" on="0"/>
      </contour>
    </TTGlyph>
    <TTGlyph name="Igrave" xMin="52" yMin="0" xMax="248" yMax="892">
      <contour>
        <pt x="70" y="690" on="1"/>
        <pt x="70" y="700" on="1"/>
        <pt x="248" y="700" on="1"/>
        <pt x="248" y="690" on="1"/>
        <pt x="199" y="690" on="1"/>
        <pt x="199" y="10" on="1"/>
        <pt x="248" y="10" on="1"/>
        <pt x="248" y="0" on="1"/>
        <pt x="70" y="0" on="1"/>
        <pt x="70" y="10" on="1"/>
        <pt x="116" y="10" on="1"/>
        <pt x="116" y="690" on="1"/>
      </contour>
      <contour>
        <pt x="52" y="892" on="1"/>
        <pt x="124" y="890" on="1"/>
        <pt x="170" y="749" on="1"/>
        <pt x="157" y="749" on="1"/>
      </contour>
    </TTGlyph>
    <TTGlyph name="J" xMin="-20" yMin="0" xMax="223" yMax="700">
      <contour>
        <pt x="45" y="690" on="1"/>
        <pt x="45" y="700" on="1"/>
        <pt x="223" y="700" on="1"/>
        <pt x="223" y="132" on="1"/>
        <pt x="223" y="53" on="0"/>
        <pt x="159" y="0" on="0"/>
        <pt x="30" y="0" on="0"/>
        <pt x="-20" y="19" on="1"/>
        <pt x="-17" y="27" on="1"/>
        <pt x="31" y="8" on="0"/>
        <pt x="82" y="8" on="1"/>
        <pt x="116" y="8" on="0"/>
        <pt x="139" y="66" on="0"/>
        <pt x="139" y="131" on="1"/>
        <pt x="139" y="690" on="1"/>
      </contour>
    </TTGlyph>
    <TTGlyph name="K" xMin="70" yMin="0" xMax="571" yMax="700">
      <contour>
        <pt x="153" y="700" on="1"/>
        <pt x="153" y="258" on="1"/>
        <pt x="476" y="700" on="1"/>
        <pt x="484" y="693" on="1"/>
        <pt x="305" y="449" on="1"/>
        <pt x="571" y="0" on="1"/>
        <pt x="478" y="0" on="1"/>
        <pt x="254" y="379" on="1"/>
        <pt x="153" y="240" on="1"/>
        <pt x="153" y="0" on="1"/>
        <pt x="70" y="0" on="1"/>
        <pt x="70" y="700" on="1"/>
      </contour>
    </TTGlyph>
    <TTGlyph name="L" xMin="70" yMin="0" xMax="450" yMax="700">
      <contour>
        <pt x="450" y="0" on="1"/>
        <pt x="70" y="0" on="1"/>
        <pt x="70" y="700" on="1"/>
        <pt x="153" y="700" on="1"/>
        <pt x="153" y="10" on="1"/>
        <pt x="450" y="10" on="1"/>
      </contour>
    </TTGlyph>
    <TTGlyph name="M" xMin="65" yMin="0" xMax="724" yMax="700">
      <contour>
        <pt x="78" y="0" on="1"/>
        <pt x="65" y="0" on="1"/>
        <pt x="152" y="700" on="1"/>
        <pt x="185" y="700" on="1"/>
        <pt x="395" y="53" on="1"/>
        <pt x="604" y="700" on="1"/>
        <pt x="637" y="700" on="1"/>
        <pt x="724" y="0" on="1"/>
        <pt x="641" y="0" on="1"/>
        <pt x="572" y="560" on="1"/>
        <pt x="391" y="0" on="1"/>
        <pt x="328" y="0" on="1"/>
        <pt x="145" y="553" on="1"/>
      </contour>
    </TTGlyph>
    <TTGlyph name="N" xMin="65" yMin="0" xMax="528" yMax="700">
      <contour>
        <pt x="78" y="0" on="1"/>
        <pt x="65" y="0" on="1"/>
        <pt x="65" y="700" on="1"/>
        <pt x="99" y="700" on="1"/>
        <pt x="515" y="53" on="1"/>
        <pt x="515" y="700" on="1"/>
        <pt x="528" y="700" on="1"/>
        <pt x="528" y="0" on="1"/>
        <pt x="455" y="0" on="1"/>
        <pt x="78" y="580" on="1"/>
      </contour>
    </TTGlyph>
    <TTGlyph name="Ntilde" xMin="65" yMin="0" xMax="528" yMax="830">
      <contour>
        <pt x="78" y="0" on="1"/>
        <pt x="65" y="0" on="1"/>
        <pt x="65" y="700" on="1"/>
        <pt x="99" y="700" on="1"/>
        <pt x="515" y="53" on="1"/>
        <pt x="515" y="700" on="1"/>
        <pt x="528" y="700" on="1"/>
        <pt x="528" y="0" on="1"/>
        <pt x="455" y="0" on="1"/>
        <pt x="78" y="580" on="1"/>
      </contour>
      <contour>
        <pt x="218" y="787" on="1"/>
        <pt x="165" y="787" on="0"/>
        <pt x="156" y="752" on="1"/>
        <pt x="148" y="755" on="1"/>
        <pt x="153" y="785" on="0"/>
        <pt x="174" y="809" on="1"/>
        <pt x="181" y="817" on="0"/>
        <pt x="197" y="820" on="1"/>
        <pt x="221" y="824" on="1"/>
        <pt x="238" y="828" on="0"/>
        <pt x="328" y="807" on="0"/>
        <pt x="364" y="799" on="1"/>
        <pt x="403" y="790" on="0"/>
        <pt x="467" y="790" on="0"/>
        <pt x="487" y="807" on="0"/>
        <pt x="493" y="830" on="1"/>
        <pt x="502" y="828" on="1"/>
        <pt x="491" y="774" on="0"/>
        <pt x="461" y="758" on="1"/>
        <pt x="449" y="751" on="0"/>
        <pt x="429" y="751" on="0"/>
        <pt x="419" y="752" on="1"/>
        <pt x="396" y="752" on="0"/>
        <pt x="339" y="769" on="0"/>
        <pt x="335" y="770" on="0"/>
        <pt x="330" y="771" on="0"/>
        <pt x="256" y="787" on="0"/>
      </contour>
    </TTGlyph>
    <TTGlyph name="O" xMin="50" yMin="-4" xMax="670" yMax="704">
      <contour>
        <pt x="50" y="333" on="1"/>
        <pt x="50" y="515" on="0"/>
        <pt x="227" y="704" on="0"/>
        <pt x="505" y="704" on="0"/>
        <pt x="670" y="540" on="0"/>
        <pt x="670" y="180" on="0"/>
        <pt x="494" y="-4" on="0"/>
        <pt x="347" y="-4" on="1"/>
        <pt x="220" y="-4" on="0"/>
        <pt x="139" y="69" on="1"/>
        <pt x="97" y="107" on="0"/>
        <pt x="50" y="242" on="0"/>
      </contour>
      <contour>
        <pt x="262" y="694" on="0"/>
        <pt x="133" y="514" on="0"/>
        <pt x="133" y="166" on="0"/>
        <pt x="255" y="6" on="0"/>
        <pt x="458" y="6" on="0"/>
        <pt x="587" y="187" on="0"/>
        <pt x="587" y="532" on="0"/>
        <pt x="464" y="694" on="0"/>
      </contour>
    </TTGlyph>
    <TTGlyph name="OE" xMin="50" yMin="-4" xMax="732" yMax="704">
      <contour>
        <pt x="710" y="700" on="1"/>
        <pt x="710" y="690" on="1"/>
        <pt x="485" y="690" on="1"/>
        <pt x="485" y="390" on="1"/>
        <pt x="687" y="390" on="1"/>
        <pt x="687" y="380" on="1"/>
        <pt x="485" y="380" on="1"/>
        <pt x="485" y="10" on="1"/>
        <pt x="732" y="10" on="1"/>
        <pt x="732" y="0" on="1"/>
        <pt x="411" y="0" on="1"/>
        <pt x="377" y="-4" on="0"/>
        <pt x="360" y="-4" on="1"/>
        <pt x="290" y="-4" on="0"/>
        <pt x="184" y="28" on="0"/>
        <pt x="140" y="66" on="1"/>
        <pt x="50" y="145" on="0"/>
        <pt x="50" y="348" on="1"/>
        <pt x="50" y="511" on="0"/>
        <pt x="226" y="704" on="0"/>
        <pt x="360" y="704" on="1"/>
        <pt x="396" y="704" on="0"/>
        <pt x="424" y="700" on="1"/>
      </contour>
      <contour>
        <pt x="360" y="6" on="1"/>
        <pt x="379" y="6" on="0"/>
        <pt x="402" y="11" on="1"/>
        <pt x="402" y="690" on="1"/>
        <pt x="383" y="694" on="0"/>
        <pt x="360" y="694" on="1"/>
        <pt x="262" y="694" on="0"/>
        <pt x="133" y="510" on="0"/>
        <pt x="133" y="350" on="1"/>
        <pt x="133" y="6" on="0"/>
      </contour>
    </TTGlyph>
    <TTGlyph name="Oacute" xMin="50" yMin="-4" xMax="670" yMax="893">
      <contour>
        <pt x="50" y="333" on="1"/>
        <pt x="50" y="515" on="0"/>
        <pt x="227" y="704" on="0"/>
        <pt x="505" y="704" on="0"/>
        <pt x="670" y="540" on="0"/>
        <pt x="670" y="180" on="0"/>
        <pt x="494" y="-4" on="0"/>
        <pt x="347" y="-4" on="1"/>
        <pt x="220" y="-4" on="0"/>
        <pt x="139" y="69" on="1"/>
        <pt x="97" y="107" on="0"/>
        <pt x="50" y="242" on="0"/>
      </contour>
      <contour>
        <pt x="262" y="694" on="0"/>
        <pt x="133" y="514" on="0"/>
        <pt x="133" y="166" on="0"/>
        <pt x="255" y="6" on="0"/>
        <pt x="458" y="6" on="0"/>
        <pt x="587" y="187" on="0"/>
        <pt x="587" y="532" on="0"/>
        <pt x="464" y="694" on="0"/>
      </contour>
      <contour>
        <pt x="415" y="891" on="1"/>
        <pt x="487" y="893" on="1"/>
        <pt x="382" y="750" on="1"/>
        <pt x="369" y="750" on="1"/>
      </contour>
    </TTGlyph>
    <TTGlyph name="Ocircumflex" xMin="50" yMin="-4" xMax="670" yMax="905">
      <contour>
        <pt x="50" y="333" on="1"/>
        <pt x="50" y="515" on="0"/>
        <pt x="227" y="704" on="0"/>
        <pt x="505" y="704" on="0"/>
        <pt x="670" y="540" on="0"/>
        <pt x="670" y="180" on="0"/>
        <pt x="494" y="-4" on="0"/>
        <pt x="347" y="-4" on="1"/>
        <pt x="220" y="-4" on="0"/>
        <pt x="139" y="69" on="1"/>
        <pt x="97" y="107" on="0"/>
        <pt x="50" y="242" on="0"/>
      </contour>
      <contour>
        <pt x="262" y="694" on="0"/>
        <pt x="133" y="514" on="0"/>
        <pt x="133" y="166" on="0"/>
        <pt x="255" y="6" on="0"/>
        <pt x="458" y="6" on="0"/>
        <pt x="587" y="187" on="0"/>
        <pt x="587" y="532" on="0"/>
        <pt x="464" y="694" on="0"/>
      </contour>
      <contour>
        <pt x="508" y="770" on="1"/>
        <pt x="487" y="750" on="1"/>
        <pt x="366" y="880" on="1"/>
        <pt x="250" y="755" on="1"/>
        <pt x="243" y="760" on="1"/>
        <pt x="380" y="905" on="1"/>
      </contour>
    </TTGlyph>
    <TTGlyph name="Odieresis" xMin="50" yMin="-4" xMax="670" yMax="835">
      <contour>
        <pt x="50" y="333" on="1"/>
        <pt x="50" y="515" on="0"/>
        <pt x="227" y="704" on="0"/>
        <pt x="505" y="704" on="0"/>
        <pt x="670" y="540" on="0"/>
        <pt x="670" y="180" on="0"/>
        <pt x="494" y="-4" on="0"/>
        <pt x="347" y="-4" on="1"/>
        <pt x="220" y="-4" on="0"/>
        <pt x="139" y="69" on="1"/>
        <pt x="97" y="107" on="0"/>
        <pt x="50" y="242" on="0"/>
      </contour>
      <contour>
        <pt x="262" y="694" on="0"/>
        <pt x="133" y="514" on="0"/>
        <pt x="133" y="166" on="0"/>
        <pt x="255" y="6" on="0"/>
        <pt x="458" y="6" on="0"/>
        <pt x="587" y="187" on="0"/>
        <pt x="587" y="532" on="0"/>
        <pt x="464" y="694" on="0"/>
      </contour>
      <contour>
        <pt x="208" y="774" on="0"/>
        <pt x="208" y="810" on="0"/>
        <pt x="232" y="835" on="0"/>
        <pt x="268" y="835" on="0"/>
        <pt x="293" y="810" on="0"/>
        <pt x="293" y="774" on="0"/>
        <pt x="268" y="750" on="0"/>
        <pt x="232" y="750" on="0"/>
      </contour>
      <contour>
        <pt x="426" y="774" on="0"/>
        <pt x="426" y="810" on="0"/>
        <pt x="450" y="835" on="0"/>
        <pt x="486" y="835" on="0"/>
        <pt x="511" y="810" on="0"/>
        <pt x="511" y="774" on="0"/>
        <pt x="486" y="750" on="0"/>
        <pt x="450" y="750" on="0"/>
      </contour>
    </TTGlyph>
    <TTGlyph name="Ograve" xMin="50" yMin="-4" xMax="670" yMax="893">
      <contour>
        <pt x="50" y="333" on="1"/>
        <pt x="50" y="515" on="0"/>
        <pt x="227" y="704" on="0"/>
        <pt x="505" y="704" on="0"/>
        <pt x="670" y="540" on="0"/>
        <pt x="670" y="180" on="0"/>
        <pt x="494" y="-4" on="0"/>
        <pt x="347" y="-4" on="1"/>
        <pt x="220" y="-4" on="0"/>
        <pt x="139" y="69" on="1"/>
        <pt x="97" y="107" on="0"/>
        <pt x="50" y="242" on="0"/>
      </contour>
      <contour>
        <pt x="262" y="694" on="0"/>
        <pt x="133" y="514" on="0"/>
        <pt x="133" y="166" on="0"/>
        <pt x="255" y="6" on="0"/>
        <pt x="458" y="6" on="0"/>
        <pt x="587" y="187" on="0"/>
        <pt x="587" y="532" on="0"/>
        <pt x="464" y="694" on="0"/>
      </contour>
      <contour>
        <pt x="249" y="893" on="1"/>
        <pt x="321" y="891" on="1"/>
        <pt x="367" y="750" on="1"/>
        <pt x="354" y="750" on="1"/>
      </contour>
    </TTGlyph>
    <TTGlyph name="Oslash" xMin="50" yMin="-4" xMax="670" yMax="704">
      <contour>
        <pt x="97" y="0" on="1"/>
        <pt x="90" y="5" on="1"/>
        <pt x="597" y="700" on="1"/>
        <pt x="604" y="695" on="1"/>
      </contour>
      <contour>
        <pt x="50" y="333" on="1"/>
        <pt x="50" y="515" on="0"/>
        <pt x="227" y="704" on="0"/>
        <pt x="505" y="704" on="0"/>
        <pt x="670" y="540" on="0"/>
        <pt x="670" y="180" on="0"/>
        <pt x="494" y="-4" on="0"/>
        <pt x="347" y="-4" on="1"/>
        <pt x="220" y="-4" on="0"/>
        <pt x="139" y="69" on="1"/>
        <pt x="97" y="107" on="0"/>
        <pt x="50" y="242" on="0"/>
      </contour>
      <contour>
        <pt x="262" y="694" on="0"/>
        <pt x="133" y="514" on="0"/>
        <pt x="133" y="166" on="0"/>
        <pt x="255" y="6" on="0"/>
        <pt x="458" y="6" on="0"/>
        <pt x="587" y="187" on="0"/>
        <pt x="587" y="532" on="0"/>
        <pt x="464" y="694" on="0"/>
      </contour>
    </TTGlyph>
    <TTGlyph name="Otilde" xMin="50" yMin="-4" xMax="670" yMax="829">
      <contour>
        <pt x="50" y="333" on="1"/>
        <pt x="50" y="515" on="0"/>
        <pt x="227" y="704" on="0"/>
        <pt x="505" y="704" on="0"/>
        <pt x="670" y="540" on="0"/>
        <pt x="670" y="180" on="0"/>
        <pt x="494" y="-4" on="0"/>
        <pt x="347" y="-4" on="1"/>
        <pt x="220" y="-4" on="0"/>
        <pt x="139" y="69" on="1"/>
        <pt x="97" y="107" on="0"/>
        <pt x="50" y="242" on="0"/>
      </contour>
      <contour>
        <pt x="262" y="694" on="0"/>
        <pt x="133" y="514" on="0"/>
        <pt x="133" y="166" on="0"/>
        <pt x="255" y="6" on="0"/>
        <pt x="458" y="6" on="0"/>
        <pt x="587" y="187" on="0"/>
        <pt x="587" y="532" on="0"/>
        <pt x="464" y="694" on="0"/>
      </contour>
      <contour>
        <pt x="265" y="786" on="1"/>
        <pt x="212" y="786" on="0"/>
        <pt x="203" y="751" on="1"/>
        <pt x="195" y="754" on="1"/>
        <pt x="200" y="784" on="0"/>
        <pt x="221" y="808" on="1"/>
        <pt x="228" y="816" on="0"/>
        <pt x="244" y="819" on="1"/>
        <pt x="268" y="824" on="1"/>
        <pt x="285" y="827" on="0"/>
        <pt x="375" y="806" on="0"/>
        <pt x="412" y="798" on="1"/>
        <pt x="450" y="789" on="0"/>
        <pt x="514" y="789" on="0"/>
        <pt x="534" y="806" on="0"/>
        <pt x="540" y="829" on="1"/>
        <pt x="549" y="827" on="1"/>
        <pt x="538" y="773" on="0"/>
        <pt x="508" y="757" on="1"/>
        <pt x="496" y="750" on="0"/>
        <pt x="476" y="750" on="0"/>
        <pt x="466" y="751" on="1"/>
        <pt x="443" y="751" on="0"/>
        <pt x="386" y="768" on="0"/>
        <pt x="382" y="769" on="0"/>
        <pt x="377" y="770" on="0"/>
        <pt x="303" y="786" on="0"/>
      </contour>
    </TTGlyph>
    <TTGlyph name="P" xMin="70" yMin="0" xMax="522" yMax="701">
      <contour>
        <pt x="70" y="692" on="1"/>
        <pt x="186" y="700" on="0"/>
        <pt x="274" y="700" on="1"/>
        <pt x="522" y="700" on="0"/>
        <pt x="522" y="525" on="1"/>
        <pt x="522" y="444" on="0"/>
        <pt x="480" y="383" on="1"/>
        <pt x="458" y="350" on="0"/>
        <pt x="366" y="311" on="0"/>
        <pt x="301" y="311" on="1"/>
        <pt x="153" y="311" on="1"/>
        <pt x="153" y="0" on="1"/>
        <pt x="70" y="0" on="1"/>
      </contour>
      <contour>
        <pt x="275" y="690" on="1"/>
        <pt x="217" y="690" on="0"/>
        <pt x="153" y="683" on="1"/>
        <pt x="153" y="321" on="1"/>
        <pt x="301" y="321" on="1"/>
        <pt x="442" y="327" on="0"/>
        <pt x="442" y="523" on="1"/>
        <pt x="442" y="603" on="0"/>
        <pt x="358" y="690" on="0"/>
      </contour>
    </TTGlyph>
    <TTGlyph name="Q" xMin="50" yMin="-208" xMax="857" yMax="704">
      <contour>
        <pt x="50" y="348" on="1"/>
        <pt x="50" y="511" on="0"/>
        <pt x="226" y="704" on="0"/>
        <pt x="360" y="704" on="1"/>
        <pt x="498" y="704" on="0"/>
        <pt x="580" y="632" on="1"/>
        <pt x="670" y="551" on="0"/>
        <pt x="670" y="348" on="1"/>
        <pt x="670" y="202" on="0"/>
        <pt x="527" y="18" on="0"/>
        <pt x="412" y="0" on="1"/>
        <pt x="475" y="-14" on="0"/>
        <pt x="564" y="-84" on="1"/>
        <pt x="598" y="-111" on="0"/>
        <pt x="638" y="-138" on="1"/>
        <pt x="728" y="-198" on="0"/>
        <pt x="857" y="-198" on="1"/>
        <pt x="857" y="-208" on="1"/>
        <pt x="675" y="-208" on="0"/>
        <pt x="574" y="-168" on="1"/>
        <pt x="489" y="-133" on="0"/>
        <pt x="451" y="-84" on="1"/>
        <pt x="434" y="-62" on="0"/>
        <pt x="407" y="-27" on="0"/>
        <pt x="379" y="-4" on="0"/>
        <pt x="360" y="-4" on="1"/>
        <pt x="290" y="-4" on="0"/>
        <pt x="184" y="28" on="0"/>
        <pt x="140" y="66" on="1"/>
        <pt x="50" y="145" on="0"/>
      </contour>
      <contour>
        <pt x="133" y="350" on="1"/>
        <pt x="133" y="6" on="0"/>
        <pt x="360" y="6" on="1"/>
        <pt x="458" y="6" on="0"/>
        <pt x="587" y="190" on="0"/>
        <pt x="587" y="350" on="1"/>
        <pt x="587" y="694" on="0"/>
        <pt x="360" y="694" on="1"/>
        <pt x="262" y="694" on="0"/>
        <pt x="133" y="510" on="0"/>
      </contour>
    </TTGlyph>
    <TTGlyph name="R" xMin="70" yMin="0" xMax="571" yMax="701">
      <contour>
        <pt x="70" y="692" on="1"/>
        <pt x="186" y="700" on="0"/>
        <pt x="275" y="700" on="1"/>
        <pt x="522" y="700" on="0"/>
        <pt x="522" y="535" on="1"/>
        <pt x="522" y="465" on="0"/>
        <pt x="454" y="355" on="0"/>
        <pt x="371" y="337" on="1"/>
        <pt x="571" y="0" on="1"/>
        <pt x="478" y="0" on="1"/>
        <pt x="282" y="331" on="1"/>
        <pt x="153" y="331" on="1"/>
        <pt x="153" y="0" on="1"/>
        <pt x="70" y="0" on="1"/>
      </contour>
      <contour>
        <pt x="275" y="690" on="1"/>
        <pt x="217" y="690" on="0"/>
        <pt x="153" y="683" on="1"/>
        <pt x="153" y="341" on="1"/>
        <pt x="301" y="341" on="1"/>
        <pt x="442" y="347" on="0"/>
        <pt x="442" y="533" on="1"/>
        <pt x="442" y="609" on="0"/>
        <pt x="358" y="690" on="0"/>
      </contour>
    </TTGlyph>
    <TTGlyph name="S" xMin="35" yMin="-1" xMax="480" yMax="702">
      <contour>
        <pt x="439" y="658" on="1"/>
        <pt x="348" y="693" on="0"/>
        <pt x="187" y="693" on="0"/>
        <pt x="97" y="625" on="0"/>
        <pt x="97" y="565" on="1"/>
        <pt x="97" y="492" on="0"/>
        <pt x="173" y="452" on="1"/>
        <pt x="207" y="435" on="0"/>
        <pt x="288" y="406" on="0"/>
        <pt x="370" y="370" on="0"/>
        <pt x="438" y="324" on="0"/>
        <pt x="480" y="243" on="0"/>
        <pt x="480" y="118" on="0"/>
        <pt x="410" y="30" on="0"/>
        <pt x="311" y="-1" on="0"/>
        <pt x="245" y="-1" on="1"/>
        <pt x="122" y="-1" on="0"/>
        <pt x="35" y="60" on="1"/>
        <pt x="40" y="68" on="1"/>
        <pt x="73" y="42" on="0"/>
        <pt x="178" y="9" on="0"/>
        <pt x="233" y="9" on="1"/>
        <pt x="314" y="9" on="0"/>
        <pt x="429" y="84" on="0"/>
        <pt x="429" y="157" on="1"/>
        <pt x="429" y="237" on="0"/>
        <pt x="353" y="282" on="1"/>
        <pt x="319" y="302" on="0"/>
        <pt x="238" y="336" on="0"/>
        <pt x="156" y="373" on="0"/>
        <pt x="122" y="396" on="1"/>
        <pt x="46" y="446" on="0"/>
        <pt x="46" y="538" on="1"/>
        <pt x="46" y="611" on="0"/>
        <pt x="144" y="702" on="0"/>
        <pt x="341" y="702" on="0"/>
        <pt x="443" y="668" on="1"/>
      </contour>
    </TTGlyph>
    <TTGlyph name="T" xMin="30" yMin="0" xMax="460" yMax="700">
      <contour>
        <pt x="286" y="0" on="1"/>
        <pt x="203" y="0" on="1"/>
        <pt x="203" y="690" on="1"/>
        <pt x="30" y="690" on="1"/>
        <pt x="30" y="700" on="1"/>
        <pt x="460" y="700" on="1"/>
        <pt x="460" y="690" on="1"/>
        <pt x="286" y="690" on="1"/>
      </contour>
    </TTGlyph>
    <TTGlyph name="Thorn" xMin="70" yMin="0" xMax="522" yMax="700">
      <contour>
        <pt x="153" y="171" on="1"/>
        <pt x="153" y="0" on="1"/>
        <pt x="70" y="0" on="1"/>
        <pt x="70" y="700" on="1"/>
        <pt x="153" y="700" on="1"/>
        <pt x="153" y="557" on="1"/>
        <pt x="263" y="560" on="1"/>
        <pt x="269" y="560" on="0"/>
        <pt x="274" y="560" on="1"/>
        <pt x="522" y="560" on="0"/>
        <pt x="522" y="385" on="1"/>
        <pt x="522" y="304" on="0"/>
        <pt x="480" y="243" on="1"/>
        <pt x="458" y="210" on="0"/>
        <pt x="366" y="171" on="0"/>
        <pt x="301" y="171" on="1"/>
      </contour>
      <contour>
        <pt x="275" y="550" on="1"/>
        <pt x="217" y="550" on="0"/>
        <pt x="153" y="543" on="1"/>
        <pt x="153" y="181" on="1"/>
        <pt x="301" y="181" on="1"/>
        <pt x="442" y="187" on="0"/>
        <pt x="442" y="383" on="1"/>
        <pt x="442" y="463" on="0"/>
        <pt x="358" y="550" on="0"/>
      </contour>
    </TTGlyph>
    <TTGlyph name="U" xMin="70" yMin="-4" xMax="564" yMax="700">
      <contour>
        <pt x="551" y="700" on="1"/>
        <pt x="564" y="700" on="1"/>
        <pt x="564" y="300" on="1"/>
        <pt x="564" y="143" on="0"/>
        <pt x="440" y="-4" on="0"/>
        <pt x="340" y="-4" on="1"/>
        <pt x="277" y="-4" on="0"/>
        <pt x="189" y="19" on="0"/>
        <pt x="150" y="50" on="1"/>
        <pt x="70" y="112" on="0"/>
        <pt x="70" y="300" on="1"/>
        <pt x="70" y="700" on="1"/>
        <pt x="153" y="700" on="1"/>
        <pt x="153" y="301" on="1"/>
        <pt x="153" y="119" on="0"/>
        <pt x="208" y="58" on="1"/>
        <pt x="236" y="28" on="0"/>
        <pt x="297" y="6" on="0"/>
        <pt x="340" y="6" on="1"/>
        <pt x="436" y="6" on="0"/>
        <pt x="551" y="147" on="0"/>
        <pt x="551" y="301" on="1"/>
      </contour>
    </TTGlyph>
    <TTGlyph name="Uacute" xMin="30" yMin="-4" xMax="524" yMax="893">
      <contour>
        <pt x="511" y="700" on="1"/>
        <pt x="524" y="700" on="1"/>
        <pt x="524" y="300" on="1"/>
        <pt x="524" y="143" on="0"/>
        <pt x="400" y="-4" on="0"/>
        <pt x="300" y="-4" on="1"/>
        <pt x="237" y="-4" on="0"/>
        <pt x="149" y="19" on="0"/>
        <pt x="110" y="50" on="1"/>
        <pt x="30" y="112" on="0"/>
        <pt x="30" y="300" on="1"/>
        <pt x="30" y="700" on="1"/>
        <pt x="113" y="700" on="1"/>
        <pt x="113" y="301" on="1"/>
        <pt x="113" y="119" on="0"/>
        <pt x="168" y="58" on="1"/>
        <pt x="196" y="28" on="0"/>
        <pt x="257" y="6" on="0"/>
        <pt x="300" y="6" on="1"/>
        <pt x="396" y="6" on="0"/>
        <pt x="511" y="147" on="0"/>
        <pt x="511" y="301" on="1"/>
      </contour>
      <contour>
        <pt x="348" y="891" on="1"/>
        <pt x="420" y="893" on="1"/>
        <pt x="315" y="750" on="1"/>
        <pt x="302" y="750" on="1"/>
      </contour>
    </TTGlyph>
    <TTGlyph name="Ucircumflex" xMin="30" yMin="-4" xMax="524" yMax="906">
      <contour>
        <pt x="511" y="700" on="1"/>
        <pt x="524" y="700" on="1"/>
        <pt x="524" y="300" on="1"/>
        <pt x="524" y="143" on="0"/>
        <pt x="400" y="-4" on="0"/>
        <pt x="300" y="-4" on="1"/>
        <pt x="237" y="-4" on="0"/>
        <pt x="149" y="19" on="0"/>
        <pt x="110" y="50" on="1"/>
        <pt x="30" y="112" on="0"/>
        <pt x="30" y="300" on="1"/>
        <pt x="30" y="700" on="1"/>
        <pt x="113" y="700" on="1"/>
        <pt x="113" y="301" on="1"/>
        <pt x="113" y="119" on="0"/>
        <pt x="168" y="58" on="1"/>
        <pt x="196" y="28" on="0"/>
        <pt x="257" y="6" on="0"/>
        <pt x="300" y="6" on="1"/>
        <pt x="396" y="6" on="0"/>
        <pt x="511" y="147" on="0"/>
        <pt x="511" y="301" on="1"/>
      </contour>
      <contour>
        <pt x="441" y="771" on="1"/>
        <pt x="420" y="751" on="1"/>
        <pt x="299" y="881" on="1"/>
        <pt x="183" y="756" on="1"/>
        <pt x="176" y="761" on="1"/>
        <pt x="313" y="906" on="1"/>
      </contour>
    </TTGlyph>
    <TTGlyph name="Udieresis" xMin="30" yMin="-4" xMax="524" yMax="835">
      <contour>
        <pt x="511" y="700" on="1"/>
        <pt x="524" y="700" on="1"/>
        <pt x="524" y="300" on="1"/>
        <pt x="524" y="143" on="0"/>
        <pt x="400" y="-4" on="0"/>
        <pt x="300" y="-4" on="1"/>
        <pt x="237" y="-4" on="0"/>
        <pt x="149" y="19" on="0"/>
        <pt x="110" y="50" on="1"/>
        <pt x="30" y="112" on="0"/>
        <pt x="30" y="300" on="1"/>
        <pt x="30" y="700" on="1"/>
        <pt x="113" y="700" on="1"/>
        <pt x="113" y="301" on="1"/>
        <pt x="113" y="119" on="0"/>
        <pt x="168" y="58" on="1"/>
        <pt x="196" y="28" on="0"/>
        <pt x="257" y="6" on="0"/>
        <pt x="300" y="6" on="1"/>
        <pt x="396" y="6" on="0"/>
        <pt x="511" y="147" on="0"/>
        <pt x="511" y="301" on="1"/>
      </contour>
      <contour>
        <pt x="161" y="774" on="0"/>
        <pt x="161" y="810" on="0"/>
        <pt x="185" y="835" on="0"/>
        <pt x="221" y="835" on="0"/>
        <pt x="246" y="810" on="0"/>
        <pt x="246" y="774" on="0"/>
        <pt x="221" y="750" on="0"/>
        <pt x="185" y="750" on="0"/>
      </contour>
      <contour>
        <pt x="379" y="774" on="0"/>
        <pt x="379" y="810" on="0"/>
        <pt x="403" y="835" on="0"/>
        <pt x="439" y="835" on="0"/>
        <pt x="464" y="810" on="0"/>
        <pt x="464" y="774" on="0"/>
        <pt x="439" y="750" on="0"/>
        <pt x="403" y="750" on="0"/>
      </contour>
    </TTGlyph>
    <TTGlyph name="Ugrave" xMin="30" yMin="-4" xMax="524" yMax="893">
      <contour>
        <pt x="511" y="700" on="1"/>
        <pt x="524" y="700" on="1"/>
        <pt x="524" y="300" on="1"/>
        <pt x="524" y="143" on="0"/>
        <pt x="400" y="-4" on="0"/>
        <pt x="300" y="-4" on="1"/>
        <pt x="237" y="-4" on="0"/>
        <pt x="149" y="19" on="0"/>
        <pt x="110" y="50" on="1"/>
        <pt x="30" y="112" on="0"/>
        <pt x="30" y="300" on="1"/>
        <pt x="30" y="700" on="1"/>
        <pt x="113" y="700" on="1"/>
        <pt x="113" y="301" on="1"/>
        <pt x="113" y="119" on="0"/>
        <pt x="168" y="58" on="1"/>
        <pt x="196" y="28" on="0"/>
        <pt x="257" y="6" on="0"/>
        <pt x="300" y="6" on="1"/>
        <pt x="396" y="6" on="0"/>
        <pt x="511" y="147" on="0"/>
        <pt x="511" y="301" on="1"/>
      </contour>
      <contour>
        <pt x="202" y="893" on="1"/>
        <pt x="274" y="891" on="1"/>
        <pt x="320" y="750" on="1"/>
        <pt x="307" y="750" on="1"/>
      </contour>
    </TTGlyph>
    <TTGlyph name="V" xMin="30" yMin="-5" xMax="560" yMax="700">
      <contour>
        <pt x="541" y="700" on="1"/>
        <pt x="560" y="681" on="0"/>
        <pt x="560" y="651" on="1"/>
        <pt x="560" y="626" on="0"/>
        <pt x="549" y="600" on="1"/>
        <pt x="293" y="0" on="1"/>
        <pt x="282" y="-5" on="1"/>
        <pt x="30" y="700" on="1"/>
        <pt x="115" y="700" on="1"/>
        <pt x="324" y="108" on="1"/>
        <pt x="537" y="600" on="1"/>
        <pt x="548" y="625" on="0"/>
        <pt x="548" y="679" on="0"/>
        <pt x="533" y="694" on="1"/>
      </contour>
    </TTGlyph>
    <TTGlyph name="W" xMin="30" yMin="-5" xMax="816" yMax="700">
      <contour>
        <pt x="797" y="700" on="1"/>
        <pt x="816" y="681" on="0"/>
        <pt x="816" y="651" on="1"/>
        <pt x="816" y="626" on="0"/>
        <pt x="805" y="600" on="1"/>
        <pt x="569" y="0" on="1"/>
        <pt x="558" y="-5" on="1"/>
        <pt x="426" y="414" on="1"/>
        <pt x="263" y="0" on="1"/>
        <pt x="252" y="-5" on="1"/>
        <pt x="30" y="700" on="1"/>
        <pt x="115" y="700" on="1"/>
        <pt x="294" y="108" on="1"/>
        <pt x="421" y="430" on="1"/>
        <pt x="336" y="700" on="1"/>
        <pt x="421" y="700" on="1"/>
        <pt x="600" y="108" on="1"/>
        <pt x="793" y="600" on="1"/>
        <pt x="804" y="625" on="0"/>
        <pt x="804" y="679" on="0"/>
        <pt x="789" y="694" on="1"/>
      </contour>
    </TTGlyph>
    <TTGlyph name="X" xMin="30" yMin="0" xMax="521" yMax="700">
      <contour>
        <pt x="60" y="0" on="1"/>
        <pt x="47" y="0" on="1"/>
        <pt x="228" y="358" on="1"/>
        <pt x="30" y="700" on="1"/>
        <pt x="114" y="700" on="1"/>
        <pt x="286" y="404" on="1"/>
        <pt x="436" y="700" on="1"/>
        <pt x="448" y="700" on="1"/>
        <pt x="293" y="392" on="1"/>
        <pt x="521" y="0" on="1"/>
        <pt x="437" y="0" on="1"/>
        <pt x="235" y="347" on="1"/>
      </contour>
    </TTGlyph>
    <TTGlyph name="Y" xMin="30" yMin="0" xMax="503" yMax="700">
      <contour>
        <pt x="484" y="700" on="1"/>
        <pt x="503" y="681" on="0"/>
        <pt x="503" y="651" on="1"/>
        <pt x="503" y="626" on="0"/>
        <pt x="492" y="600" on="1"/>
        <pt x="313" y="237" on="1"/>
        <pt x="313" y="0" on="1"/>
        <pt x="230" y="0" on="1"/>
        <pt x="230" y="215" on="1"/>
        <pt x="30" y="700" on="1"/>
        <pt x="115" y="700" on="1"/>
        <pt x="306" y="249" on="1"/>
        <pt x="480" y="600" on="1"/>
        <pt x="491" y="625" on="0"/>
        <pt x="491" y="679" on="0"/>
        <pt x="476" y="694" on="1"/>
      </contour>
    </TTGlyph>
    <TTGlyph name="Yacute" xMin="30" yMin="0" xMax="503" yMax="893">
      <contour>
        <pt x="484" y="700" on="1"/>
        <pt x="503" y="681" on="0"/>
        <pt x="503" y="651" on="1"/>
        <pt x="503" y="626" on="0"/>
        <pt x="492" y="600" on="1"/>
        <pt x="313" y="237" on="1"/>
        <pt x="313" y="0" on="1"/>
        <pt x="230" y="0" on="1"/>
        <pt x="230" y="215" on="1"/>
        <pt x="30" y="700" on="1"/>
        <pt x="115" y="700" on="1"/>
        <pt x="306" y="249" on="1"/>
        <pt x="480" y="600" on="1"/>
        <pt x="491" y="625" on="0"/>
        <pt x="491" y="679" on="0"/>
        <pt x="476" y="694" on="1"/>
      </contour>
      <contour>
        <pt x="328" y="891" on="1"/>
        <pt x="400" y="893" on="1"/>
        <pt x="295" y="750" on="1"/>
        <pt x="282" y="750" on="1"/>
      </contour>
    </TTGlyph>
    <TTGlyph name="Ydieresis" xMin="30" yMin="0" xMax="511" yMax="885">
      <contour>
        <pt x="480" y="600" on="1"/>
        <pt x="491" y="625" on="0"/>
        <pt x="491" y="679" on="0"/>
        <pt x="476" y="694" on="1"/>
        <pt x="484" y="700" on="1"/>
        <pt x="507" y="677" on="0"/>
        <pt x="502" y="636" on="1"/>
        <pt x="500" y="619" on="0"/>
        <pt x="492" y="600" on="1"/>
        <pt x="313" y="237" on="1"/>
        <pt x="313" y="0" on="1"/>
        <pt x="230" y="0" on="1"/>
        <pt x="230" y="215" on="1"/>
        <pt x="30" y="700" on="1"/>
        <pt x="115" y="700" on="1"/>
        <pt x="306" y="249" on="1"/>
      </contour>
      <contour>
        <pt x="208" y="824" on="0"/>
        <pt x="208" y="860" on="0"/>
        <pt x="232" y="885" on="0"/>
        <pt x="268" y="885" on="0"/>
        <pt x="293" y="860" on="0"/>
        <pt x="293" y="824" on="0"/>
        <pt x="268" y="800" on="0"/>
        <pt x="232" y="800" on="0"/>
      </contour>
      <contour>
        <pt x="426" y="824" on="0"/>
        <pt x="426" y="860" on="0"/>
        <pt x="450" y="885" on="0"/>
        <pt x="486" y="885" on="0"/>
        <pt x="511" y="860" on="0"/>
        <pt x="511" y="824" on="0"/>
        <pt x="486" y="800" on="0"/>
        <pt x="450" y="800" on="0"/>
      </contour>
    </TTGlyph>
    <TTGlyph name="Z" xMin="35" yMin="0" xMax="510" yMax="700">
      <contour>
        <pt x="61" y="690" on="1"/>
        <pt x="61" y="700" on="1"/>
        <pt x="469" y="700" on="1"/>
        <pt x="469" y="690" on="1"/>
        <pt x="116" y="10" on="1"/>
        <pt x="417" y="10" on="1"/>
        <pt x="446" y="10" on="0"/>
        <pt x="494" y="30" on="0"/>
        <pt x="502" y="49" on="1"/>
        <pt x="510" y="45" on="1"/>
        <pt x="508" y="40" on="0"/>
        <pt x="499" y="25" on="0"/>
        <pt x="453" y="0" on="0"/>
        <pt x="420" y="0" on="1"/>
        <pt x="35" y="0" on="1"/>
        <pt x="35" y="10" on="1"/>
        <pt x="386" y="690" on="1"/>
      </contour>
    </TTGlyph>
    <TTGlyph name="a" xMin="35" yMin="-4" xMax="484" yMax="504">
      <contour>
        <pt x="453" y="0" on="1"/>
        <pt x="385" y="0" on="0"/>
        <pt x="360" y="26" on="1"/>
        <pt x="337" y="48" on="0"/>
        <pt x="337" y="64" on="1"/>
        <pt x="337" y="85" on="1"/>
        <pt x="288" y="-4" on="0"/>
        <pt x="180" y="-4" on="1"/>
        <pt x="54" y="-4" on="0"/>
        <pt x="37" y="110" on="1"/>
        <pt x="35" y="122" on="0"/>
        <pt x="35" y="147" on="0"/>
        <pt x="43" y="177" on="0"/>
        <pt x="62" y="195" on="1"/>
        <pt x="100" y="231" on="0"/>
        <pt x="229" y="239" on="1"/>
        <pt x="261" y="242" on="0"/>
        <pt x="315" y="242" on="0"/>
        <pt x="337" y="240" on="1"/>
        <pt x="337" y="406" on="1"/>
        <pt x="335" y="407" on="0"/>
        <pt x="339" y="424" on="0"/>
        <pt x="328" y="451" on="0"/>
        <pt x="310" y="477" on="0"/>
        <pt x="264" y="496" on="0"/>
        <pt x="190" y="496" on="0"/>
        <pt x="91" y="469" on="0"/>
        <pt x="68" y="456" on="1"/>
        <pt x="64" y="463" on="1"/>
        <pt x="153" y="504" on="0"/>
        <pt x="245" y="504" on="1"/>
        <pt x="348" y="504" on="0"/>
        <pt x="381" y="467" on="1"/>
        <pt x="407" y="438" on="0"/>
        <pt x="407" y="406" on="1"/>
        <pt x="407" y="71" on="1"/>
        <pt x="407" y="42" on="0"/>
        <pt x="430" y="11" on="0"/>
        <pt x="442" y="10" on="1"/>
        <pt x="453" y="8" on="1"/>
        <pt x="484" y="8" on="1"/>
        <pt x="484" y="0" on="1"/>
      </contour>
      <contour>
        <pt x="196" y="4" on="1"/>
        <pt x="249" y="4" on="0"/>
        <pt x="334" y="77" on="0"/>
        <pt x="337" y="111" on="1"/>
        <pt x="337" y="232" on="1"/>
        <pt x="310" y="234" on="0"/>
        <pt x="255" y="234" on="0"/>
        <pt x="228" y="231" on="1"/>
        <pt x="152" y="222" on="0"/>
        <pt x="106" y="172" on="0"/>
        <pt x="106" y="128" on="1"/>
        <pt x="106" y="120" on="0"/>
        <pt x="107" y="110" on="1"/>
        <pt x="116" y="4" on="0"/>
      </contour>
    </TTGlyph>
    <TTGlyph name="aacute" xMin="35" yMin="-4" xMax="484" yMax="710">
      <contour>
        <pt x="453" y="0" on="1"/>
        <pt x="385" y="0" on="0"/>
        <pt x="360" y="26" on="1"/>
        <pt x="337" y="48" on="0"/>
        <pt x="337" y="64" on="1"/>
        <pt x="337" y="85" on="1"/>
        <pt x="288" y="-4" on="0"/>
        <pt x="180" y="-4" on="1"/>
        <pt x="54" y="-4" on="0"/>
        <pt x="37" y="110" on="1"/>
        <pt x="35" y="122" on="0"/>
        <pt x="35" y="147" on="0"/>
        <pt x="43" y="177" on="0"/>
        <pt x="62" y="195" on="1"/>
        <pt x="100" y="231" on="0"/>
        <pt x="229" y="239" on="1"/>
        <pt x="261" y="242" on="0"/>
        <pt x="315" y="242" on="0"/>
        <pt x="337" y="240" on="1"/>
        <pt x="337" y="406" on="1"/>
        <pt x="335" y="407" on="0"/>
        <pt x="339" y="424" on="0"/>
        <pt x="328" y="451" on="0"/>
        <pt x="310" y="477" on="0"/>
        <pt x="264" y="496" on="0"/>
        <pt x="190" y="496" on="0"/>
        <pt x="91" y="469" on="0"/>
        <pt x="68" y="456" on="1"/>
        <pt x="64" y="463" on="1"/>
        <pt x="153" y="504" on="0"/>
        <pt x="245" y="504" on="1"/>
        <pt x="348" y="504" on="0"/>
        <pt x="381" y="467" on="1"/>
        <pt x="407" y="438" on="0"/>
        <pt x="407" y="406" on="1"/>
        <pt x="407" y="71" on="1"/>
        <pt x="407" y="42" on="0"/>
        <pt x="430" y="11" on="0"/>
        <pt x="442" y="10" on="1"/>
        <pt x="453" y="8" on="1"/>
        <pt x="484" y="8" on="1"/>
        <pt x="484" y="0" on="1"/>
      </contour>
      <contour>
        <pt x="196" y="4" on="1"/>
        <pt x="249" y="4" on="0"/>
        <pt x="334" y="77" on="0"/>
        <pt x="337" y="111" on="1"/>
        <pt x="337" y="232" on="1"/>
        <pt x="310" y="234" on="0"/>
        <pt x="255" y="234" on="0"/>
        <pt x="228" y="231" on="1"/>
        <pt x="152" y="222" on="0"/>
        <pt x="106" y="172" on="0"/>
        <pt x="106" y="128" on="1"/>
        <pt x="106" y="120" on="0"/>
        <pt x="107" y="110" on="1"/>
        <pt x="116" y="4" on="0"/>
      </contour>
      <contour>
        <pt x="284" y="708" on="1"/>
        <pt x="356" y="710" on="1"/>
        <pt x="251" y="567" on="1"/>
        <pt x="238" y="567" on="1"/>
      </contour>
    </TTGlyph>
    <TTGlyph name="acircumflex" xMin="35" yMin="-4" xMax="484" yMax="750">
      <contour>
        <pt x="453" y="0" on="1"/>
        <pt x="385" y="0" on="0"/>
        <pt x="360" y="26" on="1"/>
        <pt x="337" y="48" on="0"/>
        <pt x="337" y="64" on="1"/>
        <pt x="337" y="85" on="1"/>
        <pt x="288" y="-4" on="0"/>
        <pt x="180" y="-4" on="1"/>
        <pt x="54" y="-4" on="0"/>
        <pt x="37" y="110" on="1"/>
        <pt x="35" y="122" on="0"/>
        <pt x="35" y="147" on="0"/>
        <pt x="43" y="177" on="0"/>
        <pt x="62" y="195" on="1"/>
        <pt x="100" y="231" on="0"/>
        <pt x="229" y="239" on="1"/>
        <pt x="261" y="242" on="0"/>
        <pt x="315" y="242" on="0"/>
        <pt x="337" y="240" on="1"/>
        <pt x="337" y="406" on="1"/>
        <pt x="335" y="407" on="0"/>
        <pt x="339" y="424" on="0"/>
        <pt x="328" y="451" on="0"/>
        <pt x="310" y="477" on="0"/>
        <pt x="264" y="496" on="0"/>
        <pt x="190" y="496" on="0"/>
        <pt x="91" y="469" on="0"/>
        <pt x="68" y="456" on="1"/>
        <pt x="64" y="463" on="1"/>
        <pt x="153" y="504" on="0"/>
        <pt x="245" y="504" on="1"/>
        <pt x="348" y="504" on="0"/>
        <pt x="381" y="467" on="1"/>
        <pt x="407" y="438" on="0"/>
        <pt x="407" y="406" on="1"/>
        <pt x="407" y="71" on="1"/>
        <pt x="407" y="42" on="0"/>
        <pt x="430" y="11" on="0"/>
        <pt x="442" y="10" on="1"/>
        <pt x="453" y="8" on="1"/>
        <pt x="484" y="8" on="1"/>
        <pt x="484" y="0" on="1"/>
      </contour>
      <contour>
        <pt x="196" y="4" on="1"/>
        <pt x="249" y="4" on="0"/>
        <pt x="334" y="77" on="0"/>
        <pt x="337" y="111" on="1"/>
        <pt x="337" y="232" on="1"/>
        <pt x="310" y="234" on="0"/>
        <pt x="255" y="234" on="0"/>
        <pt x="228" y="231" on="1"/>
        <pt x="152" y="222" on="0"/>
        <pt x="106" y="172" on="0"/>
        <pt x="106" y="128" on="1"/>
        <pt x="106" y="120" on="0"/>
        <pt x="107" y="110" on="1"/>
        <pt x="116" y="4" on="0"/>
      </contour>
      <contour>
        <pt x="377" y="615" on="1"/>
        <pt x="356" y="595" on="1"/>
        <pt x="235" y="725" on="1"/>
        <pt x="119" y="600" on="1"/>
        <pt x="112" y="605" on="1"/>
        <pt x="249" y="750" on="1"/>
      </contour>
    </TTGlyph>
    <TTGlyph name="acute" xMin="102" yMin="567" xMax="220" yMax="710">
      <contour>
        <pt x="148" y="708" on="1"/>
        <pt x="220" y="710" on="1"/>
        <pt x="115" y="567" on="1"/>
        <pt x="102" y="567" on="1"/>
      </contour>
    </TTGlyph>
    <TTGlyph name="adieresis" xMin="35" yMin="-4" xMax="484" yMax="685">
      <contour>
        <pt x="453" y="0" on="1"/>
        <pt x="385" y="0" on="0"/>
        <pt x="360" y="26" on="1"/>
        <pt x="337" y="48" on="0"/>
        <pt x="337" y="64" on="1"/>
        <pt x="337" y="85" on="1"/>
        <pt x="288" y="-4" on="0"/>
        <pt x="180" y="-4" on="1"/>
        <pt x="54" y="-4" on="0"/>
        <pt x="37" y="110" on="1"/>
        <pt x="35" y="122" on="0"/>
        <pt x="35" y="147" on="0"/>
        <pt x="43" y="177" on="0"/>
        <pt x="62" y="195" on="1"/>
        <pt x="100" y="231" on="0"/>
        <pt x="229" y="239" on="1"/>
        <pt x="261" y="242" on="0"/>
        <pt x="315" y="242" on="0"/>
        <pt x="337" y="240" on="1"/>
        <pt x="337" y="406" on="1"/>
        <pt x="335" y="407" on="0"/>
        <pt x="339" y="424" on="0"/>
        <pt x="328" y="451" on="0"/>
        <pt x="310" y="477" on="0"/>
        <pt x="264" y="496" on="0"/>
        <pt x="190" y="496" on="0"/>
        <pt x="91" y="469" on="0"/>
        <pt x="68" y="456" on="1"/>
        <pt x="64" y="463" on="1"/>
        <pt x="153" y="504" on="0"/>
        <pt x="245" y="504" on="1"/>
        <pt x="348" y="504" on="0"/>
        <pt x="381" y="467" on="1"/>
        <pt x="407" y="438" on="0"/>
        <pt x="407" y="406" on="1"/>
        <pt x="407" y="71" on="1"/>
        <pt x="407" y="42" on="0"/>
        <pt x="430" y="11" on="0"/>
        <pt x="442" y="10" on="1"/>
        <pt x="453" y="8" on="1"/>
        <pt x="484" y="8" on="1"/>
        <pt x="484" y="0" on="1"/>
      </contour>
      <contour>
        <pt x="196" y="4" on="1"/>
        <pt x="249" y="4" on="0"/>
        <pt x="334" y="77" on="0"/>
        <pt x="337" y="111" on="1"/>
        <pt x="337" y="232" on="1"/>
        <pt x="310" y="234" on="0"/>
        <pt x="255" y="234" on="0"/>
        <pt x="228" y="231" on="1"/>
        <pt x="152" y="222" on="0"/>
        <pt x="106" y="172" on="0"/>
        <pt x="106" y="128" on="1"/>
        <pt x="106" y="120" on="0"/>
        <pt x="107" y="110" on="1"/>
        <pt x="116" y="4" on="0"/>
      </contour>
      <contour>
        <pt x="77" y="624" on="0"/>
        <pt x="77" y="660" on="0"/>
        <pt x="101" y="685" on="0"/>
        <pt x="137" y="685" on="0"/>
        <pt x="162" y="660" on="0"/>
        <pt x="162" y="624" on="0"/>
        <pt x="137" y="600" on="0"/>
        <pt x="101" y="600" on="0"/>
      </contour>
      <contour>
        <pt x="295" y="624" on="0"/>
        <pt x="295" y="660" on="0"/>
        <pt x="319" y="685" on="0"/>
        <pt x="355" y="685" on="0"/>
        <pt x="380" y="660" on="0"/>
        <pt x="380" y="624" on="0"/>
        <pt x="355" y="600" on="0"/>
        <pt x="319" y="600" on="0"/>
      </contour>
    </TTGlyph>
    <TTGlyph name="ae" xMin="35" yMin="-4" xMax="716" yMax="504">
      <contour>
        <pt x="355" y="244" on="1"/>
        <pt x="355" y="120" on="0"/>
        <pt x="442" y="4" on="0"/>
        <pt x="513" y="4" on="1"/>
        <pt x="613" y="4" on="0"/>
        <pt x="691" y="34" on="1"/>
        <pt x="694" y="27" on="1"/>
        <pt x="614" y="-4" on="0"/>
        <pt x="513" y="-4" on="1"/>
        <pt x="391" y="-4" on="0"/>
        <pt x="332" y="76" on="1"/>
        <pt x="313" y="43" on="0"/>
        <pt x="239" y="-4" on="0"/>
        <pt x="190" y="-4" on="1"/>
        <pt x="49" y="-4" on="0"/>
        <pt x="37" y="110" on="1"/>
        <pt x="36" y="122" on="0"/>
        <pt x="36" y="146" on="0"/>
        <pt x="42" y="174" on="0"/>
        <pt x="60" y="193" on="1"/>
        <pt x="93" y="229" on="0"/>
        <pt x="229" y="239" on="1"/>
        <pt x="267" y="241" on="0"/>
        <pt x="287" y="241" on="1"/>
        <pt x="287" y="244" on="1"/>
        <pt x="287" y="348" on="0"/>
        <pt x="336" y="416" on="1"/>
        <pt x="334" y="439" on="0"/>
        <pt x="322" y="459" on="1"/>
        <pt x="299" y="496" on="0"/>
        <pt x="243" y="496" on="1"/>
        <pt x="145" y="496" on="0"/>
        <pt x="68" y="456" on="1"/>
        <pt x="64" y="463" on="1"/>
        <pt x="77" y="469" on="0"/>
        <pt x="92" y="476" on="0"/>
        <pt x="115" y="485" on="0"/>
        <pt x="145" y="493" on="0"/>
        <pt x="162" y="496" on="1"/>
        <pt x="198" y="504" on="0"/>
        <pt x="243" y="504" on="1"/>
        <pt x="348" y="504" on="0"/>
        <pt x="385" y="463" on="1"/>
        <pt x="443" y="504" on="0"/>
        <pt x="603" y="504" on="0"/>
        <pt x="715" y="406" on="0"/>
        <pt x="715" y="310" on="1"/>
        <pt x="715" y="305" on="0"/>
        <pt x="715" y="300" on="1"/>
        <pt x="358" y="300" on="1"/>
        <pt x="355" y="273" on="0"/>
      </contour>
      <contour>
        <pt x="646" y="404" on="0"/>
        <pt x="574" y="496" on="0"/>
        <pt x="460" y="496" on="0"/>
        <pt x="371" y="396" on="0"/>
        <pt x="359" y="308" on="1"/>
        <pt x="647" y="308" on="1"/>
      </contour>
      <contour>
        <pt x="191" y="4" on="1"/>
        <pt x="238" y="4" on="0"/>
        <pt x="311" y="52" on="0"/>
        <pt x="328" y="83" on="1"/>
        <pt x="288" y="142" on="0"/>
        <pt x="287" y="234" on="1"/>
        <pt x="162" y="234" on="0"/>
        <pt x="126" y="194" on="1"/>
        <pt x="106" y="172" on="0"/>
        <pt x="106" y="131" on="1"/>
        <pt x="106" y="121" on="0"/>
        <pt x="107" y="110" on="1"/>
        <pt x="119" y="4" on="0"/>
      </contour>
    </TTGlyph>
    <TTGlyph name="agrave" xMin="35" yMin="-4" xMax="484" yMax="710">
      <contour>
        <pt x="453" y="0" on="1"/>
        <pt x="385" y="0" on="0"/>
        <pt x="360" y="26" on="1"/>
        <pt x="337" y="48" on="0"/>
        <pt x="337" y="64" on="1"/>
        <pt x="337" y="85" on="1"/>
        <pt x="288" y="-4" on="0"/>
        <pt x="180" y="-4" on="1"/>
        <pt x="54" y="-4" on="0"/>
        <pt x="37" y="110" on="1"/>
        <pt x="35" y="122" on="0"/>
        <pt x="35" y="147" on="0"/>
        <pt x="43" y="177" on="0"/>
        <pt x="62" y="195" on="1"/>
        <pt x="100" y="231" on="0"/>
        <pt x="229" y="239" on="1"/>
        <pt x="261" y="242" on="0"/>
        <pt x="315" y="242" on="0"/>
        <pt x="337" y="240" on="1"/>
        <pt x="337" y="406" on="1"/>
        <pt x="335" y="407" on="0"/>
        <pt x="339" y="424" on="0"/>
        <pt x="328" y="451" on="0"/>
        <pt x="310" y="477" on="0"/>
        <pt x="264" y="496" on="0"/>
        <pt x="190" y="496" on="0"/>
        <pt x="91" y="469" on="0"/>
        <pt x="68" y="456" on="1"/>
        <pt x="64" y="463" on="1"/>
        <pt x="153" y="504" on="0"/>
        <pt x="245" y="504" on="1"/>
        <pt x="348" y="504" on="0"/>
        <pt x="381" y="467" on="1"/>
        <pt x="407" y="438" on="0"/>
        <pt x="407" y="406" on="1"/>
        <pt x="407" y="71" on="1"/>
        <pt x="407" y="42" on="0"/>
        <pt x="430" y="11" on="0"/>
        <pt x="442" y="10" on="1"/>
        <pt x="453" y="8" on="1"/>
        <pt x="484" y="8" on="1"/>
        <pt x="484" y="0" on="1"/>
      </contour>
      <contour>
        <pt x="196" y="4" on="1"/>
        <pt x="249" y="4" on="0"/>
        <pt x="334" y="77" on="0"/>
        <pt x="337" y="111" on="1"/>
        <pt x="337" y="232" on="1"/>
        <pt x="310" y="234" on="0"/>
        <pt x="255" y="234" on="0"/>
        <pt x="228" y="231" on="1"/>
        <pt x="152" y="222" on="0"/>
        <pt x="106" y="172" on="0"/>
        <pt x="106" y="128" on="1"/>
        <pt x="106" y="120" on="0"/>
        <pt x="107" y="110" on="1"/>
        <pt x="116" y="4" on="0"/>
      </contour>
      <contour>
        <pt x="138" y="710" on="1"/>
        <pt x="210" y="708" on="1"/>
        <pt x="256" y="567" on="1"/>
        <pt x="243" y="567" on="1"/>
      </contour>
    </TTGlyph>
    <TTGlyph name="ampersand" xMin="23" yMin="0" xMax="862" yMax="559">
      <contour>
        <pt x="615" y="392" on="1"/>
        <pt x="615" y="402" on="1"/>
        <pt x="862" y="402" on="1"/>
        <pt x="862" y="392" on="1"/>
        <pt x="807" y="392" on="1"/>
        <pt x="753" y="245" on="0"/>
        <pt x="628" y="128" on="1"/>
        <pt x="567" y="71" on="0"/>
        <pt x="403" y="0" on="0"/>
        <pt x="316" y="0" on="1"/>
        <pt x="233" y="0" on="0"/>
        <pt x="164" y="32" on="1"/>
        <pt x="124" y="50" on="0"/>
        <pt x="63" y="107" on="0"/>
        <pt x="23" y="204" on="0"/>
        <pt x="23" y="267" on="1"/>
        <pt x="23" y="390" on="0"/>
        <pt x="174" y="559" on="0"/>
        <pt x="270" y="559" on="1"/>
        <pt x="444" y="559" on="0"/>
        <pt x="450" y="404" on="1"/>
        <pt x="616" y="535" on="1"/>
        <pt x="623" y="529" on="1"/>
        <pt x="127" y="139" on="1"/>
        <pt x="152" y="79" on="0"/>
        <pt x="245" y="10" on="0"/>
        <pt x="386" y="10" on="0"/>
        <pt x="527" y="81" on="0"/>
        <pt x="579" y="138" on="1"/>
        <pt x="684" y="254" on="0"/>
        <pt x="727" y="392" on="1"/>
      </contour>
      <contour>
        <pt x="370" y="455" on="0"/>
        <pt x="327" y="549" on="0"/>
        <pt x="226" y="549" on="0"/>
        <pt x="157" y="496" on="0"/>
        <pt x="138" y="453" on="1"/>
        <pt x="103" y="370" on="0"/>
        <pt x="103" y="272" on="1"/>
        <pt x="105" y="228" on="1"/>
        <pt x="110" y="183" on="0"/>
        <pt x="123" y="146" on="1"/>
        <pt x="371" y="341" on="1"/>
      </contour>
    </TTGlyph>
    <TTGlyph name="aring" xMin="35" yMin="-4" xMax="484" yMax="750">
      <contour>
        <pt x="188" y="573" on="0"/>
        <pt x="121" y="618" on="0"/>
        <pt x="121" y="700" on="0"/>
        <pt x="190" y="750" on="0"/>
        <pt x="292" y="750" on="0"/>
        <pt x="358" y="705" on="0"/>
        <pt x="358" y="622" on="0"/>
        <pt x="290" y="573" on="0"/>
      </contour>
      <contour>
        <pt x="215" y="742" on="0"/>
        <pt x="181" y="695" on="0"/>
        <pt x="181" y="624" on="0"/>
        <pt x="214" y="581" on="0"/>
        <pt x="263" y="581" on="0"/>
        <pt x="298" y="628" on="0"/>
        <pt x="298" y="699" on="0"/>
        <pt x="264" y="742" on="0"/>
      </contour>
      <contour>
        <pt x="453" y="0" on="1"/>
        <pt x="385" y="0" on="0"/>
        <pt x="360" y="26" on="1"/>
        <pt x="337" y="48" on="0"/>
        <pt x="337" y="64" on="1"/>
        <pt x="337" y="85" on="1"/>
        <pt x="288" y="-4" on="0"/>
        <pt x="180" y="-4" on="1"/>
        <pt x="54" y="-4" on="0"/>
        <pt x="37" y="110" on="1"/>
        <pt x="35" y="122" on="0"/>
        <pt x="35" y="147" on="0"/>
        <pt x="43" y="177" on="0"/>
        <pt x="62" y="195" on="1"/>
        <pt x="100" y="231" on="0"/>
        <pt x="229" y="239" on="1"/>
        <pt x="261" y="242" on="0"/>
        <pt x="315" y="242" on="0"/>
        <pt x="337" y="240" on="1"/>
        <pt x="337" y="406" on="1"/>
        <pt x="335" y="407" on="0"/>
        <pt x="339" y="424" on="0"/>
        <pt x="328" y="451" on="0"/>
        <pt x="310" y="477" on="0"/>
        <pt x="264" y="496" on="0"/>
        <pt x="190" y="496" on="0"/>
        <pt x="91" y="469" on="0"/>
        <pt x="68" y="456" on="1"/>
        <pt x="64" y="463" on="1"/>
        <pt x="153" y="504" on="0"/>
        <pt x="245" y="504" on="1"/>
        <pt x="348" y="504" on="0"/>
        <pt x="381" y="467" on="1"/>
        <pt x="407" y="438" on="0"/>
        <pt x="407" y="406" on="1"/>
        <pt x="407" y="71" on="1"/>
        <pt x="407" y="42" on="0"/>
        <pt x="430" y="11" on="0"/>
        <pt x="442" y="10" on="1"/>
        <pt x="453" y="8" on="1"/>
        <pt x="484" y="8" on="1"/>
        <pt x="484" y="0" on="1"/>
      </contour>
      <contour>
        <pt x="196" y="4" on="1"/>
        <pt x="249" y="4" on="0"/>
        <pt x="334" y="77" on="0"/>
        <pt x="337" y="111" on="1"/>
        <pt x="337" y="232" on="1"/>
        <pt x="310" y="234" on="0"/>
        <pt x="255" y="234" on="0"/>
        <pt x="228" y="231" on="1"/>
        <pt x="152" y="222" on="0"/>
        <pt x="106" y="172" on="0"/>
        <pt x="106" y="128" on="1"/>
        <pt x="106" y="120" on="0"/>
        <pt x="107" y="110" on="1"/>
        <pt x="116" y="4" on="0"/>
      </contour>
    </TTGlyph>
    <TTGlyph name="asciicircum" xMin="146" yMin="295" xMax="411" yMax="450">
      <contour>
        <pt x="411" y="315" on="1"/>
        <pt x="390" y="295" on="1"/>
        <pt x="269" y="425" on="1"/>
        <pt x="153" y="300" on="1"/>
        <pt x="146" y="305" on="1"/>
        <pt x="283" y="450" on="1"/>
      </contour>
    </TTGlyph>
    <TTGlyph name="asciitilde" xMin="144" yMin="300" xMax="474" yMax="353">
      <contour>
        <pt x="144" y="302" on="1"/>
        <pt x="155" y="349" on="0"/>
        <pt x="205" y="349" on="1"/>
        <pt x="245" y="349" on="0"/>
        <pt x="310" y="330" on="1"/>
        <pt x="383" y="314" on="0"/>
        <pt x="438" y="314" on="0"/>
        <pt x="460" y="329" on="0"/>
        <pt x="465" y="353" on="1"/>
        <pt x="474" y="351" on="1"/>
        <pt x="465" y="308" on="0"/>
        <pt x="426" y="304" on="1"/>
        <pt x="419" y="303" on="0"/>
        <pt x="378" y="303" on="0"/>
        <pt x="331" y="318" on="1"/>
        <pt x="316" y="321" on="0"/>
        <pt x="280" y="329" on="1"/>
        <pt x="237" y="339" on="0"/>
        <pt x="182" y="339" on="0"/>
        <pt x="159" y="323" on="0"/>
        <pt x="154" y="300" on="1"/>
      </contour>
    </TTGlyph>
    <TTGlyph name="asterisk" xMin="103" yMin="348" xMax="455" yMax="700">
      <contour>
        <pt x="283" y="348" on="1"/>
        <pt x="275" y="348" on="1"/>
        <pt x="275" y="515" on="1"/>
        <pt x="157" y="397" on="1"/>
        <pt x="152" y="402" on="1"/>
        <pt x="270" y="520" on="1"/>
        <pt x="103" y="520" on="1"/>
        <pt x="103" y="528" on="1"/>
        <pt x="270" y="528" on="1"/>
        <pt x="152" y="646" on="1"/>
        <pt x="157" y="651" on="1"/>
        <pt x="275" y="533" on="1"/>
        <pt x="275" y="700" on="1"/>
        <pt x="283" y="700" on="1"/>
        <pt x="283" y="533" on="1"/>
        <pt x="401" y="651" on="1"/>
        <pt x="406" y="646" on="1"/>
        <pt x="288" y="528" on="1"/>
        <pt x="455" y="528" on="1"/>
        <pt x="455" y="520" on="1"/>
        <pt x="288" y="520" on="1"/>
        <pt x="406" y="402" on="1"/>
        <pt x="401" y="397" on="1"/>
        <pt x="283" y="515" on="1"/>
      </contour>
    </TTGlyph>
    <TTGlyph name="at" xMin="80" yMin="-200" xMax="978" yMax="700">
      <contour>
        <pt x="978" y="250" on="1"/>
        <pt x="978" y="186" on="0"/>
        <pt x="947" y="92" on="0"/>
        <pt x="903" y="40" on="0"/>
        <pt x="837" y="9" on="0"/>
        <pt x="785" y="1" on="0"/>
        <pt x="719" y="0" on="0"/>
        <pt x="670" y="15" on="0"/>
        <pt x="660" y="26" on="1"/>
        <pt x="639" y="46" on="0"/>
        <pt x="639" y="64" on="1"/>
        <pt x="639" y="85" on="1"/>
        <pt x="621" y="50" on="0"/>
        <pt x="545" y="-4" on="0"/>
        <pt x="492" y="-4" on="1"/>
        <pt x="351" y="-4" on="0"/>
        <pt x="339" y="110" on="1"/>
        <pt x="338" y="122" on="0"/>
        <pt x="338" y="146" on="0"/>
        <pt x="344" y="174" on="0"/>
        <pt x="362" y="193" on="1"/>
        <pt x="395" y="229" on="0"/>
        <pt x="531" y="239" on="1"/>
        <pt x="563" y="242" on="0"/>
        <pt x="617" y="242" on="0"/>
        <pt x="639" y="240" on="1"/>
        <pt x="639" y="416" on="1"/>
        <pt x="639" y="422" on="0"/>
        <pt x="629" y="453" on="0"/>
        <pt x="612" y="477" on="0"/>
        <pt x="572" y="496" on="0"/>
        <pt x="545" y="496" on="1"/>
        <pt x="447" y="496" on="0"/>
        <pt x="370" y="456" on="1"/>
        <pt x="366" y="463" on="1"/>
        <pt x="379" y="469" on="0"/>
        <pt x="394" y="476" on="0"/>
        <pt x="417" y="485" on="0"/>
        <pt x="447" y="493" on="0"/>
        <pt x="464" y="496" on="1"/>
        <pt x="500" y="504" on="0"/>
        <pt x="545" y="504" on="1"/>
        <pt x="709" y="504" on="0"/>
        <pt x="709" y="406" on="1"/>
        <pt x="709" y="71" on="1"/>
        <pt x="709" y="30" on="0"/>
        <pt x="730" y="16" on="1"/>
        <pt x="740" y="10" on="0"/>
        <pt x="747" y="10" on="1"/>
        <pt x="754" y="10" on="1"/>
        <pt x="800" y="10" on="0"/>
        <pt x="844" y="56" on="1"/>
        <pt x="868" y="81" on="0"/>
        <pt x="898" y="181" on="0"/>
        <pt x="898" y="250" on="1"/>
        <pt x="898" y="366" on="0"/>
        <pt x="841" y="540" on="0"/>
        <pt x="790" y="591" on="1"/>
        <pt x="688" y="692" on="0"/>
        <pt x="377" y="692" on="0"/>
        <pt x="160" y="433" on="0"/>
        <pt x="160" y="250" on="1"/>
        <pt x="160" y="133" on="0"/>
        <pt x="217" y="-42" on="0"/>
        <pt x="320" y="-143" on="0"/>
        <pt x="450" y="-192" on="0"/>
        <pt x="608" y="-192" on="0"/>
        <pt x="697" y="-153" on="1"/>
        <pt x="703" y="-159" on="1"/>
        <pt x="677" y="-174" on="0"/>
        <pt x="580" y="-200" on="0"/>
        <pt x="529" y="-200" on="1"/>
        <pt x="334" y="-200" on="0"/>
        <pt x="212" y="-100" on="1"/>
        <pt x="149" y="-49" on="0"/>
        <pt x="80" y="129" on="0"/>
        <pt x="80" y="250" on="1"/>
        <pt x="80" y="436" on="0"/>
        <pt x="343" y="700" on="0"/>
        <pt x="529" y="700" on="1"/>
        <pt x="723" y="700" on="0"/>
        <pt x="846" y="596" on="1"/>
        <pt x="909" y="544" on="0"/>
        <pt x="978" y="368" on="0"/>
      </contour>
      <contour>
        <pt x="493" y="4" on="1"/>
        <pt x="551" y="4" on="0"/>
        <pt x="636" y="76" on="0"/>
        <pt x="639" y="111" on="1"/>
        <pt x="639" y="232" on="1"/>
        <pt x="612" y="234" on="0"/>
        <pt x="557" y="234" on="0"/>
        <pt x="530" y="231" on="1"/>
        <pt x="453" y="222" on="0"/>
        <pt x="408" y="172" on="0"/>
        <pt x="408" y="131" on="1"/>
        <pt x="408" y="121" on="0"/>
        <pt x="409" y="110" on="1"/>
        <pt x="421" y="4" on="0"/>
      </contour>
    </TTGlyph>
    <TTGlyph name="atilde" xMin="35" yMin="-4" xMax="484" yMax="660">
      <contour>
        <pt x="453" y="0" on="1"/>
        <pt x="385" y="0" on="0"/>
        <pt x="360" y="26" on="1"/>
        <pt x="337" y="48" on="0"/>
        <pt x="337" y="64" on="1"/>
        <pt x="337" y="85" on="1"/>
        <pt x="288" y="-4" on="0"/>
        <pt x="180" y="-4" on="1"/>
        <pt x="54" y="-4" on="0"/>
        <pt x="37" y="110" on="1"/>
        <pt x="35" y="122" on="0"/>
        <pt x="35" y="147" on="0"/>
        <pt x="43" y="177" on="0"/>
        <pt x="62" y="195" on="1"/>
        <pt x="100" y="231" on="0"/>
        <pt x="229" y="239" on="1"/>
        <pt x="261" y="242" on="0"/>
        <pt x="315" y="242" on="0"/>
        <pt x="337" y="240" on="1"/>
        <pt x="337" y="406" on="1"/>
        <pt x="335" y="407" on="0"/>
        <pt x="339" y="424" on="0"/>
        <pt x="328" y="451" on="0"/>
        <pt x="310" y="477" on="0"/>
        <pt x="264" y="496" on="0"/>
        <pt x="190" y="496" on="0"/>
        <pt x="91" y="469" on="0"/>
        <pt x="68" y="456" on="1"/>
        <pt x="64" y="463" on="1"/>
        <pt x="153" y="504" on="0"/>
        <pt x="245" y="504" on="1"/>
        <pt x="348" y="504" on="0"/>
        <pt x="381" y="467" on="1"/>
        <pt x="407" y="438" on="0"/>
        <pt x="407" y="406" on="1"/>
        <pt x="407" y="71" on="1"/>
        <pt x="407" y="42" on="0"/>
        <pt x="430" y="11" on="0"/>
        <pt x="442" y="10" on="1"/>
        <pt x="453" y="8" on="1"/>
        <pt x="484" y="8" on="1"/>
        <pt x="484" y="0" on="1"/>
      </contour>
      <contour>
        <pt x="196" y="4" on="1"/>
        <pt x="249" y="4" on="0"/>
        <pt x="334" y="77" on="0"/>
        <pt x="337" y="111" on="1"/>
        <pt x="337" y="232" on="1"/>
        <pt x="310" y="234" on="0"/>
        <pt x="255" y="234" on="0"/>
        <pt x="228" y="231" on="1"/>
        <pt x="152" y="222" on="0"/>
        <pt x="106" y="172" on="0"/>
        <pt x="106" y="128" on="1"/>
        <pt x="106" y="120" on="0"/>
        <pt x="107" y="110" on="1"/>
        <pt x="116" y="4" on="0"/>
      </contour>
      <contour>
        <pt x="72" y="582" on="1"/>
        <pt x="64" y="585" on="1"/>
        <pt x="69" y="615" on="0"/>
        <pt x="90" y="639" on="1"/>
        <pt x="97" y="647" on="0"/>
        <pt x="113" y="650" on="1"/>
        <pt x="137" y="654" on="1"/>
        <pt x="154" y="658" on="0"/>
        <pt x="244" y="637" on="0"/>
        <pt x="280" y="629" on="1"/>
        <pt x="319" y="620" on="0"/>
        <pt x="383" y="620" on="0"/>
        <pt x="403" y="637" on="0"/>
        <pt x="409" y="660" on="1"/>
        <pt x="418" y="658" on="1"/>
        <pt x="407" y="604" on="0"/>
        <pt x="377" y="588" on="1"/>
        <pt x="365" y="581" on="0"/>
        <pt x="345" y="581" on="0"/>
        <pt x="335" y="582" on="1"/>
        <pt x="312" y="582" on="0"/>
        <pt x="281" y="592" on="1"/>
        <pt x="194" y="617" on="0"/>
        <pt x="81" y="617" on="0"/>
      </contour>
    </TTGlyph>
    <TTGlyph name="b" xMin="40" yMin="-4" xMax="480" yMax="749">
      <contour>
        <pt x="40" y="749" on="1"/>
        <pt x="110" y="749" on="1"/>
        <pt x="110" y="376" on="1"/>
        <pt x="127" y="422" on="0"/>
        <pt x="219" y="504" on="0"/>
        <pt x="277" y="504" on="1"/>
        <pt x="480" y="504" on="0"/>
        <pt x="480" y="266" on="1"/>
        <pt x="480" y="-4" on="0"/>
        <pt x="218" y="-4" on="1"/>
        <pt x="141" y="-4" on="0"/>
        <pt x="40" y="21" on="1"/>
      </contour>
      <contour>
        <pt x="276" y="496" on="1"/>
        <pt x="214" y="496" on="0"/>
        <pt x="114" y="389" on="0"/>
        <pt x="110" y="346" on="1"/>
        <pt x="110" y="27" on="1"/>
        <pt x="171" y="4" on="0"/>
        <pt x="217" y="4" on="1"/>
        <pt x="410" y="4" on="0"/>
        <pt x="410" y="267" on="1"/>
        <pt x="410" y="496" on="0"/>
      </contour>
    </TTGlyph>
    <TTGlyph name="backslash" xMin="137" yMin="0" xMax="398" yMax="749">
      <contour>
        <pt x="398" y="0" on="1"/>
        <pt x="388" y="0" on="1"/>
        <pt x="137" y="749" on="1"/>
        <pt x="147" y="749" on="1"/>
      </contour>
    </TTGlyph>
    <TTGlyph name="bar" xMin="87" yMin="-164" xMax="167" yMax="750">
      <contour>
        <pt x="87" y="750" on="1"/>
        <pt x="167" y="750" on="1"/>
        <pt x="167" y="-164" on="1"/>
        <pt x="87" y="-164" on="1"/>
      </contour>
    </TTGlyph>
    <TTGlyph name="braceleft" xMin="100" yMin="-234" xMax="300" yMax="750">
      <contour>
        <pt x="152" y="384" on="1"/>
        <pt x="152" y="638" on="1"/>
        <pt x="152" y="710" on="0"/>
        <pt x="216" y="733" on="1"/>
        <pt x="249" y="745" on="0"/>
        <pt x="300" y="750" on="1"/>
        <pt x="300" y="741" on="1"/>
        <pt x="247" y="726" on="0"/>
        <pt x="237" y="688" on="1"/>
        <pt x="232" y="669" on="0"/>
        <pt x="232" y="641" on="1"/>
        <pt x="232" y="387" on="1"/>
        <pt x="232" y="279" on="0"/>
        <pt x="122" y="258" on="1"/>
        <pt x="232" y="235" on="0"/>
        <pt x="232" y="129" on="1"/>
        <pt x="232" y="-125" on="1"/>
        <pt x="232" y="-182" on="0"/>
        <pt x="254" y="-201" on="1"/>
        <pt x="272" y="-217" on="0"/>
        <pt x="300" y="-225" on="1"/>
        <pt x="300" y="-234" on="1"/>
        <pt x="211" y="-224" on="0"/>
        <pt x="182" y="-198" on="1"/>
        <pt x="152" y="-170" on="0"/>
        <pt x="152" y="-122" on="1"/>
        <pt x="152" y="132" on="1"/>
        <pt x="152" y="239" on="0"/>
        <pt x="100" y="254" on="1"/>
        <pt x="100" y="262" on="1"/>
        <pt x="152" y="277" on="0"/>
      </contour>
    </TTGlyph>
    <TTGlyph name="braceright" xMin="100" yMin="-234" xMax="300" yMax="750">
      <contour>
        <pt x="248" y="132" on="1"/>
        <pt x="248" y="-122" on="1"/>
        <pt x="248" y="-194" on="0"/>
        <pt x="184" y="-217" on="1"/>
        <pt x="151" y="-229" on="0"/>
        <pt x="100" y="-234" on="1"/>
        <pt x="100" y="-225" on="1"/>
        <pt x="153" y="-210" on="0"/>
        <pt x="163" y="-172" on="1"/>
        <pt x="168" y="-153" on="0"/>
        <pt x="168" y="-125" on="1"/>
        <pt x="168" y="129" on="1"/>
        <pt x="168" y="235" on="0"/>
        <pt x="278" y="258" on="1"/>
        <pt x="168" y="279" on="0"/>
        <pt x="168" y="387" on="1"/>
        <pt x="168" y="641" on="1"/>
        <pt x="168" y="698" on="0"/>
        <pt x="146" y="717" on="1"/>
        <pt x="128" y="733" on="0"/>
        <pt x="100" y="741" on="1"/>
        <pt x="100" y="750" on="1"/>
        <pt x="189" y="740" on="0"/>
        <pt x="218" y="714" on="1"/>
        <pt x="248" y="686" on="0"/>
        <pt x="248" y="638" on="1"/>
        <pt x="248" y="384" on="1"/>
        <pt x="248" y="277" on="0"/>
        <pt x="300" y="262" on="1"/>
        <pt x="300" y="254" on="1"/>
        <pt x="248" y="239" on="0"/>
      </contour>
    </TTGlyph>
    <TTGlyph name="bracketleft" xMin="87" yMin="-200" xMax="300" yMax="750">
      <contour>
        <pt x="87" y="-200" on="1"/>
        <pt x="87" y="750" on="1"/>
        <pt x="300" y="750" on="1"/>
        <pt x="300" y="742" on="1"/>
        <pt x="167" y="742" on="1"/>
        <pt x="167" y="-192" on="1"/>
        <pt x="300" y="-192" on="1"/>
        <pt x="300" y="-200" on="1"/>
      </contour>
    </TTGlyph>
    <TTGlyph name="bracketright" xMin="137" yMin="-200" xMax="350" yMax="750">
      <contour>
        <pt x="137" y="750" on="1"/>
        <pt x="350" y="750" on="1"/>
        <pt x="350" y="-200" on="1"/>
        <pt x="137" y="-200" on="1"/>
        <pt x="137" y="-192" on="1"/>
        <pt x="270" y="-192" on="1"/>
        <pt x="270" y="742" on="1"/>
        <pt x="137" y="742" on="1"/>
      </contour>
    </TTGlyph>
    <TTGlyph name="brokenbar" xMin="87" yMin="-200" xMax="167" yMax="749">
      <contour>
        <pt x="87" y="200" on="1"/>
        <pt x="167" y="200" on="1"/>
        <pt x="167" y="-200" on="1"/>
        <pt x="87" y="-200" on="1"/>
      </contour>
      <contour>
        <pt x="167" y="400" on="1"/>
        <pt x="87" y="400" on="1"/>
        <pt x="87" y="749" on="1"/>
        <pt x="167" y="749" on="1"/>
      </contour>
    </TTGlyph>
    <TTGlyph name="bullet" xMin="100" yMin="290" xMax="365" yMax="564">
      <contour>
        <pt x="188" y="290" on="0"/>
        <pt x="100" y="379" on="0"/>
        <pt x="100" y="475" on="0"/>
        <pt x="188" y="564" on="0"/>
        <pt x="276" y="564" on="0"/>
        <pt x="365" y="474" on="0"/>
        <pt x="365" y="379" on="0"/>
        <pt x="276" y="290" on="0"/>
      </contour>
    </TTGlyph>
    <TTGlyph name="c" xMin="40" yMin="-4" xMax="451" yMax="504">
      <contour>
        <pt x="274" y="496" on="1"/>
        <pt x="203" y="496" on="0"/>
        <pt x="108" y="360" on="0"/>
        <pt x="108" y="120" on="0"/>
        <pt x="195" y="4" on="0"/>
        <pt x="266" y="4" on="1"/>
        <pt x="355" y="4" on="0"/>
        <pt x="424" y="34" on="1"/>
        <pt x="427" y="27" on="1"/>
        <pt x="356" y="-4" on="0"/>
        <pt x="166" y="-4" on="0"/>
        <pt x="40" y="116" on="0"/>
        <pt x="40" y="366" on="0"/>
        <pt x="172" y="504" on="0"/>
        <pt x="274" y="504" on="1"/>
        <pt x="331" y="504" on="0"/>
        <pt x="428" y="452" on="0"/>
        <pt x="451" y="399" on="1"/>
        <pt x="387" y="399" on="1"/>
        <pt x="372" y="448" on="0"/>
        <pt x="311" y="496" on="0"/>
      </contour>
    </TTGlyph>
    <TTGlyph name="ccedilla" xMin="40" yMin="-190" xMax="451" yMax="504">
      <contour>
        <pt x="274" y="496" on="1"/>
        <pt x="203" y="496" on="0"/>
        <pt x="108" y="360" on="0"/>
        <pt x="108" y="120" on="0"/>
        <pt x="195" y="4" on="0"/>
        <pt x="266" y="4" on="1"/>
        <pt x="355" y="4" on="0"/>
        <pt x="424" y="34" on="1"/>
        <pt x="427" y="27" on="1"/>
        <pt x="356" y="-4" on="0"/>
        <pt x="166" y="-4" on="0"/>
        <pt x="40" y="116" on="0"/>
        <pt x="40" y="366" on="0"/>
        <pt x="172" y="504" on="0"/>
        <pt x="274" y="504" on="1"/>
        <pt x="331" y="504" on="0"/>
        <pt x="428" y="452" on="0"/>
        <pt x="451" y="399" on="1"/>
        <pt x="387" y="399" on="1"/>
        <pt x="372" y="448" on="0"/>
        <pt x="311" y="496" on="0"/>
      </contour>
      <contour>
        <pt x="258" y="0" on="1"/>
        <pt x="328" y="0" on="1"/>
        <pt x="328" y="-126" on="1"/>
        <pt x="328" y="-131" on="0"/>
        <pt x="320" y="-156" on="0"/>
        <pt x="312" y="-166" on="1"/>
        <pt x="291" y="-190" on="0"/>
        <pt x="242" y="-190" on="1"/>
        <pt x="181" y="-190" on="1"/>
        <pt x="181" y="-182" on="1"/>
        <pt x="199" y="-182" on="0"/>
        <pt x="220" y="-182" on="0"/>
        <pt x="236" y="-175" on="0"/>
        <pt x="242" y="-170" on="1"/>
        <pt x="258" y="-155" on="0"/>
        <pt x="258" y="-119" on="1"/>
      </contour>
    </TTGlyph>
    <TTGlyph name="cedilla" xMin="21" yMin="-190" xMax="168" yMax="0">
      <contour>
        <pt x="98" y="0" on="1"/>
        <pt x="168" y="0" on="1"/>
        <pt x="168" y="-126" on="1"/>
        <pt x="168" y="-131" on="0"/>
        <pt x="160" y="-156" on="0"/>
        <pt x="152" y="-166" on="1"/>
        <pt x="131" y="-190" on="0"/>
        <pt x="82" y="-190" on="1"/>
        <pt x="21" y="-190" on="1"/>
        <pt x="21" y="-182" on="1"/>
        <pt x="39" y="-182" on="0"/>
        <pt x="60" y="-182" on="0"/>
        <pt x="76" y="-175" on="0"/>
        <pt x="82" y="-170" on="1"/>
        <pt x="98" y="-155" on="0"/>
        <pt x="98" y="-119" on="1"/>
      </contour>
    </TTGlyph>
    <TTGlyph name="cent" xMin="40" yMin="-82" xMax="451" yMax="576">
      <contour>
        <pt x="270" y="-82" on="1"/>
        <pt x="260" y="-82" on="1"/>
        <pt x="260" y="-4" on="1"/>
        <pt x="162" y="-2" on="0"/>
        <pt x="40" y="118" on="0"/>
        <pt x="40" y="361" on="0"/>
        <pt x="163" y="499" on="0"/>
        <pt x="260" y="504" on="1"/>
        <pt x="260" y="576" on="1"/>
        <pt x="270" y="576" on="1"/>
        <pt x="270" y="504" on="1"/>
        <pt x="274" y="504" on="1"/>
        <pt x="331" y="504" on="0"/>
        <pt x="428" y="452" on="0"/>
        <pt x="451" y="399" on="1"/>
        <pt x="387" y="399" on="1"/>
        <pt x="372" y="448" on="0"/>
        <pt x="311" y="496" on="0"/>
        <pt x="274" y="496" on="1"/>
        <pt x="270" y="496" on="1"/>
        <pt x="270" y="4" on="1"/>
        <pt x="356" y="4" on="0"/>
        <pt x="424" y="34" on="1"/>
        <pt x="427" y="27" on="1"/>
        <pt x="361" y="-2" on="0"/>
        <pt x="270" y="-4" on="1"/>
      </contour>
      <contour>
        <pt x="193" y="488" on="0"/>
        <pt x="108" y="354" on="0"/>
        <pt x="108" y="123" on="0"/>
        <pt x="192" y="6" on="0"/>
        <pt x="260" y="4" on="1"/>
        <pt x="260" y="495" on="1"/>
      </contour>
    </TTGlyph>
    <TTGlyph name="circumflex" xMin="66" yMin="595" xMax="331" yMax="750">
      <contour>
        <pt x="331" y="615" on="1"/>
        <pt x="310" y="595" on="1"/>
        <pt x="189" y="725" on="1"/>
        <pt x="73" y="600" on="1"/>
        <pt x="66" y="605" on="1"/>
        <pt x="203" y="750" on="1"/>
      </contour>
    </TTGlyph>
    <TTGlyph name="colon" xMin="83" yMin="-4" xMax="147" yMax="469">
      <contour>
        <pt x="102" y="-4" on="0"/>
        <pt x="83" y="15" on="0"/>
        <pt x="83" y="42" on="0"/>
        <pt x="102" y="60" on="0"/>
        <pt x="128" y="60" on="0"/>
        <pt x="147" y="41" on="0"/>
        <pt x="147" y="15" on="0"/>
        <pt x="128" y="-4" on="0"/>
      </contour>
      <contour>
        <pt x="83" y="424" on="0"/>
        <pt x="83" y="450" on="0"/>
        <pt x="102" y="469" on="0"/>
        <pt x="128" y="469" on="0"/>
        <pt x="147" y="450" on="0"/>
        <pt x="147" y="424" on="0"/>
        <pt x="128" y="405" on="0"/>
        <pt x="102" y="405" on="0"/>
      </contour>
    </TTGlyph>
    <TTGlyph name="comma" xMin="12" yMin="-100" xMax="70" yMax="83">
      <contour>
        <pt x="38" y="81" on="1"/>
        <pt x="70" y="83" on="1"/>
        <pt x="25" y="-100" on="1"/>
        <pt x="12" y="-100" on="1"/>
      </contour>
    </TTGlyph>
    <TTGlyph name="copyright" xMin="50" yMin="0" xMax="718" yMax="600">
      <contour>
        <pt x="243" y="0" on="0"/>
        <pt x="50" y="154" on="0"/>
        <pt x="50" y="433" on="0"/>
        <pt x="247" y="600" on="0"/>
        <pt x="536" y="600" on="0"/>
        <pt x="718" y="445" on="0"/>
        <pt x="718" y="167" on="0"/>
        <pt x="532" y="0" on="0"/>
      </contour>
      <contour>
        <pt x="283" y="592" on="0"/>
        <pt x="130" y="428" on="0"/>
        <pt x="130" y="165" on="0"/>
        <pt x="281" y="8" on="0"/>
        <pt x="505" y="8" on="0"/>
        <pt x="658" y="172" on="0"/>
        <pt x="658" y="435" on="0"/>
        <pt x="507" y="592" on="0"/>
      </contour>
      <contour>
        <pt x="419" y="100" on="1"/>
        <pt x="220" y="100" on="0"/>
        <pt x="220" y="299" on="1"/>
        <pt x="220" y="406" on="0"/>
        <pt x="334" y="500" on="0"/>
        <pt x="419" y="500" on="1"/>
        <pt x="463" y="500" on="0"/>
        <pt x="494" y="488" on="1"/>
        <pt x="505" y="484" on="1"/>
        <pt x="504" y="479" on="1"/>
        <pt x="465" y="494" on="0"/>
        <pt x="406" y="494" on="0"/>
        <pt x="377" y="491" on="0"/>
        <pt x="329" y="469" on="0"/>
        <pt x="294" y="431" on="0"/>
        <pt x="267" y="352" on="0"/>
        <pt x="267" y="246" on="0"/>
        <pt x="293" y="169" on="0"/>
        <pt x="327" y="131" on="0"/>
        <pt x="351" y="120" on="1"/>
        <pt x="384" y="105" on="0"/>
        <pt x="413" y="105" on="1"/>
        <pt x="467" y="105" on="0"/>
        <pt x="508" y="117" on="1"/>
        <pt x="521" y="121" on="1"/>
        <pt x="522" y="115" on="1"/>
        <pt x="479" y="100" on="0"/>
      </contour>
    </TTGlyph>
    <TTGlyph name="currency" xMin="97" yMin="293" xMax="410" yMax="605">
      <contour>
        <pt x="140" y="341" on="1"/>
        <pt x="101" y="380" on="0"/>
        <pt x="101" y="512" on="0"/>
        <pt x="141" y="554" on="1"/>
        <pt x="97" y="599" on="1"/>
        <pt x="103" y="605" on="1"/>
        <pt x="147" y="560" on="1"/>
        <pt x="190" y="600" on="0"/>
        <pt x="318" y="600" on="0"/>
        <pt x="360" y="561" on="1"/>
        <pt x="404" y="605" on="1"/>
        <pt x="410" y="599" on="1"/>
        <pt x="366" y="555" on="1"/>
        <pt x="401" y="515" on="0"/>
        <pt x="401" y="388" on="0"/>
        <pt x="361" y="346" on="1"/>
        <pt x="409" y="299" on="1"/>
        <pt x="403" y="293" on="1"/>
        <pt x="355" y="340" on="1"/>
        <pt x="312" y="300" on="0"/>
        <pt x="184" y="300" on="0"/>
        <pt x="145" y="335" on="1"/>
        <pt x="104" y="293" on="1"/>
        <pt x="98" y="299" on="1"/>
      </contour>
      <contour>
        <pt x="193" y="592" on="0"/>
        <pt x="111" y="509" on="0"/>
        <pt x="111" y="385" on="0"/>
        <pt x="191" y="308" on="0"/>
        <pt x="309" y="308" on="0"/>
        <pt x="391" y="391" on="0"/>
        <pt x="391" y="515" on="0"/>
        <pt x="311" y="592" on="0"/>
      </contour>
    </TTGlyph>
    <TTGlyph name="d" xMin="40" yMin="-2" xMax="558" yMax="749">
      <contour>
        <pt x="40" y="232" on="1"/>
        <pt x="40" y="362" on="0"/>
        <pt x="166" y="504" on="0"/>
        <pt x="292" y="504" on="1"/>
        <pt x="351" y="504" on="0"/>
        <pt x="411" y="474" on="1"/>
        <pt x="411" y="749" on="1"/>
        <pt x="481" y="749" on="1"/>
        <pt x="481" y="71" on="1"/>
        <pt x="481" y="42" on="0"/>
        <pt x="504" y="11" on="0"/>
        <pt x="516" y="10" on="1"/>
        <pt x="527" y="8" on="1"/>
        <pt x="558" y="8" on="1"/>
        <pt x="558" y="0" on="1"/>
        <pt x="497" y="0" on="1"/>
        <pt x="456" y="0" on="0"/>
        <pt x="413" y="36" on="0"/>
        <pt x="412" y="54" on="1"/>
        <pt x="411" y="71" on="1"/>
        <pt x="411" y="87" on="1"/>
        <pt x="392" y="52" on="0"/>
        <pt x="304" y="-2" on="0"/>
        <pt x="244" y="-2" on="1"/>
        <pt x="40" y="3" on="0"/>
      </contour>
      <contour>
        <pt x="245" y="6" on="1"/>
        <pt x="312" y="6" on="0"/>
        <pt x="408" y="78" on="0"/>
        <pt x="411" y="113" on="1"/>
        <pt x="411" y="465" on="1"/>
        <pt x="340" y="496" on="0"/>
        <pt x="289" y="496" on="1"/>
        <pt x="200" y="496" on="0"/>
        <pt x="110" y="357" on="0"/>
        <pt x="110" y="232" on="1"/>
        <pt x="110" y="6" on="0"/>
      </contour>
    </TTGlyph>
    <TTGlyph name="degree" xMin="70" yMin="523" xMax="307" yMax="700">
      <contour>
        <pt x="137" y="523" on="0"/>
        <pt x="70" y="568" on="0"/>
        <pt x="70" y="650" on="0"/>
        <pt x="139" y="700" on="0"/>
        <pt x="241" y="700" on="0"/>
        <pt x="307" y="655" on="0"/>
        <pt x="307" y="572" on="0"/>
        <pt x="239" y="523" on="0"/>
      </contour>
      <contour>
        <pt x="164" y="692" on="0"/>
        <pt x="130" y="645" on="0"/>
        <pt x="130" y="574" on="0"/>
        <pt x="163" y="531" on="0"/>
        <pt x="212" y="531" on="0"/>
        <pt x="247" y="578" on="0"/>
        <pt x="247" y="649" on="0"/>
        <pt x="213" y="692" on="0"/>
      </contour>
    </TTGlyph>
    <TTGlyph name="dieresis" xMin="111" yMin="600" xMax="414" yMax="685">
      <contour>
        <pt x="111" y="624" on="0"/>
        <pt x="111" y="660" on="0"/>
        <pt x="135" y="685" on="0"/>
        <pt x="171" y="685" on="0"/>
        <pt x="196" y="660" on="0"/>
        <pt x="196" y="624" on="0"/>
        <pt x="171" y="600" on="0"/>
        <pt x="135" y="600" on="0"/>
      </contour>
      <contour>
        <pt x="329" y="624" on="0"/>
        <pt x="329" y="660" on="0"/>
        <pt x="353" y="685" on="0"/>
        <pt x="389" y="685" on="0"/>
        <pt x="414" y="660" on="0"/>
        <pt x="414" y="624" on="0"/>
        <pt x="389" y="600" on="0"/>
        <pt x="353" y="600" on="0"/>
      </contour>
    </TTGlyph>
    <TTGlyph name="divide" xMin="146" yMin="63" xMax="600" yMax="451">
      <contour>
        <pt x="146" y="265" on="1"/>
        <pt x="600" y="265" on="1"/>
        <pt x="600" y="257" on="1"/>
        <pt x="146" y="257" on="1"/>
      </contour>
      <contour>
        <pt x="334" y="390" on="0"/>
        <pt x="334" y="426" on="0"/>
        <pt x="358" y="451" on="0"/>
        <pt x="394" y="451" on="0"/>
        <pt x="419" y="426" on="0"/>
        <pt x="419" y="390" on="0"/>
        <pt x="394" y="366" on="0"/>
        <pt x="358" y="366" on="0"/>
      </contour>
      <contour>
        <pt x="334" y="87" on="0"/>
        <pt x="334" y="123" on="0"/>
        <pt x="358" y="148" on="0"/>
        <pt x="394" y="148" on="0"/>
        <pt x="419" y="123" on="0"/>
        <pt x="419" y="87" on="0"/>
        <pt x="394" y="63" on="0"/>
        <pt x="358" y="63" on="0"/>
      </contour>
    </TTGlyph>
    <TTGlyph name="dollar" xMin="75" yMin="-59" xMax="520" yMax="699">
      <contour>
        <pt x="308" y="-59" on="1"/>
        <pt x="298" y="-59" on="1"/>
        <pt x="298" y="-1" on="1"/>
        <pt x="285" y="-1" on="1"/>
        <pt x="162" y="-1" on="0"/>
        <pt x="75" y="60" on="1"/>
        <pt x="80" y="68" on="1"/>
        <pt x="113" y="43" on="0"/>
        <pt x="218" y="9" on="0"/>
        <pt x="288" y="9" on="0"/>
        <pt x="298" y="10" on="1"/>
        <pt x="298" y="261" on="1"/>
        <pt x="264" y="272" on="0"/>
        <pt x="243" y="280" on="0"/>
        <pt x="182" y="303" on="0"/>
        <pt x="159" y="319" on="0"/>
        <pt x="117" y="349" on="0"/>
        <pt x="109" y="364" on="1"/>
        <pt x="86" y="405" on="0"/>
        <pt x="86" y="444" on="1"/>
        <pt x="86" y="510" on="0"/>
        <pt x="184" y="602" on="0"/>
        <pt x="281" y="602" on="1"/>
        <pt x="298" y="602" on="1"/>
        <pt x="298" y="699" on="1"/>
        <pt x="308" y="699" on="1"/>
        <pt x="308" y="601" on="1"/>
        <pt x="395" y="597" on="0"/>
        <pt x="483" y="568" on="1"/>
        <pt x="479" y="558" on="1"/>
        <pt x="397" y="589" on="0"/>
        <pt x="308" y="593" on="1"/>
        <pt x="308" y="329" on="1"/>
        <pt x="350" y="315" on="0"/>
        <pt x="391" y="300" on="0"/>
        <pt x="459" y="265" on="0"/>
        <pt x="476" y="248" on="1"/>
        <pt x="520" y="202" on="0"/>
        <pt x="520" y="69" on="0"/>
        <pt x="401" y="3" on="0"/>
        <pt x="308" y="0" on="1"/>
      </contour>
      <contour>
        <pt x="187" y="380" on="1"/>
        <pt x="226" y="356" on="0"/>
        <pt x="298" y="332" on="1"/>
        <pt x="298" y="593" on="1"/>
        <pt x="226" y="591" on="0"/>
        <pt x="137" y="525" on="0"/>
        <pt x="137" y="411" on="0"/>
      </contour>
      <contour>
        <pt x="379" y="15" on="0"/>
        <pt x="469" y="63" on="0"/>
        <pt x="469" y="167" on="0"/>
        <pt x="386" y="230" on="0"/>
        <pt x="308" y="257" on="1"/>
        <pt x="308" y="10" on="1"/>
      </contour>
    </TTGlyph>
    <TTGlyph name="dotlessi" xMin="96" yMin="0" xMax="243" yMax="500">
      <contour>
        <pt x="182" y="0" on="1"/>
        <pt x="141" y="0" on="0"/>
        <pt x="98" y="36" on="0"/>
        <pt x="97" y="54" on="1"/>
        <pt x="96" y="71" on="1"/>
        <pt x="96" y="500" on="1"/>
        <pt x="166" y="500" on="1"/>
        <pt x="166" y="71" on="1"/>
        <pt x="166" y="42" on="0"/>
        <pt x="189" y="11" on="0"/>
        <pt x="200" y="10" on="1"/>
        <pt x="212" y="8" on="1"/>
        <pt x="243" y="8" on="1"/>
        <pt x="243" y="0" on="1"/>
      </contour>
    </TTGlyph>
    <TTGlyph name="e" xMin="40" yMin="-4" xMax="469" yMax="504">
      <contour>
        <pt x="108" y="244" on="1"/>
        <pt x="108" y="120" on="0"/>
        <pt x="195" y="4" on="0"/>
        <pt x="266" y="4" on="1"/>
        <pt x="366" y="4" on="0"/>
        <pt x="444" y="34" on="1"/>
        <pt x="447" y="27" on="1"/>
        <pt x="367" y="-4" on="0"/>
        <pt x="166" y="-4" on="0"/>
        <pt x="40" y="116" on="0"/>
        <pt x="40" y="366" on="0"/>
        <pt x="172" y="504" on="0"/>
        <pt x="274" y="504" on="1"/>
        <pt x="356" y="504" on="0"/>
        <pt x="468" y="406" on="0"/>
        <pt x="468" y="310" on="1"/>
        <pt x="468" y="305" on="0"/>
        <pt x="468" y="300" on="1"/>
        <pt x="111" y="300" on="1"/>
        <pt x="108" y="273" on="0"/>
      </contour>
      <contour>
        <pt x="399" y="404" on="0"/>
        <pt x="327" y="496" on="0"/>
        <pt x="213" y="496" on="0"/>
        <pt x="124" y="396" on="0"/>
        <pt x="112" y="308" on="1"/>
        <pt x="400" y="308" on="1"/>
      </contour>
    </TTGlyph>
    <TTGlyph name="eacute" xMin="40" yMin="-4" xMax="469" yMax="710">
      <contour>
        <pt x="108" y="244" on="1"/>
        <pt x="108" y="120" on="0"/>
        <pt x="195" y="4" on="0"/>
        <pt x="266" y="4" on="1"/>
        <pt x="366" y="4" on="0"/>
        <pt x="444" y="34" on="1"/>
        <pt x="447" y="27" on="1"/>
        <pt x="367" y="-4" on="0"/>
        <pt x="166" y="-4" on="0"/>
        <pt x="40" y="116" on="0"/>
        <pt x="40" y="366" on="0"/>
        <pt x="172" y="504" on="0"/>
        <pt x="274" y="504" on="1"/>
        <pt x="356" y="504" on="0"/>
        <pt x="468" y="406" on="0"/>
        <pt x="468" y="310" on="1"/>
        <pt x="468" y="305" on="0"/>
        <pt x="468" y="300" on="1"/>
        <pt x="111" y="300" on="1"/>
        <pt x="108" y="273" on="0"/>
      </contour>
      <contour>
        <pt x="399" y="404" on="0"/>
        <pt x="327" y="496" on="0"/>
        <pt x="213" y="496" on="0"/>
        <pt x="124" y="396" on="0"/>
        <pt x="112" y="308" on="1"/>
        <pt x="400" y="308" on="1"/>
      </contour>
      <contour>
        <pt x="308" y="708" on="1"/>
        <pt x="380" y="710" on="1"/>
        <pt x="275" y="567" on="1"/>
        <pt x="262" y="567" on="1"/>
      </contour>
    </TTGlyph>
    <TTGlyph name="ecircumflex" xMin="40" yMin="-4" xMax="469" yMax="750">
      <contour>
        <pt x="108" y="244" on="1"/>
        <pt x="108" y="120" on="0"/>
        <pt x="195" y="4" on="0"/>
        <pt x="266" y="4" on="1"/>
        <pt x="366" y="4" on="0"/>
        <pt x="444" y="34" on="1"/>
        <pt x="447" y="27" on="1"/>
        <pt x="367" y="-4" on="0"/>
        <pt x="166" y="-4" on="0"/>
        <pt x="40" y="116" on="0"/>
        <pt x="40" y="366" on="0"/>
        <pt x="172" y="504" on="0"/>
        <pt x="274" y="504" on="1"/>
        <pt x="356" y="504" on="0"/>
        <pt x="468" y="406" on="0"/>
        <pt x="468" y="310" on="1"/>
        <pt x="468" y="305" on="0"/>
        <pt x="468" y="300" on="1"/>
        <pt x="111" y="300" on="1"/>
        <pt x="108" y="273" on="0"/>
      </contour>
      <contour>
        <pt x="399" y="404" on="0"/>
        <pt x="327" y="496" on="0"/>
        <pt x="213" y="496" on="0"/>
        <pt x="124" y="396" on="0"/>
        <pt x="112" y="308" on="1"/>
        <pt x="400" y="308" on="1"/>
      </contour>
      <contour>
        <pt x="401" y="615" on="1"/>
        <pt x="380" y="595" on="1"/>
        <pt x="259" y="725" on="1"/>
        <pt x="143" y="600" on="1"/>
        <pt x="136" y="605" on="1"/>
        <pt x="273" y="750" on="1"/>
      </contour>
    </TTGlyph>
    <TTGlyph name="edieresis" xMin="40" yMin="-4" xMax="469" yMax="685">
      <contour>
        <pt x="108" y="244" on="1"/>
        <pt x="108" y="120" on="0"/>
        <pt x="195" y="4" on="0"/>
        <pt x="266" y="4" on="1"/>
        <pt x="366" y="4" on="0"/>
        <pt x="444" y="34" on="1"/>
        <pt x="447" y="27" on="1"/>
        <pt x="367" y="-4" on="0"/>
        <pt x="166" y="-4" on="0"/>
        <pt x="40" y="116" on="0"/>
        <pt x="40" y="366" on="0"/>
        <pt x="172" y="504" on="0"/>
        <pt x="274" y="504" on="1"/>
        <pt x="356" y="504" on="0"/>
        <pt x="468" y="406" on="0"/>
        <pt x="468" y="310" on="1"/>
        <pt x="468" y="305" on="0"/>
        <pt x="468" y="300" on="1"/>
        <pt x="111" y="300" on="1"/>
        <pt x="108" y="273" on="0"/>
      </contour>
      <contour>
        <pt x="399" y="404" on="0"/>
        <pt x="327" y="496" on="0"/>
        <pt x="213" y="496" on="0"/>
        <pt x="124" y="396" on="0"/>
        <pt x="112" y="308" on="1"/>
        <pt x="400" y="308" on="1"/>
      </contour>
      <contour>
        <pt x="121" y="624" on="0"/>
        <pt x="121" y="660" on="0"/>
        <pt x="145" y="685" on="0"/>
        <pt x="181" y="685" on="0"/>
        <pt x="206" y="660" on="0"/>
        <pt x="206" y="624" on="0"/>
        <pt x="181" y="600" on="0"/>
        <pt x="145" y="600" on="0"/>
      </contour>
      <contour>
        <pt x="339" y="624" on="0"/>
        <pt x="339" y="660" on="0"/>
        <pt x="363" y="685" on="0"/>
        <pt x="399" y="685" on="0"/>
        <pt x="424" y="660" on="0"/>
        <pt x="424" y="624" on="0"/>
        <pt x="399" y="600" on="0"/>
        <pt x="363" y="600" on="0"/>
      </contour>
    </TTGlyph>
    <TTGlyph name="egrave" xMin="40" yMin="-4" xMax="469" yMax="710">
      <contour>
        <pt x="108" y="244" on="1"/>
        <pt x="108" y="120" on="0"/>
        <pt x="195" y="4" on="0"/>
        <pt x="266" y="4" on="1"/>
        <pt x="366" y="4" on="0"/>
        <pt x="444" y="34" on="1"/>
        <pt x="447" y="27" on="1"/>
        <pt x="367" y="-4" on="0"/>
        <pt x="166" y="-4" on="0"/>
        <pt x="40" y="116" on="0"/>
        <pt x="40" y="366" on="0"/>
        <pt x="172" y="504" on="0"/>
        <pt x="274" y="504" on="1"/>
        <pt x="356" y="504" on="0"/>
        <pt x="468" y="406" on="0"/>
        <pt x="468" y="310" on="1"/>
        <pt x="468" y="305" on="0"/>
        <pt x="468" y="300" on="1"/>
        <pt x="111" y="300" on="1"/>
        <pt x="108" y="273" on="0"/>
      </contour>
      <contour>
        <pt x="399" y="404" on="0"/>
        <pt x="327" y="496" on="0"/>
        <pt x="213" y="496" on="0"/>
        <pt x="124" y="396" on="0"/>
        <pt x="112" y="308" on="1"/>
        <pt x="400" y="308" on="1"/>
      </contour>
      <contour>
        <pt x="152" y="710" on="1"/>
        <pt x="224" y="708" on="1"/>
        <pt x="270" y="567" on="1"/>
        <pt x="257" y="567" on="1"/>
      </contour>
    </TTGlyph>
    <TTGlyph name="eight" xMin="59" yMin="-4" xMax="483" yMax="600">
      <contour>
        <pt x="471" y="481" on="1"/>
        <pt x="471" y="373" on="0"/>
        <pt x="350" y="309" on="1"/>
        <pt x="416" y="295" on="0"/>
        <pt x="482" y="237" on="0"/>
        <pt x="483" y="179" on="1"/>
        <pt x="483" y="147" on="0"/>
        <pt x="450" y="76" on="0"/>
        <pt x="405" y="30" on="0"/>
        <pt x="314" y="-4" on="0"/>
        <pt x="197" y="-4" on="0"/>
        <pt x="118" y="26" on="0"/>
        <pt x="80" y="65" on="0"/>
        <pt x="61" y="122" on="0"/>
        <pt x="60" y="149" on="0"/>
        <pt x="60" y="168" on="0"/>
        <pt x="60" y="179" on="1"/>
        <pt x="67" y="278" on="0"/>
        <pt x="216" y="345" on="1"/>
        <pt x="109" y="375" on="0"/>
        <pt x="109" y="464" on="1"/>
        <pt x="109" y="529" on="0"/>
        <pt x="220" y="600" on="0"/>
        <pt x="367" y="600" on="0"/>
        <pt x="471" y="541" on="0"/>
      </contour>
      <contour>
        <pt x="224" y="341" on="1"/>
        <pt x="139" y="270" on="0"/>
        <pt x="139" y="164" on="1"/>
        <pt x="139" y="122" on="0"/>
        <pt x="159" y="56" on="0"/>
        <pt x="186" y="23" on="0"/>
        <pt x="228" y="5" on="0"/>
        <pt x="243" y="4" on="0"/>
        <pt x="284" y="4" on="0"/>
        <pt x="333" y="23" on="0"/>
        <pt x="364" y="54" on="0"/>
        <pt x="387" y="91" on="0"/>
        <pt x="392" y="110" on="1"/>
        <pt x="404" y="157" on="0"/>
        <pt x="404" y="220" on="0"/>
        <pt x="386" y="269" on="0"/>
        <pt x="341" y="301" on="0"/>
        <pt x="303" y="317" on="0"/>
        <pt x="237" y="336" on="0"/>
      </contour>
      <contour>
        <pt x="342" y="312" on="1"/>
        <pt x="392" y="380" on="0"/>
        <pt x="392" y="483" on="1"/>
        <pt x="392" y="525" on="0"/>
        <pt x="348" y="592" on="0"/>
        <pt x="287" y="592" on="1"/>
        <pt x="242" y="592" on="0"/>
        <pt x="217" y="557" on="1"/>
        <pt x="189" y="517" on="0"/>
        <pt x="189" y="455" on="1"/>
        <pt x="189" y="385" on="0"/>
        <pt x="220" y="362" on="1"/>
        <pt x="238" y="348" on="0"/>
        <pt x="273" y="335" on="0"/>
        <pt x="326" y="320" on="0"/>
      </contour>
    </TTGlyph>
    <TTGlyph name="ellipsis" xMin="28" yMin="-4" xMax="312" yMax="60">
      <contour>
        <pt x="47" y="-4" on="0"/>
        <pt x="28" y="15" on="0"/>
        <pt x="28" y="42" on="0"/>
        <pt x="46" y="60" on="0"/>
        <pt x="73" y="60" on="0"/>
        <pt x="92" y="41" on="0"/>
        <pt x="92" y="15" on="0"/>
        <pt x="73" y="-4" on="0"/>
      </contour>
      <contour>
        <pt x="157" y="-4" on="0"/>
        <pt x="138" y="15" on="0"/>
        <pt x="138" y="42" on="0"/>
        <pt x="156" y="60" on="0"/>
        <pt x="183" y="60" on="0"/>
        <pt x="202" y="41" on="0"/>
        <pt x="202" y="15" on="0"/>
        <pt x="183" y="-4" on="0"/>
      </contour>
      <contour>
        <pt x="267" y="-4" on="0"/>
        <pt x="248" y="15" on="0"/>
        <pt x="248" y="42" on="0"/>
        <pt x="266" y="60" on="0"/>
        <pt x="293" y="60" on="0"/>
        <pt x="312" y="41" on="0"/>
        <pt x="312" y="15" on="0"/>
        <pt x="293" y="-4" on="0"/>
      </contour>
    </TTGlyph>
    <TTGlyph name="emdash" xMin="80" yMin="257" xMax="634" yMax="265">
      <contour>
        <pt x="80" y="265" on="1"/>
        <pt x="634" y="265" on="1"/>
        <pt x="634" y="257" on="1"/>
        <pt x="80" y="257" on="1"/>
      </contour>
    </TTGlyph>
    <TTGlyph name="endash" xMin="80" yMin="257" xMax="534" yMax="265">
      <contour>
        <pt x="80" y="265" on="1"/>
        <pt x="534" y="265" on="1"/>
        <pt x="534" y="257" on="1"/>
        <pt x="80" y="257" on="1"/>
      </contour>
    </TTGlyph>
    <TTGlyph name="equal" xMin="146" yMin="128" xMax="600" yMax="358">
      <contour>
        <pt x="146" y="358" on="1"/>
        <pt x="600" y="358" on="1"/>
        <pt x="600" y="350" on="1"/>
        <pt x="146" y="350" on="1"/>
      </contour>
      <contour>
        <pt x="146" y="136" on="1"/>
        <pt x="600" y="136" on="1"/>
        <pt x="600" y="128" on="1"/>
        <pt x="146" y="128" on="1"/>
      </contour>
    </TTGlyph>
    <TTGlyph name="eth" xMin="38" yMin="-4" xMax="518" yMax="751">
      <contour>
        <pt x="518" y="256" on="1"/>
        <pt x="518" y="134" on="0"/>
        <pt x="381" y="-4" on="0"/>
        <pt x="170" y="-4" on="0"/>
        <pt x="38" y="116" on="0"/>
        <pt x="38" y="366" on="0"/>
        <pt x="175" y="504" on="0"/>
        <pt x="377" y="504" on="0"/>
        <pt x="425" y="425" on="1"/>
        <pt x="357" y="567" on="0"/>
        <pt x="246" y="672" on="1"/>
        <pt x="141" y="618" on="1"/>
        <pt x="136" y="624" on="1"/>
        <pt x="240" y="677" on="1"/>
        <pt x="204" y="710" on="0"/>
        <pt x="160" y="742" on="1"/>
        <pt x="163" y="751" on="1"/>
        <pt x="220" y="723" on="0"/>
        <pt x="265" y="690" on="1"/>
        <pt x="375" y="747" on="1"/>
        <pt x="379" y="740" on="1"/>
        <pt x="272" y="685" on="1"/>
        <pt x="392" y="597" on="0"/>
        <pt x="518" y="357" on="0"/>
      </contour>
      <contour>
        <pt x="211" y="496" on="0"/>
        <pt x="116" y="360" on="0"/>
        <pt x="116" y="120" on="0"/>
        <pt x="203" y="4" on="0"/>
        <pt x="345" y="4" on="0"/>
        <pt x="440" y="140" on="0"/>
        <pt x="440" y="357" on="0"/>
        <pt x="363" y="496" on="0"/>
      </contour>
    </TTGlyph>
    <TTGlyph name="exclam" xMin="101" yMin="40" xMax="186" yMax="750">
      <contour>
        <pt x="107" y="750" on="1"/>
        <pt x="177" y="750" on="1"/>
        <pt x="157" y="225" on="1"/>
        <pt x="127" y="225" on="1"/>
      </contour>
      <contour>
        <pt x="101" y="65" on="0"/>
        <pt x="101" y="101" on="0"/>
        <pt x="125" y="125" on="0"/>
        <pt x="161" y="125" on="0"/>
        <pt x="186" y="101" on="0"/>
        <pt x="186" y="65" on="0"/>
        <pt x="161" y="40" on="0"/>
        <pt x="125" y="40" on="0"/>
      </contour>
    </TTGlyph>
    <TTGlyph name="exclamdown" xMin="101" yMin="-210" xMax="186" yMax="500">
      <contour>
        <pt x="177" y="-210" on="1"/>
        <pt x="107" y="-210" on="1"/>
        <pt x="127" y="315" on="1"/>
        <pt x="157" y="315" on="1"/>
      </contour>
      <contour>
        <pt x="101" y="439" on="0"/>
        <pt x="101" y="475" on="0"/>
        <pt x="125" y="500" on="0"/>
        <pt x="161" y="500" on="0"/>
        <pt x="186" y="475" on="0"/>
        <pt x="186" y="439" on="0"/>
        <pt x="161" y="415" on="0"/>
        <pt x="125" y="415" on="0"/>
      </contour>
    </TTGlyph>
    <TTGlyph name="f" xMin="35" yMin="0" xMax="255" yMax="750">
      <contour>
        <pt x="126" y="547" on="1"/>
        <pt x="126" y="500" on="1"/>
        <pt x="205" y="500" on="1"/>
        <pt x="205" y="492" on="1"/>
        <pt x="126" y="492" on="1"/>
        <pt x="126" y="0" on="1"/>
        <pt x="56" y="0" on="1"/>
        <pt x="56" y="492" on="1"/>
        <pt x="35" y="492" on="1"/>
        <pt x="35" y="500" on="1"/>
        <pt x="56" y="500" on="1"/>
        <pt x="56" y="547" on="1"/>
        <pt x="56" y="656" on="0"/>
        <pt x="150" y="749" on="0"/>
        <pt x="255" y="750" on="1"/>
        <pt x="255" y="742" on="1"/>
        <pt x="186" y="741" on="0"/>
        <pt x="126" y="650" on="0"/>
      </contour>
    </TTGlyph>
    <TTGlyph name="five" xMin="21" yMin="-100" xMax="298" yMax="500">
      <contour>
        <pt x="218" y="173" on="1"/>
        <pt x="218" y="322" on="0"/>
        <pt x="72" y="322" on="1"/>
        <pt x="90" y="500" on="1"/>
        <pt x="266" y="500" on="1"/>
        <pt x="266" y="422" on="1"/>
        <pt x="92" y="422" on="1"/>
        <pt x="82" y="330" on="1"/>
        <pt x="298" y="325" on="0"/>
        <pt x="298" y="177" on="1"/>
        <pt x="298" y="126" on="0"/>
        <pt x="244" y="33" on="0"/>
        <pt x="200" y="-2" on="1"/>
        <pt x="117" y="-67" on="0"/>
        <pt x="21" y="-100" on="1"/>
        <pt x="21" y="-91" on="1"/>
        <pt x="32" y="-85" on="1"/>
        <pt x="127" y="-33" on="0"/>
        <pt x="179" y="44" on="1"/>
        <pt x="218" y="103" on="0"/>
      </contour>
    </TTGlyph>
    <TTGlyph name="four" xMin="30" yMin="-100" xMax="395" yMax="500">
      <contour>
        <pt x="395" y="8" on="1"/>
        <pt x="395" y="0" on="1"/>
        <pt x="347" y="0" on="1"/>
        <pt x="335" y="-100" on="1"/>
        <pt x="256" y="-100" on="1"/>
        <pt x="267" y="0" on="1"/>
        <pt x="30" y="0" on="1"/>
        <pt x="388" y="500" on="1"/>
        <pt x="395" y="496" on="1"/>
        <pt x="247" y="290" on="0"/>
        <pt x="46" y="8" on="1"/>
        <pt x="268" y="8" on="1"/>
        <pt x="301" y="284" on="1"/>
        <pt x="381" y="284" on="1"/>
        <pt x="348" y="8" on="1"/>
      </contour>
    </TTGlyph>
    <TTGlyph name="fraction" xMin="-81" yMin="0" xMax="180" yMax="749">
      <contour>
        <pt x="-71" y="0" on="1"/>
        <pt x="-81" y="0" on="1"/>
        <pt x="170" y="749" on="1"/>
        <pt x="180" y="749" on="1"/>
      </contour>
    </TTGlyph>
    <TTGlyph name="g" xMin="35" yMin="-250" xMax="476" yMax="504">
      <contour>
        <pt x="35" y="232" on="1"/>
        <pt x="35" y="362" on="0"/>
        <pt x="161" y="504" on="0"/>
        <pt x="287" y="504" on="1"/>
        <pt x="380" y="504" on="0"/>
        <pt x="476" y="471" on="1"/>
        <pt x="476" y="-12" on="1"/>
        <pt x="475" y="-250" on="0"/>
        <pt x="268" y="-250" on="1"/>
        <pt x="154" y="-250" on="0"/>
        <pt x="73" y="-176" on="1"/>
        <pt x="80" y="-170" on="1"/>
        <pt x="166" y="-242" on="0"/>
        <pt x="268" y="-242" on="1"/>
        <pt x="406" y="-242" on="0"/>
        <pt x="406" y="-12" on="1"/>
        <pt x="406" y="87" on="1"/>
        <pt x="387" y="52" on="0"/>
        <pt x="299" y="-2" on="0"/>
        <pt x="239" y="-2" on="1"/>
        <pt x="35" y="3" on="0"/>
      </contour>
      <contour>
        <pt x="240" y="6" on="1"/>
        <pt x="307" y="6" on="0"/>
        <pt x="403" y="78" on="0"/>
        <pt x="406" y="113" on="1"/>
        <pt x="406" y="466" on="1"/>
        <pt x="334" y="496" on="0"/>
        <pt x="284" y="496" on="1"/>
        <pt x="195" y="496" on="0"/>
        <pt x="105" y="357" on="0"/>
        <pt x="105" y="232" on="1"/>
        <pt x="105" y="6" on="0"/>
      </contour>
    </TTGlyph>
    <TTGlyph name="germandbls" xMin="30" yMin="-4" xMax="553" yMax="754">
      <contour>
        <pt x="296" y="368" on="1"/>
        <pt x="296" y="622" on="1"/>
        <pt x="296" y="747" on="0"/>
        <pt x="223" y="747" on="1"/>
        <pt x="198" y="747" on="0"/>
        <pt x="161" y="689" on="0"/>
        <pt x="161" y="621" on="1"/>
        <pt x="161" y="0" on="1"/>
        <pt x="81" y="0" on="1"/>
        <pt x="81" y="492" on="1"/>
        <pt x="30" y="492" on="1"/>
        <pt x="30" y="500" on="1"/>
        <pt x="81" y="500" on="1"/>
        <pt x="81" y="618" on="1"/>
        <pt x="81" y="701" on="0"/>
        <pt x="130" y="730" on="1"/>
        <pt x="172" y="754" on="0"/>
        <pt x="290" y="754" on="0"/>
        <pt x="375" y="687" on="0"/>
        <pt x="375" y="621" on="1"/>
        <pt x="375" y="505" on="0"/>
        <pt x="374" y="405" on="1"/>
        <pt x="374" y="346" on="0"/>
        <pt x="420" y="315" on="1"/>
        <pt x="476" y="278" on="0"/>
        <pt x="501" y="257" on="1"/>
        <pt x="553" y="215" on="0"/>
        <pt x="553" y="61" on="0"/>
        <pt x="453" y="-4" on="0"/>
        <pt x="380" y="-4" on="1"/>
        <pt x="351" y="-4" on="0"/>
        <pt x="264" y="16" on="0"/>
        <pt x="236" y="41" on="1"/>
        <pt x="242" y="47" on="1"/>
        <pt x="262" y="28" on="0"/>
        <pt x="342" y="4" on="0"/>
        <pt x="423" y="4" on="0"/>
        <pt x="484" y="66" on="0"/>
        <pt x="484" y="137" on="1"/>
        <pt x="484" y="176" on="0"/>
        <pt x="445" y="229" on="0"/>
        <pt x="390" y="258" on="0"/>
        <pt x="362" y="272" on="1"/>
        <pt x="296" y="306" on="0"/>
      </contour>
    </TTGlyph>
    <TTGlyph name="grave" xMin="102" yMin="567" xMax="220" yMax="710">
      <contour>
        <pt x="102" y="710" on="1"/>
        <pt x="174" y="708" on="1"/>
        <pt x="220" y="567" on="1"/>
        <pt x="207" y="567" on="1"/>
      </contour>
    </TTGlyph>
    <TTGlyph name="greater" xMin="100" yMin="100" xMax="459" yMax="500">
      <contour>
        <pt x="107" y="500" on="1"/>
        <pt x="459" y="300" on="1"/>
        <pt x="107" y="100" on="1"/>
        <pt x="100" y="108" on="1"/>
        <pt x="393" y="299" on="1"/>
        <pt x="100" y="493" on="1"/>
      </contour>
    </TTGlyph>
    <TTGlyph name="guillemotleft" xMin="100" yMin="62" xMax="602" yMax="457">
      <contour>
        <pt x="443" y="70" on="1"/>
        <pt x="443" y="62" on="1"/>
        <pt x="100" y="259" on="1"/>
        <pt x="443" y="457" on="1"/>
        <pt x="443" y="449" on="1"/>
        <pt x="165" y="259" on="1"/>
      </contour>
      <contour>
        <pt x="602" y="126" on="1"/>
        <pt x="602" y="118" on="1"/>
        <pt x="358" y="259" on="1"/>
        <pt x="602" y="400" on="1"/>
        <pt x="602" y="392" on="1"/>
        <pt x="423" y="259" on="1"/>
      </contour>
    </TTGlyph>
    <TTGlyph name="guillemotright" xMin="100" yMin="62" xMax="602" yMax="457">
      <contour>
        <pt x="259" y="62" on="1"/>
        <pt x="259" y="70" on="1"/>
        <pt x="537" y="259" on="1"/>
        <pt x="259" y="449" on="1"/>
        <pt x="259" y="457" on="1"/>
        <pt x="602" y="259" on="1"/>
      </contour>
      <contour>
        <pt x="100" y="118" on="1"/>
        <pt x="100" y="126" on="1"/>
        <pt x="279" y="259" on="1"/>
        <pt x="100" y="392" on="1"/>
        <pt x="100" y="400" on="1"/>
        <pt x="344" y="259" on="1"/>
      </contour>
    </TTGlyph>
    <TTGlyph name="guilsinglleft" xMin="100" yMin="118" xMax="344" yMax="400">
      <contour>
        <pt x="344" y="126" on="1"/>
        <pt x="344" y="118" on="1"/>
        <pt x="100" y="259" on="1"/>
        <pt x="344" y="400" on="1"/>
        <pt x="344" y="392" on="1"/>
        <pt x="165" y="259" on="1"/>
      </contour>
    </TTGlyph>
    <TTGlyph name="guilsinglright" xMin="100" yMin="118" xMax="344" yMax="400">
      <contour>
        <pt x="100" y="118" on="1"/>
        <pt x="100" y="126" on="1"/>
        <pt x="279" y="259" on="1"/>
        <pt x="100" y="392" on="1"/>
        <pt x="100" y="400" on="1"/>
        <pt x="344" y="259" on="1"/>
      </contour>
    </TTGlyph>
    <TTGlyph name="h" xMin="50" yMin="0" xMax="521" yMax="749">
      <contour>
        <pt x="460" y="0" on="1"/>
        <pt x="419" y="0" on="0"/>
        <pt x="376" y="36" on="0"/>
        <pt x="375" y="54" on="1"/>
        <pt x="374" y="71" on="1"/>
        <pt x="374" y="385" on="1"/>
        <pt x="374" y="464" on="0"/>
        <pt x="332" y="486" on="1"/>
        <pt x="312" y="496" on="0"/>
        <pt x="281" y="496" on="1"/>
        <pt x="219" y="496" on="0"/>
        <pt x="120" y="395" on="0"/>
        <pt x="120" y="355" on="1"/>
        <pt x="120" y="0" on="1"/>
        <pt x="50" y="0" on="1"/>
        <pt x="50" y="749" on="1"/>
        <pt x="120" y="749" on="1"/>
        <pt x="120" y="386" on="1"/>
        <pt x="136" y="429" on="0"/>
        <pt x="226" y="504" on="0"/>
        <pt x="282" y="504" on="1"/>
        <pt x="379" y="504" on="0"/>
        <pt x="444" y="437" on="0"/>
        <pt x="444" y="384" on="1"/>
        <pt x="444" y="71" on="1"/>
        <pt x="444" y="42" on="0"/>
        <pt x="467" y="11" on="0"/>
        <pt x="478" y="10" on="1"/>
        <pt x="490" y="8" on="1"/>
        <pt x="521" y="8" on="1"/>
        <pt x="521" y="0" on="1"/>
      </contour>
    </TTGlyph>
    <TTGlyph name="hyphen" xMin="46" yMin="285" xMax="348" yMax="293">
      <contour>
        <pt x="46" y="293" on="1"/>
        <pt x="348" y="293" on="1"/>
        <pt x="348" y="285" on="1"/>
        <pt x="46" y="285" on="1"/>
      </contour>
    </TTGlyph>
    <TTGlyph name="i" xMin="50" yMin="0" xMax="203" yMax="685">
      <contour>
        <pt x="142" y="0" on="1"/>
        <pt x="101" y="0" on="0"/>
        <pt x="58" y="36" on="0"/>
        <pt x="57" y="54" on="1"/>
        <pt x="56" y="71" on="1"/>
        <pt x="56" y="500" on="1"/>
        <pt x="126" y="500" on="1"/>
        <pt x="126" y="71" on="1"/>
        <pt x="126" y="42" on="0"/>
        <pt x="149" y="11" on="0"/>
        <pt x="160" y="10" on="1"/>
        <pt x="172" y="8" on="1"/>
        <pt x="203" y="8" on="1"/>
        <pt x="203" y="0" on="1"/>
      </contour>
      <contour>
        <pt x="50" y="624" on="0"/>
        <pt x="50" y="660" on="0"/>
        <pt x="74" y="685" on="0"/>
        <pt x="110" y="685" on="0"/>
        <pt x="135" y="660" on="0"/>
        <pt x="135" y="624" on="0"/>
        <pt x="110" y="600" on="0"/>
        <pt x="74" y="600" on="0"/>
      </contour>
    </TTGlyph>
    <TTGlyph name="iacute" xMin="51" yMin="0" xMax="198" yMax="710">
      <contour>
        <pt x="137" y="0" on="1"/>
        <pt x="96" y="0" on="0"/>
        <pt x="53" y="36" on="0"/>
        <pt x="52" y="54" on="1"/>
        <pt x="51" y="71" on="1"/>
        <pt x="51" y="500" on="1"/>
        <pt x="121" y="500" on="1"/>
        <pt x="121" y="71" on="1"/>
        <pt x="121" y="42" on="0"/>
        <pt x="144" y="11" on="0"/>
        <pt x="156" y="10" on="1"/>
        <pt x="167" y="8" on="1"/>
        <pt x="198" y="8" on="1"/>
        <pt x="198" y="0" on="1"/>
      </contour>
      <contour>
        <pt x="122" y="708" on="1"/>
        <pt x="194" y="710" on="1"/>
        <pt x="89" y="567" on="1"/>
        <pt x="76" y="567" on="1"/>
      </contour>
    </TTGlyph>
    <TTGlyph name="icircumflex" xMin="0" yMin="0" xMax="265" yMax="750">
      <contour>
        <pt x="177" y="0" on="1"/>
        <pt x="136" y="0" on="0"/>
        <pt x="93" y="36" on="0"/>
        <pt x="92" y="54" on="1"/>
        <pt x="91" y="71" on="1"/>
        <pt x="91" y="500" on="1"/>
        <pt x="161" y="500" on="1"/>
        <pt x="161" y="71" on="1"/>
        <pt x="161" y="42" on="0"/>
        <pt x="184" y="11" on="0"/>
        <pt x="196" y="10" on="1"/>
        <pt x="207" y="8" on="1"/>
        <pt x="238" y="8" on="1"/>
        <pt x="238" y="0" on="1"/>
      </contour>
      <contour>
        <pt x="265" y="615" on="1"/>
        <pt x="244" y="595" on="1"/>
        <pt x="123" y="725" on="1"/>
        <pt x="7" y="600" on="1"/>
        <pt x="0" y="605" on="1"/>
        <pt x="137" y="750" on="1"/>
      </contour>
    </TTGlyph>
    <TTGlyph name="idieresis" xMin="20" yMin="0" xMax="323" yMax="685">
      <contour>
        <pt x="223" y="0" on="1"/>
        <pt x="182" y="0" on="0"/>
        <pt x="139" y="36" on="0"/>
        <pt x="138" y="54" on="1"/>
        <pt x="137" y="71" on="1"/>
        <pt x="137" y="500" on="1"/>
        <pt x="207" y="500" on="1"/>
        <pt x="207" y="71" on="1"/>
        <pt x="207" y="42" on="0"/>
        <pt x="230" y="11" on="0"/>
        <pt x="242" y="10" on="1"/>
        <pt x="253" y="8" on="1"/>
        <pt x="284" y="8" on="1"/>
        <pt x="284" y="0" on="1"/>
      </contour>
      <contour>
        <pt x="20" y="624" on="0"/>
        <pt x="20" y="660" on="0"/>
        <pt x="44" y="685" on="0"/>
        <pt x="80" y="685" on="0"/>
        <pt x="105" y="660" on="0"/>
        <pt x="105" y="624" on="0"/>
        <pt x="80" y="600" on="0"/>
        <pt x="44" y="600" on="0"/>
      </contour>
      <contour>
        <pt x="238" y="624" on="0"/>
        <pt x="238" y="660" on="0"/>
        <pt x="262" y="685" on="0"/>
        <pt x="298" y="685" on="0"/>
        <pt x="323" y="660" on="0"/>
        <pt x="323" y="624" on="0"/>
        <pt x="298" y="600" on="0"/>
        <pt x="262" y="600" on="0"/>
      </contour>
    </TTGlyph>
    <TTGlyph name="igrave" xMin="0" yMin="0" xMax="198" yMax="710">
      <contour>
        <pt x="137" y="0" on="1"/>
        <pt x="96" y="0" on="0"/>
        <pt x="53" y="36" on="0"/>
        <pt x="52" y="54" on="1"/>
        <pt x="51" y="71" on="1"/>
        <pt x="51" y="500" on="1"/>
        <pt x="121" y="500" on="1"/>
        <pt x="121" y="71" on="1"/>
        <pt x="121" y="42" on="0"/>
        <pt x="144" y="11" on="0"/>
        <pt x="156" y="10" on="1"/>
        <pt x="167" y="8" on="1"/>
        <pt x="198" y="8" on="1"/>
        <pt x="198" y="0" on="1"/>
      </contour>
      <contour>
        <pt x="0" y="710" on="1"/>
        <pt x="72" y="708" on="1"/>
        <pt x="118" y="567" on="1"/>
        <pt x="105" y="567" on="1"/>
      </contour>
    </TTGlyph>
    <TTGlyph name="j" xMin="-60" yMin="-250" xMax="191" yMax="685">
      <contour>
        <pt x="-60" y="-231" on="1"/>
        <pt x="-57" y="-223" on="1"/>
        <pt x="-9" y="-242" on="0"/>
        <pt x="84" y="-242" on="0"/>
        <pt x="113" y="-184" on="0"/>
        <pt x="113" y="-119" on="1"/>
        <pt x="113" y="500" on="1"/>
        <pt x="183" y="500" on="1"/>
        <pt x="183" y="-118" on="1"/>
        <pt x="183" y="-197" on="0"/>
        <pt x="119" y="-250" on="0"/>
        <pt x="-10" y="-250" on="0"/>
      </contour>
      <contour>
        <pt x="106" y="624" on="0"/>
        <pt x="106" y="660" on="0"/>
        <pt x="130" y="685" on="0"/>
        <pt x="166" y="685" on="0"/>
        <pt x="191" y="660" on="0"/>
        <pt x="191" y="624" on="0"/>
        <pt x="166" y="600" on="0"/>
        <pt x="130" y="600" on="0"/>
      </contour>
    </TTGlyph>
    <TTGlyph name="k" xMin="50" yMin="0" xMax="402" yMax="750">
      <contour>
        <pt x="120" y="750" on="1"/>
        <pt x="120" y="252" on="1"/>
        <pt x="340" y="500" on="1"/>
        <pt x="350" y="500" on="1"/>
        <pt x="187" y="316" on="1"/>
        <pt x="402" y="0" on="1"/>
        <pt x="332" y="0" on="1"/>
        <pt x="147" y="272" on="1"/>
        <pt x="120" y="241" on="1"/>
        <pt x="120" y="0" on="1"/>
        <pt x="50" y="0" on="1"/>
        <pt x="50" y="750" on="1"/>
      </contour>
    </TTGlyph>
    <TTGlyph name="l" xMin="51" yMin="0" xMax="198" yMax="749">
      <contour>
        <pt x="167" y="0" on="1"/>
        <pt x="79" y="0" on="0"/>
        <pt x="56" y="46" on="1"/>
        <pt x="51" y="56" on="0"/>
        <pt x="51" y="64" on="1"/>
        <pt x="51" y="749" on="1"/>
        <pt x="121" y="749" on="1"/>
        <pt x="121" y="71" on="1"/>
        <pt x="121" y="42" on="0"/>
        <pt x="144" y="11" on="0"/>
        <pt x="156" y="10" on="1"/>
        <pt x="167" y="8" on="1"/>
        <pt x="198" y="8" on="1"/>
        <pt x="198" y="0" on="1"/>
      </contour>
    </TTGlyph>
    <TTGlyph name="less" xMin="100" yMin="100" xMax="459" yMax="500">
      <contour>
        <pt x="100" y="300" on="1"/>
        <pt x="452" y="500" on="1"/>
        <pt x="459" y="493" on="1"/>
        <pt x="166" y="299" on="1"/>
        <pt x="459" y="108" on="1"/>
        <pt x="452" y="100" on="1"/>
      </contour>
    </TTGlyph>
    <TTGlyph name="logicalnot" xMin="100" yMin="170" xMax="520" yMax="265">
      <contour>
        <pt x="100" y="265" on="1"/>
        <pt x="520" y="265" on="1"/>
        <pt x="520" y="170" on="1"/>
        <pt x="440" y="170" on="1"/>
        <pt x="440" y="257" on="1"/>
        <pt x="100" y="257" on="1"/>
      </contour>
    </TTGlyph>
    <TTGlyph name="m" xMin="40" yMin="0" xMax="790" yMax="504">
      <contour>
        <pt x="643" y="385" on="1"/>
        <pt x="643" y="446" on="0"/>
        <pt x="611" y="496" on="0"/>
        <pt x="566" y="496" on="1"/>
        <pt x="506" y="496" on="0"/>
        <pt x="413" y="396" on="0"/>
        <pt x="413" y="356" on="1"/>
        <pt x="413" y="0" on="1"/>
        <pt x="343" y="0" on="1"/>
        <pt x="343" y="385" on="1"/>
        <pt x="343" y="446" on="0"/>
        <pt x="311" y="496" on="0"/>
        <pt x="207" y="496" on="0"/>
        <pt x="114" y="400" on="0"/>
        <pt x="110" y="359" on="1"/>
        <pt x="110" y="0" on="1"/>
        <pt x="40" y="0" on="1"/>
        <pt x="40" y="500" on="1"/>
        <pt x="110" y="500" on="1"/>
        <pt x="110" y="387" on="1"/>
        <pt x="126" y="430" on="0"/>
        <pt x="212" y="504" on="0"/>
        <pt x="318" y="504" on="0"/>
        <pt x="381" y="485" on="0"/>
        <pt x="407" y="445" on="0"/>
        <pt x="413" y="415" on="0"/>
        <pt x="413" y="388" on="1"/>
        <pt x="429" y="431" on="0"/>
        <pt x="513" y="504" on="0"/>
        <pt x="609" y="504" on="0"/>
        <pt x="667" y="488" on="0"/>
        <pt x="696" y="468" on="0"/>
        <pt x="711" y="430" on="0"/>
        <pt x="713" y="406" on="0"/>
        <pt x="713" y="384" on="1"/>
        <pt x="713" y="71" on="1"/>
        <pt x="713" y="42" on="0"/>
        <pt x="736" y="11" on="0"/>
        <pt x="748" y="10" on="1"/>
        <pt x="759" y="8" on="1"/>
        <pt x="790" y="8" on="1"/>
        <pt x="790" y="0" on="1"/>
        <pt x="729" y="0" on="1"/>
        <pt x="688" y="0" on="0"/>
        <pt x="645" y="36" on="0"/>
        <pt x="644" y="54" on="1"/>
        <pt x="643" y="71" on="1"/>
      </contour>
    </TTGlyph>
    <TTGlyph name="macron" xMin="100" yMin="600" xMax="400" yMax="608">
      <contour>
        <pt x="100" y="608" on="1"/>
        <pt x="400" y="608" on="1"/>
        <pt x="400" y="600" on="1"/>
        <pt x="100" y="600" on="1"/>
      </contour>
    </TTGlyph>
    <TTGlyph name="mu" xMin="10" yMin="-250" xMax="486" yMax="500">
      <contour>
        <pt x="80" y="-250" on="1"/>
        <pt x="10" y="-250" on="1"/>
        <pt x="10" y="500" on="1"/>
        <pt x="80" y="500" on="1"/>
        <pt x="80" y="115" on="1"/>
        <pt x="80" y="36" on="0"/>
        <pt x="122" y="14" on="1"/>
        <pt x="142" y="4" on="0"/>
        <pt x="173" y="4" on="1"/>
        <pt x="236" y="4" on="0"/>
        <pt x="335" y="100" on="0"/>
        <pt x="339" y="141" on="1"/>
        <pt x="339" y="500" on="1"/>
        <pt x="409" y="500" on="1"/>
        <pt x="409" y="71" on="1"/>
        <pt x="409" y="42" on="0"/>
        <pt x="432" y="11" on="0"/>
        <pt x="444" y="10" on="1"/>
        <pt x="455" y="8" on="1"/>
        <pt x="486" y="8" on="1"/>
        <pt x="486" y="0" on="1"/>
        <pt x="425" y="0" on="1"/>
        <pt x="384" y="0" on="0"/>
        <pt x="341" y="36" on="0"/>
        <pt x="340" y="54" on="1"/>
        <pt x="339" y="71" on="1"/>
        <pt x="339" y="114" on="1"/>
        <pt x="321" y="71" on="0"/>
        <pt x="229" y="-4" on="0"/>
        <pt x="113" y="-4" on="0"/>
        <pt x="80" y="8" on="1"/>
      </contour>
    </TTGlyph>
    <TTGlyph name="multiply" xMin="136" yMin="0" xMax="497" yMax="360">
      <contour>
        <pt x="496" y="354" on="1"/>
        <pt x="350" y="208" on="1"/>
        <pt x="497" y="62" on="1"/>
        <pt x="435" y="0" on="1"/>
        <pt x="288" y="146" on="1"/>
        <pt x="142" y="0" on="1"/>
        <pt x="136" y="6" on="1"/>
        <pt x="282" y="152" on="1"/>
        <pt x="138" y="296" on="1"/>
        <pt x="200" y="358" on="1"/>
        <pt x="344" y="214" on="1"/>
        <pt x="490" y="360" on="1"/>
      </contour>
    </TTGlyph>
    <TTGlyph name="n" xMin="40" yMin="0" xMax="516" yMax="504">
      <contour>
        <pt x="455" y="0" on="1"/>
        <pt x="414" y="0" on="0"/>
        <pt x="371" y="36" on="0"/>
        <pt x="370" y="54" on="1"/>
        <pt x="369" y="71" on="1"/>
        <pt x="369" y="385" on="1"/>
        <pt x="369" y="464" on="0"/>
        <pt x="328" y="486" on="1"/>
        <pt x="307" y="496" on="0"/>
        <pt x="276" y="496" on="1"/>
        <pt x="212" y="496" on="0"/>
        <pt x="110" y="395" on="0"/>
        <pt x="110" y="355" on="1"/>
        <pt x="110" y="0" on="1"/>
        <pt x="40" y="0" on="1"/>
        <pt x="40" y="500" on="1"/>
        <pt x="110" y="500" on="1"/>
        <pt x="110" y="386" on="1"/>
        <pt x="127" y="429" on="0"/>
        <pt x="219" y="504" on="0"/>
        <pt x="329" y="504" on="0"/>
        <pt x="398" y="483" on="0"/>
        <pt x="414" y="464" on="1"/>
        <pt x="439" y="433" on="0"/>
        <pt x="439" y="384" on="1"/>
        <pt x="439" y="71" on="1"/>
        <pt x="439" y="42" on="0"/>
        <pt x="462" y="11" on="0"/>
        <pt x="474" y="10" on="1"/>
        <pt x="485" y="8" on="1"/>
        <pt x="516" y="8" on="1"/>
        <pt x="516" y="0" on="1"/>
      </contour>
    </TTGlyph>
    <TTGlyph name="nine" xMin="40" yMin="-99" xMax="451" yMax="505">
      <contour>
        <pt x="346" y="152" on="0"/>
        <pt x="282" y="109" on="0"/>
        <pt x="159" y="109" on="0"/>
        <pt x="42" y="199" on="0"/>
        <pt x="42" y="377" on="0"/>
        <pt x="154" y="505" on="0"/>
        <pt x="259" y="505" on="1"/>
        <pt x="451" y="505" on="0"/>
        <pt x="451" y="270" on="1"/>
        <pt x="451" y="160" on="0"/>
        <pt x="394" y="69" on="1"/>
        <pt x="329" y="-36" on="0"/>
        <pt x="200" y="-76" on="1"/>
        <pt x="129" y="-99" on="0"/>
        <pt x="40" y="-99" on="1"/>
        <pt x="41" y="-92" on="1"/>
        <pt x="218" y="-92" on="0"/>
        <pt x="299" y="22" on="1"/>
        <pt x="343" y="84" on="0"/>
        <pt x="358" y="176" on="1"/>
      </contour>
      <contour>
        <pt x="363" y="201" on="1"/>
        <pt x="372" y="263" on="0"/>
        <pt x="372" y="315" on="1"/>
        <pt x="372" y="403" on="0"/>
        <pt x="305" y="497" on="0"/>
        <pt x="197" y="497" on="0"/>
        <pt x="122" y="377" on="0"/>
        <pt x="122" y="198" on="0"/>
        <pt x="191" y="117" on="0"/>
        <pt x="240" y="117" on="1"/>
        <pt x="273" y="117" on="0"/>
        <pt x="334" y="155" on="0"/>
        <pt x="363" y="194" on="0"/>
      </contour>
    </TTGlyph>
    <TTGlyph name="ntilde" xMin="40" yMin="0" xMax="516" yMax="660">
      <contour>
        <pt x="455" y="0" on="1"/>
        <pt x="414" y="0" on="0"/>
        <pt x="371" y="36" on="0"/>
        <pt x="370" y="54" on="1"/>
        <pt x="369" y="71" on="1"/>
        <pt x="369" y="385" on="1"/>
        <pt x="369" y="464" on="0"/>
        <pt x="328" y="486" on="1"/>
        <pt x="307" y="496" on="0"/>
        <pt x="276" y="496" on="1"/>
        <pt x="212" y="496" on="0"/>
        <pt x="110" y="395" on="0"/>
        <pt x="110" y="355" on="1"/>
        <pt x="110" y="0" on="1"/>
        <pt x="40" y="0" on="1"/>
        <pt x="40" y="500" on="1"/>
        <pt x="110" y="500" on="1"/>
        <pt x="110" y="386" on="1"/>
        <pt x="127" y="429" on="0"/>
        <pt x="219" y="504" on="0"/>
        <pt x="329" y="504" on="0"/>
        <pt x="398" y="483" on="0"/>
        <pt x="414" y="464" on="1"/>
        <pt x="439" y="433" on="0"/>
        <pt x="439" y="384" on="1"/>
        <pt x="439" y="71" on="1"/>
        <pt x="439" y="42" on="0"/>
        <pt x="462" y="11" on="0"/>
        <pt x="474" y="10" on="1"/>
        <pt x="485" y="8" on="1"/>
        <pt x="516" y="8" on="1"/>
        <pt x="516" y="0" on="1"/>
      </contour>
      <contour>
        <pt x="158" y="617" on="1"/>
        <pt x="105" y="617" on="0"/>
        <pt x="96" y="582" on="1"/>
        <pt x="88" y="585" on="1"/>
        <pt x="93" y="615" on="0"/>
        <pt x="114" y="639" on="1"/>
        <pt x="121" y="647" on="0"/>
        <pt x="137" y="650" on="1"/>
        <pt x="161" y="654" on="1"/>
        <pt x="178" y="658" on="0"/>
        <pt x="268" y="637" on="0"/>
        <pt x="304" y="629" on="1"/>
        <pt x="343" y="620" on="0"/>
        <pt x="407" y="620" on="0"/>
        <pt x="427" y="637" on="0"/>
        <pt x="433" y="660" on="1"/>
        <pt x="442" y="658" on="1"/>
        <pt x="431" y="604" on="0"/>
        <pt x="401" y="588" on="1"/>
        <pt x="389" y="581" on="0"/>
        <pt x="369" y="581" on="0"/>
        <pt x="359" y="582" on="1"/>
        <pt x="336" y="582" on="0"/>
        <pt x="279" y="599" on="0"/>
        <pt x="275" y="600" on="0"/>
        <pt x="270" y="601" on="0"/>
        <pt x="196" y="617" on="0"/>
      </contour>
    </TTGlyph>
    <TTGlyph name="numbersign" xMin="28" yMin="11" xMax="560" yMax="700">
      <contour>
        <pt x="68" y="483" on="1"/>
        <pt x="69" y="491" on="1"/>
        <pt x="162" y="491" on="1"/>
        <pt x="199" y="700" on="1"/>
        <pt x="279" y="700" on="1"/>
        <pt x="242" y="491" on="1"/>
        <pt x="364" y="491" on="1"/>
        <pt x="401" y="700" on="1"/>
        <pt x="481" y="700" on="1"/>
        <pt x="444" y="491" on="1"/>
        <pt x="560" y="491" on="1"/>
        <pt x="559" y="483" on="1"/>
        <pt x="443" y="483" on="1"/>
        <pt x="404" y="262" on="1"/>
        <pt x="520" y="262" on="1"/>
        <pt x="519" y="254" on="1"/>
        <pt x="402" y="254" on="1"/>
        <pt x="360" y="11" on="1"/>
        <pt x="280" y="11" on="1"/>
        <pt x="322" y="254" on="1"/>
        <pt x="200" y="254" on="1"/>
        <pt x="158" y="11" on="1"/>
        <pt x="78" y="11" on="1"/>
        <pt x="120" y="254" on="1"/>
        <pt x="28" y="254" on="1"/>
        <pt x="29" y="262" on="1"/>
        <pt x="122" y="262" on="1"/>
        <pt x="161" y="483" on="1"/>
      </contour>
      <contour>
        <pt x="241" y="483" on="1"/>
        <pt x="202" y="262" on="1"/>
        <pt x="324" y="262" on="1"/>
        <pt x="363" y="483" on="1"/>
      </contour>
    </TTGlyph>
    <TTGlyph name="o" xMin="40" yMin="-4" xMax="520" yMax="504">
      <contour>
        <pt x="172" y="-4" on="0"/>
        <pt x="40" y="116" on="0"/>
        <pt x="40" y="366" on="0"/>
        <pt x="177" y="504" on="0"/>
        <pt x="388" y="504" on="0"/>
        <pt x="520" y="384" on="0"/>
        <pt x="520" y="134" on="0"/>
        <pt x="383" y="-4" on="0"/>
      </contour>
      <contour>
        <pt x="208" y="496" on="0"/>
        <pt x="108" y="361" on="0"/>
        <pt x="108" y="120" on="0"/>
        <pt x="200" y="4" on="0"/>
        <pt x="352" y="4" on="0"/>
        <pt x="452" y="139" on="0"/>
        <pt x="452" y="380" on="0"/>
        <pt x="360" y="496" on="0"/>
      </contour>
    </TTGlyph>
    <TTGlyph name="oacute" xMin="40" yMin="-4" xMax="520" yMax="710">
      <contour>
        <pt x="338" y="708" on="1"/>
        <pt x="410" y="710" on="1"/>
        <pt x="305" y="567" on="1"/>
        <pt x="292" y="567" on="1"/>
      </contour>
      <contour>
        <pt x="172" y="-4" on="0"/>
        <pt x="40" y="116" on="0"/>
        <pt x="40" y="366" on="0"/>
        <pt x="177" y="504" on="0"/>
        <pt x="388" y="504" on="0"/>
        <pt x="520" y="384" on="0"/>
        <pt x="520" y="134" on="0"/>
        <pt x="383" y="-4" on="0"/>
      </contour>
      <contour>
        <pt x="208" y="496" on="0"/>
        <pt x="108" y="361" on="0"/>
        <pt x="108" y="120" on="0"/>
        <pt x="200" y="4" on="0"/>
        <pt x="352" y="4" on="0"/>
        <pt x="452" y="139" on="0"/>
        <pt x="452" y="380" on="0"/>
        <pt x="360" y="496" on="0"/>
      </contour>
    </TTGlyph>
    <TTGlyph name="ocircumflex" xMin="40" yMin="-4" xMax="520" yMax="750">
      <contour>
        <pt x="432" y="615" on="1"/>
        <pt x="411" y="595" on="1"/>
        <pt x="290" y="725" on="1"/>
        <pt x="174" y="600" on="1"/>
        <pt x="167" y="605" on="1"/>
        <pt x="304" y="750" on="1"/>
      </contour>
      <contour>
        <pt x="172" y="-4" on="0"/>
        <pt x="40" y="116" on="0"/>
        <pt x="40" y="366" on="0"/>
        <pt x="177" y="504" on="0"/>
        <pt x="388" y="504" on="0"/>
        <pt x="520" y="384" on="0"/>
        <pt x="520" y="134" on="0"/>
        <pt x="383" y="-4" on="0"/>
      </contour>
      <contour>
        <pt x="208" y="496" on="0"/>
        <pt x="108" y="361" on="0"/>
        <pt x="108" y="120" on="0"/>
        <pt x="200" y="4" on="0"/>
        <pt x="352" y="4" on="0"/>
        <pt x="452" y="139" on="0"/>
        <pt x="452" y="380" on="0"/>
        <pt x="360" y="496" on="0"/>
      </contour>
    </TTGlyph>
    <TTGlyph name="odieresis" xMin="40" yMin="-4" xMax="520" yMax="685">
      <contour>
        <pt x="131" y="624" on="0"/>
        <pt x="131" y="660" on="0"/>
        <pt x="155" y="685" on="0"/>
        <pt x="191" y="685" on="0"/>
        <pt x="216" y="660" on="0"/>
        <pt x="216" y="624" on="0"/>
        <pt x="191" y="600" on="0"/>
        <pt x="155" y="600" on="0"/>
      </contour>
      <contour>
        <pt x="349" y="624" on="0"/>
        <pt x="349" y="660" on="0"/>
        <pt x="373" y="685" on="0"/>
        <pt x="409" y="685" on="0"/>
        <pt x="434" y="660" on="0"/>
        <pt x="434" y="624" on="0"/>
        <pt x="409" y="600" on="0"/>
        <pt x="373" y="600" on="0"/>
      </contour>
      <contour>
        <pt x="172" y="-4" on="0"/>
        <pt x="40" y="116" on="0"/>
        <pt x="40" y="366" on="0"/>
        <pt x="177" y="504" on="0"/>
        <pt x="388" y="504" on="0"/>
        <pt x="520" y="384" on="0"/>
        <pt x="520" y="134" on="0"/>
        <pt x="383" y="-4" on="0"/>
      </contour>
      <contour>
        <pt x="208" y="496" on="0"/>
        <pt x="108" y="361" on="0"/>
        <pt x="108" y="120" on="0"/>
        <pt x="200" y="4" on="0"/>
        <pt x="352" y="4" on="0"/>
        <pt x="452" y="139" on="0"/>
        <pt x="452" y="380" on="0"/>
        <pt x="360" y="496" on="0"/>
      </contour>
    </TTGlyph>
    <TTGlyph name="ogonek" xMin="97" yMin="-190" xMax="244" yMax="0">
      <contour>
        <pt x="97" y="0" on="1"/>
        <pt x="167" y="0" on="1"/>
        <pt x="167" y="-119" on="1"/>
        <pt x="167" y="-148" on="0"/>
        <pt x="190" y="-179" on="0"/>
        <pt x="202" y="-180" on="1"/>
        <pt x="213" y="-182" on="1"/>
        <pt x="244" y="-182" on="1"/>
        <pt x="244" y="-190" on="1"/>
        <pt x="183" y="-190" on="1"/>
        <pt x="142" y="-190" on="0"/>
        <pt x="99" y="-154" on="0"/>
        <pt x="98" y="-136" on="1"/>
        <pt x="97" y="-119" on="1"/>
      </contour>
    </TTGlyph>
    <TTGlyph name="ograve" xMin="40" yMin="-4" xMax="520" yMax="710">
      <contour>
        <pt x="182" y="710" on="1"/>
        <pt x="254" y="708" on="1"/>
        <pt x="300" y="567" on="1"/>
        <pt x="287" y="567" on="1"/>
      </contour>
      <contour>
        <pt x="172" y="-4" on="0"/>
        <pt x="40" y="116" on="0"/>
        <pt x="40" y="366" on="0"/>
        <pt x="177" y="504" on="0"/>
        <pt x="388" y="504" on="0"/>
        <pt x="520" y="384" on="0"/>
        <pt x="520" y="134" on="0"/>
        <pt x="383" y="-4" on="0"/>
      </contour>
      <contour>
        <pt x="208" y="496" on="0"/>
        <pt x="108" y="361" on="0"/>
        <pt x="108" y="120" on="0"/>
        <pt x="200" y="4" on="0"/>
        <pt x="352" y="4" on="0"/>
        <pt x="452" y="139" on="0"/>
        <pt x="452" y="380" on="0"/>
        <pt x="360" y="496" on="0"/>
      </contour>
    </TTGlyph>
    <TTGlyph name="one" xMin="100" yMin="0" xMax="300" yMax="500">
      <contour>
        <pt x="287" y="492" on="1"/>
        <pt x="240" y="492" on="1"/>
        <pt x="240" y="8" on="1"/>
        <pt x="300" y="8" on="1"/>
        <pt x="300" y="0" on="1"/>
        <pt x="100" y="0" on="1"/>
        <pt x="100" y="8" on="1"/>
        <pt x="160" y="8" on="1"/>
        <pt x="160" y="492" on="1"/>
        <pt x="113" y="492" on="1"/>
        <pt x="113" y="500" on="1"/>
        <pt x="287" y="500" on="1"/>
      </contour>
    </TTGlyph>
    <TTGlyph name="onehalf" xMin="84" yMin="0" xMax="683" yMax="751">
      <contour>
        <pt x="210" y="0" on="1"/>
        <pt x="200" y="0" on="1"/>
        <pt x="451" y="749" on="1"/>
        <pt x="461" y="749" on="1"/>
      </contour>
      <contour>
        <pt x="181" y="745" on="1"/>
        <pt x="157" y="745" on="1"/>
        <pt x="157" y="406" on="1"/>
        <pt x="188" y="406" on="1"/>
        <pt x="188" y="400" on="1"/>
        <pt x="84" y="400" on="1"/>
        <pt x="84" y="406" on="1"/>
        <pt x="115" y="406" on="1"/>
        <pt x="115" y="745" on="1"/>
        <pt x="91" y="745" on="1"/>
        <pt x="91" y="751" on="1"/>
        <pt x="181" y="751" on="1"/>
      </contour>
      <contour>
        <pt x="540" y="343" on="1"/>
        <pt x="486" y="343" on="0"/>
        <pt x="447" y="304" on="1"/>
        <pt x="443" y="308" on="1"/>
        <pt x="491" y="349" on="0"/>
        <pt x="593" y="349" on="0"/>
        <pt x="646" y="307" on="0"/>
        <pt x="646" y="222" on="0"/>
        <pt x="547" y="55" on="0"/>
        <pt x="486" y="6" on="1"/>
        <pt x="621" y="6" on="1"/>
        <pt x="669" y="6" on="0"/>
        <pt x="679" y="34" on="1"/>
        <pt x="683" y="31" on="1"/>
        <pt x="682" y="28" on="0"/>
        <pt x="677" y="17" on="0"/>
        <pt x="646" y="0" on="0"/>
        <pt x="621" y="0" on="1"/>
        <pt x="419" y="0" on="1"/>
        <pt x="484" y="50" on="0"/>
        <pt x="590" y="222" on="0"/>
        <pt x="590" y="267" on="1"/>
        <pt x="590" y="343" on="0"/>
      </contour>
    </TTGlyph>
    <TTGlyph name="onequarter" xMin="84" yMin="0" xMax="570" yMax="751">
      <contour>
        <pt x="210" y="0" on="1"/>
        <pt x="200" y="0" on="1"/>
        <pt x="451" y="749" on="1"/>
        <pt x="461" y="749" on="1"/>
      </contour>
      <contour>
        <pt x="181" y="745" on="1"/>
        <pt x="157" y="745" on="1"/>
        <pt x="157" y="406" on="1"/>
        <pt x="188" y="406" on="1"/>
        <pt x="188" y="400" on="1"/>
        <pt x="84" y="400" on="1"/>
        <pt x="84" y="406" on="1"/>
        <pt x="115" y="406" on="1"/>
        <pt x="115" y="745" on="1"/>
        <pt x="91" y="745" on="1"/>
        <pt x="91" y="751" on="1"/>
        <pt x="181" y="751" on="1"/>
      </contour>
      <contour>
        <pt x="570" y="63" on="1"/>
        <pt x="570" y="58" on="1"/>
        <pt x="541" y="58" on="1"/>
        <pt x="534" y="0" on="1"/>
        <pt x="488" y="0" on="1"/>
        <pt x="495" y="58" on="1"/>
        <pt x="357" y="58" on="1"/>
        <pt x="565" y="350" on="1"/>
        <pt x="570" y="347" on="1"/>
        <pt x="483" y="228" on="0"/>
        <pt x="366" y="63" on="1"/>
        <pt x="495" y="63" on="1"/>
        <pt x="515" y="224" on="1"/>
        <pt x="561" y="224" on="1"/>
        <pt x="542" y="63" on="1"/>
      </contour>
    </TTGlyph>
    <TTGlyph name="onesuperior" xMin="73" yMin="500" xMax="174" yMax="751">
      <contour>
        <pt x="168" y="747" on="1"/>
        <pt x="144" y="747" on="1"/>
        <pt x="144" y="504" on="1"/>
        <pt x="174" y="504" on="1"/>
        <pt x="174" y="500" on="1"/>
        <pt x="73" y="500" on="1"/>
        <pt x="73" y="504" on="1"/>
        <pt x="104" y="504" on="1"/>
        <pt x="104" y="747" on="1"/>
        <pt x="80" y="747" on="1"/>
        <pt x="80" y="751" on="1"/>
        <pt x="168" y="751" on="1"/>
      </contour>
    </TTGlyph>
    <TTGlyph name="ordfeminine" xMin="38" yMin="500" xMax="259" yMax="750">
      <contour>
        <pt x="244" y="502" on="1"/>
        <pt x="217" y="502" on="0"/>
        <pt x="189" y="520" on="0"/>
        <pt x="188" y="528" on="1"/>
        <pt x="187" y="537" on="1"/>
        <pt x="187" y="544" on="1"/>
        <pt x="163" y="500" on="0"/>
        <pt x="47" y="500" on="0"/>
        <pt x="39" y="556" on="1"/>
        <pt x="38" y="561" on="0"/>
        <pt x="38" y="565" on="1"/>
        <pt x="38" y="587" on="0"/>
        <pt x="56" y="601" on="1"/>
        <pt x="80" y="622" on="0"/>
        <pt x="164" y="622" on="1"/>
        <pt x="178" y="622" on="0"/>
        <pt x="187" y="620" on="1"/>
        <pt x="187" y="702" on="1"/>
        <pt x="186" y="702" on="0"/>
        <pt x="188" y="711" on="0"/>
        <pt x="182" y="724" on="0"/>
        <pt x="178" y="730" on="1"/>
        <pt x="168" y="746" on="0"/>
        <pt x="91" y="746" on="0"/>
        <pt x="54" y="726" on="1"/>
        <pt x="52" y="730" on="1"/>
        <pt x="99" y="750" on="0"/>
        <pt x="141" y="750" on="1"/>
        <pt x="221" y="750" on="0"/>
        <pt x="221" y="702" on="1"/>
        <pt x="221" y="537" on="1"/>
        <pt x="221" y="523" on="0"/>
        <pt x="232" y="507" on="0"/>
        <pt x="244" y="506" on="1"/>
        <pt x="259" y="506" on="1"/>
        <pt x="259" y="502" on="1"/>
      </contour>
      <contour>
        <pt x="74" y="564" on="1"/>
        <pt x="74" y="504" on="0"/>
        <pt x="117" y="504" on="1"/>
        <pt x="143" y="504" on="0"/>
        <pt x="185" y="540" on="0"/>
        <pt x="187" y="557" on="1"/>
        <pt x="187" y="616" on="1"/>
        <pt x="176" y="618" on="0"/>
        <pt x="162" y="618" on="1"/>
        <pt x="101" y="618" on="0"/>
        <pt x="84" y="598" on="1"/>
        <pt x="74" y="587" on="0"/>
      </contour>
    </TTGlyph>
    <TTGlyph name="ordmasculine" xMin="62" yMin="500" xMax="298" yMax="750">
      <contour>
        <pt x="126" y="500" on="0"/>
        <pt x="62" y="559" on="0"/>
        <pt x="62" y="682" on="0"/>
        <pt x="129" y="750" on="0"/>
        <pt x="233" y="750" on="0"/>
        <pt x="298" y="691" on="0"/>
        <pt x="298" y="568" on="0"/>
        <pt x="231" y="500" on="0"/>
      </contour>
      <contour>
        <pt x="144" y="746" on="0"/>
        <pt x="95" y="680" on="0"/>
        <pt x="95" y="561" on="0"/>
        <pt x="141" y="504" on="0"/>
        <pt x="215" y="504" on="0"/>
        <pt x="264" y="570" on="0"/>
        <pt x="264" y="689" on="0"/>
        <pt x="219" y="746" on="0"/>
      </contour>
    </TTGlyph>
    <TTGlyph name="oslash" xMin="40" yMin="-4" xMax="520" yMax="504">
      <contour>
        <pt x="87" y="2" on="1"/>
        <pt x="80" y="8" on="1"/>
        <pt x="490" y="500" on="1"/>
        <pt x="497" y="495" on="1"/>
      </contour>
      <contour>
        <pt x="172" y="-4" on="0"/>
        <pt x="40" y="116" on="0"/>
        <pt x="40" y="366" on="0"/>
        <pt x="177" y="504" on="0"/>
        <pt x="388" y="504" on="0"/>
        <pt x="520" y="384" on="0"/>
        <pt x="520" y="134" on="0"/>
        <pt x="383" y="-4" on="0"/>
      </contour>
      <contour>
        <pt x="208" y="496" on="0"/>
        <pt x="108" y="361" on="0"/>
        <pt x="108" y="120" on="0"/>
        <pt x="200" y="4" on="0"/>
        <pt x="352" y="4" on="0"/>
        <pt x="452" y="139" on="0"/>
        <pt x="452" y="380" on="0"/>
        <pt x="360" y="496" on="0"/>
      </contour>
    </TTGlyph>
    <TTGlyph name="otilde" xMin="40" yMin="-4" xMax="520" yMax="660">
      <contour>
        <pt x="178" y="617" on="1"/>
        <pt x="125" y="617" on="0"/>
        <pt x="116" y="582" on="1"/>
        <pt x="108" y="585" on="1"/>
        <pt x="113" y="615" on="0"/>
        <pt x="134" y="639" on="1"/>
        <pt x="141" y="647" on="0"/>
        <pt x="157" y="650" on="1"/>
        <pt x="181" y="654" on="1"/>
        <pt x="198" y="658" on="0"/>
        <pt x="288" y="637" on="0"/>
        <pt x="324" y="629" on="1"/>
        <pt x="363" y="620" on="0"/>
        <pt x="427" y="620" on="0"/>
        <pt x="447" y="637" on="0"/>
        <pt x="453" y="660" on="1"/>
        <pt x="462" y="658" on="1"/>
        <pt x="451" y="604" on="0"/>
        <pt x="421" y="588" on="1"/>
        <pt x="409" y="581" on="0"/>
        <pt x="389" y="581" on="0"/>
        <pt x="379" y="582" on="1"/>
        <pt x="356" y="582" on="0"/>
        <pt x="299" y="599" on="0"/>
        <pt x="295" y="600" on="0"/>
        <pt x="290" y="601" on="0"/>
        <pt x="216" y="617" on="0"/>
      </contour>
      <contour>
        <pt x="172" y="-4" on="0"/>
        <pt x="40" y="116" on="0"/>
        <pt x="40" y="366" on="0"/>
        <pt x="177" y="504" on="0"/>
        <pt x="388" y="504" on="0"/>
        <pt x="520" y="384" on="0"/>
        <pt x="520" y="134" on="0"/>
        <pt x="383" y="-4" on="0"/>
      </contour>
      <contour>
        <pt x="208" y="496" on="0"/>
        <pt x="108" y="361" on="0"/>
        <pt x="108" y="120" on="0"/>
        <pt x="200" y="4" on="0"/>
        <pt x="352" y="4" on="0"/>
        <pt x="452" y="139" on="0"/>
        <pt x="452" y="380" on="0"/>
        <pt x="360" y="496" on="0"/>
      </contour>
    </TTGlyph>
    <TTGlyph name="p" xMin="50" yMin="-250" xMax="490" yMax="504">
      <contour>
        <pt x="50" y="500" on="1"/>
        <pt x="120" y="500" on="1"/>
        <pt x="120" y="376" on="1"/>
        <pt x="137" y="422" on="0"/>
        <pt x="229" y="504" on="0"/>
        <pt x="287" y="504" on="1"/>
        <pt x="490" y="504" on="0"/>
        <pt x="490" y="266" on="1"/>
        <pt x="490" y="-4" on="0"/>
        <pt x="228" y="-4" on="1"/>
        <pt x="181" y="-4" on="0"/>
        <pt x="120" y="18" on="1"/>
        <pt x="120" y="-250" on="1"/>
        <pt x="50" y="-250" on="1"/>
      </contour>
      <contour>
        <pt x="286" y="496" on="1"/>
        <pt x="224" y="496" on="0"/>
        <pt x="124" y="389" on="0"/>
        <pt x="120" y="346" on="1"/>
        <pt x="120" y="27" on="1"/>
        <pt x="181" y="4" on="0"/>
        <pt x="227" y="4" on="1"/>
        <pt x="420" y="4" on="0"/>
        <pt x="420" y="267" on="1"/>
        <pt x="420" y="496" on="0"/>
      </contour>
    </TTGlyph>
    <TTGlyph name="paragraph" xMin="51" yMin="-200" xMax="504" yMax="600">
      <contour>
        <pt x="299" y="599" on="1"/>
        <pt x="388" y="599" on="0"/>
        <pt x="504" y="591" on="1"/>
        <pt x="504" y="-68" on="1"/>
        <pt x="504" y="-147" on="0"/>
        <pt x="440" y="-200" on="0"/>
        <pt x="311" y="-200" on="0"/>
        <pt x="261" y="-181" on="1"/>
        <pt x="264" y="-173" on="1"/>
        <pt x="312" y="-192" on="0"/>
        <pt x="363" y="-192" on="1"/>
        <pt x="397" y="-192" on="0"/>
        <pt x="420" y="-134" on="0"/>
        <pt x="420" y="-69" on="1"/>
        <pt x="420" y="210" on="1"/>
        <pt x="272" y="210" on="1"/>
        <pt x="207" y="210" on="0"/>
        <pt x="115" y="249" on="0"/>
        <pt x="92" y="282" on="1"/>
        <pt x="51" y="343" on="0"/>
        <pt x="51" y="424" on="1"/>
        <pt x="51" y="599" on="0"/>
      </contour>
      <contour>
        <pt x="298" y="589" on="1"/>
        <pt x="215" y="589" on="0"/>
        <pt x="131" y="502" on="0"/>
        <pt x="131" y="422" on="1"/>
        <pt x="131" y="226" on="0"/>
        <pt x="272" y="220" on="1"/>
        <pt x="420" y="220" on="1"/>
        <pt x="420" y="582" on="1"/>
        <pt x="356" y="589" on="0"/>
      </contour>
    </TTGlyph>
    <TTGlyph name="parenleft" xMin="69" yMin="-200" xMax="255" yMax="750">
      <contour>
        <pt x="149" y="236" on="1"/>
        <pt x="149" y="-113" on="0"/>
        <pt x="249" y="-193" on="1"/>
        <pt x="245" y="-200" on="1"/>
        <pt x="198" y="-182" on="0"/>
        <pt x="165" y="-142" on="1"/>
        <pt x="149" y="-123" on="0"/>
        <pt x="128" y="-84" on="1"/>
        <pt x="69" y="29" on="0"/>
        <pt x="69" y="240" on="1"/>
        <pt x="69" y="350" on="0"/>
        <pt x="96" y="516" on="0"/>
        <pt x="128" y="608" on="0"/>
        <pt x="165" y="680" on="0"/>
        <pt x="183" y="699" on="1"/>
        <pt x="221" y="739" on="0"/>
        <pt x="240" y="746" on="1"/>
        <pt x="249" y="750" on="1"/>
        <pt x="255" y="737" on="1"/>
        <pt x="251" y="735" on="0"/>
        <pt x="238" y="724" on="0"/>
        <pt x="203" y="666" on="0"/>
        <pt x="176" y="578" on="0"/>
        <pt x="164" y="490" on="1"/>
        <pt x="149" y="384" on="0"/>
      </contour>
    </TTGlyph>
    <TTGlyph name="parenright" xMin="38" yMin="-200" xMax="224" yMax="750">
      <contour>
        <pt x="132" y="676" on="0"/>
        <pt x="178" y="586" on="0"/>
        <pt x="224" y="385" on="0"/>
        <pt x="224" y="222" on="1"/>
        <pt x="224" y="180" on="0"/>
        <pt x="211" y="51" on="0"/>
        <pt x="185" y="-45" on="0"/>
        <pt x="144" y="-123" on="0"/>
        <pt x="112" y="-162" on="0"/>
        <pt x="90" y="-177" on="1"/>
        <pt x="69" y="-192" on="0"/>
        <pt x="48" y="-200" on="1"/>
        <pt x="44" y="-193" on="1"/>
        <pt x="144" y="-113" on="0"/>
        <pt x="144" y="236" on="1"/>
        <pt x="144" y="384" on="0"/>
        <pt x="118" y="578" on="0"/>
        <pt x="103" y="622" on="1"/>
        <pt x="73" y="713" on="0"/>
        <pt x="48" y="730" on="1"/>
        <pt x="38" y="737" on="1"/>
        <pt x="44" y="750" on="1"/>
        <pt x="51" y="748" on="0"/>
        <pt x="73" y="737" on="0"/>
      </contour>
    </TTGlyph>
    <TTGlyph name="percent" xMin="70" yMin="0" xMax="575" yMax="500">
      <contour>
        <pt x="490" y="500" on="1"/>
        <pt x="500" y="500" on="1"/>
        <pt x="150" y="0" on="1"/>
        <pt x="140" y="0" on="1"/>
      </contour>
      <contour>
        <pt x="70" y="400" on="1"/>
        <pt x="70" y="441" on="0"/>
        <pt x="146" y="500" on="0"/>
        <pt x="200" y="500" on="1"/>
        <pt x="330" y="500" on="0"/>
        <pt x="330" y="400" on="1"/>
        <pt x="330" y="359" on="0"/>
        <pt x="253" y="300" on="0"/>
        <pt x="200" y="300" on="1"/>
        <pt x="70" y="300" on="0"/>
      </contour>
      <contour>
        <pt x="171" y="492" on="0"/>
        <pt x="130" y="438" on="0"/>
        <pt x="130" y="355" on="0"/>
        <pt x="169" y="308" on="0"/>
        <pt x="229" y="308" on="0"/>
        <pt x="270" y="362" on="0"/>
        <pt x="270" y="445" on="0"/>
        <pt x="230" y="492" on="0"/>
      </contour>
      <contour>
        <pt x="315" y="100" on="1"/>
        <pt x="315" y="141" on="0"/>
        <pt x="391" y="200" on="0"/>
        <pt x="445" y="200" on="1"/>
        <pt x="575" y="200" on="0"/>
        <pt x="575" y="100" on="1"/>
        <pt x="575" y="59" on="0"/>
        <pt x="498" y="0" on="0"/>
        <pt x="445" y="0" on="1"/>
        <pt x="315" y="0" on="0"/>
      </contour>
      <contour>
        <pt x="416" y="192" on="0"/>
        <pt x="375" y="138" on="0"/>
        <pt x="375" y="55" on="0"/>
        <pt x="414" y="8" on="0"/>
        <pt x="474" y="8" on="0"/>
        <pt x="515" y="62" on="0"/>
        <pt x="515" y="145" on="0"/>
        <pt x="475" y="192" on="0"/>
      </contour>
    </TTGlyph>
    <TTGlyph name="period" xMin="28" yMin="-4" xMax="92" yMax="60">
      <contour>
        <pt x="47" y="-4" on="0"/>
        <pt x="28" y="15" on="0"/>
        <pt x="28" y="42" on="0"/>
        <pt x="46" y="60" on="0"/>
        <pt x="73" y="60" on="0"/>
        <pt x="92" y="41" on="0"/>
        <pt x="92" y="15" on="0"/>
        <pt x="73" y="-4" on="0"/>
      </contour>
    </TTGlyph>
    <TTGlyph name="periodcentered" xMin="28" yMin="366" xMax="92" yMax="430">
      <contour>
        <pt x="47" y="366" on="0"/>
        <pt x="28" y="385" on="0"/>
        <pt x="28" y="412" on="0"/>
        <pt x="46" y="430" on="0"/>
        <pt x="73" y="430" on="0"/>
        <pt x="92" y="411" on="0"/>
        <pt x="92" y="385" on="0"/>
        <pt x="73" y="366" on="0"/>
      </contour>
    </TTGlyph>
    <TTGlyph name="perthousand" xMin="70" yMin="0" xMax="885" yMax="500">
      <contour>
        <pt x="490" y="500" on="1"/>
        <pt x="500" y="500" on="1"/>
        <pt x="150" y="0" on="1"/>
        <pt x="140" y="0" on="1"/>
      </contour>
      <contour>
        <pt x="70" y="400" on="1"/>
        <pt x="70" y="441" on="0"/>
        <pt x="146" y="500" on="0"/>
        <pt x="200" y="500" on="1"/>
        <pt x="330" y="500" on="0"/>
        <pt x="330" y="400" on="1"/>
        <pt x="330" y="359" on="0"/>
        <pt x="253" y="300" on="0"/>
        <pt x="200" y="300" on="1"/>
        <pt x="70" y="300" on="0"/>
      </contour>
      <contour>
        <pt x="171" y="492" on="0"/>
        <pt x="130" y="438" on="0"/>
        <pt x="130" y="355" on="0"/>
        <pt x="169" y="308" on="0"/>
        <pt x="229" y="308" on="0"/>
        <pt x="270" y="362" on="0"/>
        <pt x="270" y="445" on="0"/>
        <pt x="230" y="492" on="0"/>
      </contour>
      <contour>
        <pt x="315" y="100" on="1"/>
        <pt x="315" y="141" on="0"/>
        <pt x="391" y="200" on="0"/>
        <pt x="445" y="200" on="1"/>
        <pt x="575" y="200" on="0"/>
        <pt x="575" y="100" on="1"/>
        <pt x="575" y="59" on="0"/>
        <pt x="498" y="0" on="0"/>
        <pt x="445" y="0" on="1"/>
        <pt x="315" y="0" on="0"/>
      </contour>
      <contour>
        <pt x="416" y="192" on="0"/>
        <pt x="375" y="138" on="0"/>
        <pt x="375" y="55" on="0"/>
        <pt x="414" y="8" on="0"/>
        <pt x="474" y="8" on="0"/>
        <pt x="515" y="62" on="0"/>
        <pt x="515" y="145" on="0"/>
        <pt x="475" y="192" on="0"/>
      </contour>
      <contour>
        <pt x="625" y="100" on="1"/>
        <pt x="625" y="141" on="0"/>
        <pt x="701" y="200" on="0"/>
        <pt x="755" y="200" on="1"/>
        <pt x="885" y="200" on="0"/>
        <pt x="885" y="100" on="1"/>
        <pt x="885" y="59" on="0"/>
        <pt x="808" y="0" on="0"/>
        <pt x="755" y="0" on="1"/>
        <pt x="625" y="0" on="0"/>
      </contour>
      <contour>
        <pt x="726" y="192" on="0"/>
        <pt x="685" y="138" on="0"/>
        <pt x="685" y="55" on="0"/>
        <pt x="724" y="8" on="0"/>
        <pt x="784" y="8" on="0"/>
        <pt x="825" y="62" on="0"/>
        <pt x="825" y="145" on="0"/>
        <pt x="785" y="192" on="0"/>
      </contour>
    </TTGlyph>
    <TTGlyph name="plus" xMin="106" yMin="40" xMax="526" yMax="460">
      <contour>
        <pt x="106" y="265" on="1"/>
        <pt x="271" y="265" on="1"/>
        <pt x="271" y="460" on="1"/>
        <pt x="351" y="460" on="1"/>
        <pt x="351" y="265" on="1"/>
        <pt x="526" y="265" on="1"/>
        <pt x="526" y="257" on="1"/>
        <pt x="351" y="257" on="1"/>
        <pt x="351" y="40" on="1"/>
        <pt x="271" y="40" on="1"/>
        <pt x="271" y="257" on="1"/>
        <pt x="106" y="257" on="1"/>
      </contour>
    </TTGlyph>
    <TTGlyph name="plusminus" xMin="136" yMin="100" xMax="556" yMax="620">
      <contour>
        <pt x="136" y="108" on="1"/>
        <pt x="556" y="108" on="1"/>
        <pt x="556" y="100" on="1"/>
        <pt x="136" y="100" on="1"/>
      </contour>
      <contour>
        <pt x="136" y="425" on="1"/>
        <pt x="301" y="425" on="1"/>
        <pt x="301" y="620" on="1"/>
        <pt x="381" y="620" on="1"/>
        <pt x="381" y="425" on="1"/>
        <pt x="556" y="425" on="1"/>
        <pt x="556" y="417" on="1"/>
        <pt x="381" y="417" on="1"/>
        <pt x="381" y="200" on="1"/>
        <pt x="301" y="200" on="1"/>
        <pt x="301" y="417" on="1"/>
        <pt x="136" y="417" on="1"/>
      </contour>
    </TTGlyph>
    <TTGlyph name="q" xMin="40" yMin="-250" xMax="481" yMax="504">
      <contour>
        <pt x="40" y="232" on="1"/>
        <pt x="40" y="362" on="0"/>
        <pt x="166" y="504" on="0"/>
        <pt x="292" y="504" on="1"/>
        <pt x="351" y="504" on="0"/>
        <pt x="411" y="474" on="1"/>
        <pt x="411" y="500" on="1"/>
        <pt x="481" y="500" on="1"/>
        <pt x="481" y="-250" on="1"/>
        <pt x="411" y="-250" on="1"/>
        <pt x="411" y="87" on="1"/>
        <pt x="392" y="52" on="0"/>
        <pt x="304" y="-2" on="0"/>
        <pt x="244" y="-2" on="1"/>
        <pt x="40" y="3" on="0"/>
      </contour>
      <contour>
        <pt x="245" y="6" on="1"/>
        <pt x="312" y="6" on="0"/>
        <pt x="408" y="78" on="0"/>
        <pt x="411" y="113" on="1"/>
        <pt x="411" y="465" on="1"/>
        <pt x="340" y="496" on="0"/>
        <pt x="289" y="496" on="1"/>
        <pt x="200" y="496" on="0"/>
        <pt x="110" y="357" on="0"/>
        <pt x="110" y="232" on="1"/>
        <pt x="110" y="6" on="0"/>
      </contour>
    </TTGlyph>
    <TTGlyph name="question" xMin="36" yMin="-4" xMax="384" yMax="705">
      <contour>
        <pt x="36" y="680" on="1"/>
        <pt x="117" y="705" on="0"/>
        <pt x="280" y="705" on="0"/>
        <pt x="384" y="624" on="0"/>
        <pt x="384" y="543" on="1"/>
        <pt x="384" y="464" on="0"/>
        <pt x="294" y="380" on="1"/>
        <pt x="256" y="346" on="0"/>
        <pt x="181" y="274" on="0"/>
        <pt x="128" y="180" on="0"/>
        <pt x="128" y="128" on="1"/>
        <pt x="118" y="128" on="1"/>
        <pt x="118" y="224" on="0"/>
        <pt x="184" y="314" on="1"/>
        <pt x="211" y="351" on="0"/>
        <pt x="238" y="386" on="1"/>
        <pt x="305" y="471" on="0"/>
        <pt x="305" y="612" on="0"/>
        <pt x="239" y="697" on="0"/>
        <pt x="178" y="697" on="1"/>
        <pt x="132" y="697" on="0"/>
        <pt x="64" y="680" on="1"/>
        <pt x="40" y="674" on="1"/>
      </contour>
      <contour>
        <pt x="93" y="42" on="0"/>
        <pt x="112" y="60" on="0"/>
        <pt x="138" y="60" on="0"/>
        <pt x="157" y="41" on="0"/>
        <pt x="157" y="15" on="0"/>
        <pt x="138" y="-4" on="0"/>
        <pt x="112" y="-4" on="0"/>
        <pt x="93" y="15" on="0"/>
      </contour>
    </TTGlyph>
    <TTGlyph name="questiondown" xMin="116" yMin="-210" xMax="464" yMax="499">
      <contour>
        <pt x="464" y="-185" on="1"/>
        <pt x="383" y="-210" on="0"/>
        <pt x="220" y="-210" on="0"/>
        <pt x="116" y="-129" on="0"/>
        <pt x="116" y="-48" on="1"/>
        <pt x="116" y="31" on="0"/>
        <pt x="206" y="114" on="1"/>
        <pt x="244" y="149" on="0"/>
        <pt x="319" y="221" on="0"/>
        <pt x="372" y="315" on="0"/>
        <pt x="372" y="367" on="1"/>
        <pt x="382" y="367" on="1"/>
        <pt x="382" y="270" on="0"/>
        <pt x="316" y="181" on="1"/>
        <pt x="288" y="144" on="0"/>
        <pt x="261" y="109" on="1"/>
        <pt x="195" y="23" on="0"/>
        <pt x="195" y="-117" on="0"/>
        <pt x="261" y="-202" on="0"/>
        <pt x="322" y="-202" on="1"/>
        <pt x="360" y="-202" on="0"/>
        <pt x="436" y="-184" on="1"/>
        <pt x="460" y="-179" on="1"/>
      </contour>
      <contour>
        <pt x="407" y="480" on="0"/>
        <pt x="407" y="454" on="0"/>
        <pt x="388" y="435" on="0"/>
        <pt x="362" y="435" on="0"/>
        <pt x="343" y="454" on="0"/>
        <pt x="343" y="480" on="0"/>
        <pt x="362" y="499" on="0"/>
        <pt x="388" y="499" on="0"/>
      </contour>
    </TTGlyph>
    <TTGlyph name="quotedbl" xMin="88" yMin="567" xMax="240" yMax="750">
      <contour>
        <pt x="88" y="748" on="1"/>
        <pt x="120" y="750" on="1"/>
        <pt x="105" y="567" on="1"/>
        <pt x="92" y="567" on="1"/>
      </contour>
      <contour>
        <pt x="208" y="748" on="1"/>
        <pt x="240" y="750" on="1"/>
        <pt x="225" y="567" on="1"/>
        <pt x="212" y="567" on="1"/>
      </contour>
    </TTGlyph>
    <TTGlyph name="quotedblbase" xMin="82" yMin="-124" xMax="273" yMax="100">
      <contour>
        <pt x="250" y="100" on="0"/>
        <pt x="273" y="76" on="0"/>
        <pt x="273" y="50" on="0"/>
        <pt x="228" y="-124" on="1"/>
        <pt x="215" y="-124" on="1"/>
        <pt x="236" y="19" on="1"/>
        <pt x="233" y="19" on="1"/>
        <pt x="217" y="19" on="0"/>
        <pt x="192" y="43" on="0"/>
        <pt x="192" y="76" on="0"/>
        <pt x="216" y="100" on="0"/>
      </contour>
      <contour>
        <pt x="140" y="100" on="0"/>
        <pt x="163" y="76" on="0"/>
        <pt x="163" y="50" on="0"/>
        <pt x="118" y="-124" on="1"/>
        <pt x="105" y="-124" on="1"/>
        <pt x="126" y="19" on="1"/>
        <pt x="123" y="19" on="1"/>
        <pt x="107" y="19" on="0"/>
        <pt x="82" y="43" on="0"/>
        <pt x="82" y="76" on="0"/>
        <pt x="106" y="100" on="0"/>
      </contour>
    </TTGlyph>
    <TTGlyph name="quotedblleft" xMin="82" yMin="526" xMax="273" yMax="750">
      <contour>
        <pt x="127" y="526" on="1"/>
        <pt x="82" y="700" on="0"/>
        <pt x="82" y="726" on="0"/>
        <pt x="105" y="750" on="0"/>
        <pt x="139" y="750" on="0"/>
        <pt x="163" y="726" on="0"/>
        <pt x="163" y="693" on="0"/>
        <pt x="138" y="669" on="0"/>
        <pt x="122" y="669" on="1"/>
        <pt x="119" y="669" on="1"/>
        <pt x="140" y="526" on="1"/>
      </contour>
      <contour>
        <pt x="237" y="526" on="1"/>
        <pt x="192" y="700" on="0"/>
        <pt x="192" y="726" on="0"/>
        <pt x="215" y="750" on="0"/>
        <pt x="249" y="750" on="0"/>
        <pt x="273" y="726" on="0"/>
        <pt x="273" y="693" on="0"/>
        <pt x="248" y="669" on="0"/>
        <pt x="232" y="669" on="1"/>
        <pt x="229" y="669" on="1"/>
        <pt x="250" y="526" on="1"/>
      </contour>
    </TTGlyph>
    <TTGlyph name="quotedblright" xMin="82" yMin="526" xMax="273" yMax="750">
      <contour>
        <pt x="250" y="750" on="0"/>
        <pt x="273" y="726" on="0"/>
        <pt x="273" y="700" on="0"/>
        <pt x="228" y="526" on="1"/>
        <pt x="215" y="526" on="1"/>
        <pt x="236" y="669" on="1"/>
        <pt x="233" y="669" on="1"/>
        <pt x="217" y="669" on="0"/>
        <pt x="192" y="693" on="0"/>
        <pt x="192" y="726" on="0"/>
        <pt x="216" y="750" on="0"/>
      </contour>
      <contour>
        <pt x="140" y="750" on="0"/>
        <pt x="163" y="726" on="0"/>
        <pt x="163" y="700" on="0"/>
        <pt x="118" y="526" on="1"/>
        <pt x="105" y="526" on="1"/>
        <pt x="126" y="669" on="1"/>
        <pt x="123" y="669" on="1"/>
        <pt x="107" y="669" on="0"/>
        <pt x="82" y="693" on="0"/>
        <pt x="82" y="726" on="0"/>
        <pt x="106" y="750" on="0"/>
      </contour>
    </TTGlyph>
    <TTGlyph name="quoteleft" xMin="82" yMin="526" xMax="163" yMax="750">
      <contour>
        <pt x="127" y="526" on="1"/>
        <pt x="82" y="700" on="0"/>
        <pt x="82" y="726" on="0"/>
        <pt x="105" y="750" on="0"/>
        <pt x="139" y="750" on="0"/>
        <pt x="163" y="726" on="0"/>
        <pt x="163" y="693" on="0"/>
        <pt x="138" y="669" on="0"/>
        <pt x="122" y="669" on="1"/>
        <pt x="119" y="669" on="1"/>
        <pt x="140" y="526" on="1"/>
      </contour>
    </TTGlyph>
    <TTGlyph name="quoteright" xMin="82" yMin="526" xMax="163" yMax="750">
      <contour>
        <pt x="140" y="750" on="0"/>
        <pt x="163" y="726" on="0"/>
        <pt x="163" y="700" on="0"/>
        <pt x="118" y="526" on="1"/>
        <pt x="105" y="526" on="1"/>
        <pt x="126" y="669" on="1"/>
        <pt x="123" y="669" on="1"/>
        <pt x="107" y="669" on="0"/>
        <pt x="82" y="693" on="0"/>
        <pt x="82" y="726" on="0"/>
        <pt x="106" y="750" on="0"/>
      </contour>
    </TTGlyph>
    <TTGlyph name="quotesinglbase" xMin="93" yMin="-124" xMax="174" yMax="100">
      <contour>
        <pt x="151" y="100" on="0"/>
        <pt x="174" y="76" on="0"/>
        <pt x="174" y="50" on="0"/>
        <pt x="129" y="-124" on="1"/>
        <pt x="116" y="-124" on="1"/>
        <pt x="137" y="19" on="1"/>
        <pt x="134" y="19" on="1"/>
        <pt x="118" y="19" on="0"/>
        <pt x="93" y="43" on="0"/>
        <pt x="93" y="76" on="0"/>
        <pt x="117" y="100" on="0"/>
      </contour>
    </TTGlyph>
    <TTGlyph name="quotesingle" xMin="28" yMin="567" xMax="60" yMax="750">
      <contour>
        <pt x="28" y="748" on="1"/>
        <pt x="60" y="750" on="1"/>
        <pt x="45" y="567" on="1"/>
        <pt x="32" y="567" on="1"/>
      </contour>
    </TTGlyph>
    <TTGlyph name="r" xMin="40" yMin="0" xMax="324" yMax="504">
      <contour>
        <pt x="231" y="457" on="1"/>
        <pt x="231" y="478" on="1"/>
        <pt x="186" y="460" on="0"/>
        <pt x="112" y="351" on="0"/>
        <pt x="110" y="303" on="1"/>
        <pt x="110" y="0" on="1"/>
        <pt x="40" y="0" on="1"/>
        <pt x="40" y="500" on="1"/>
        <pt x="110" y="500" on="1"/>
        <pt x="110" y="341" on="1"/>
        <pt x="126" y="399" on="0"/>
        <pt x="216" y="502" on="0"/>
        <pt x="273" y="504" on="1"/>
        <pt x="277" y="504" on="1"/>
        <pt x="297" y="504" on="0"/>
        <pt x="324" y="477" on="0"/>
        <pt x="324" y="437" on="0"/>
        <pt x="297" y="411" on="0"/>
        <pt x="257" y="411" on="0"/>
        <pt x="231" y="437" on="0"/>
      </contour>
    </TTGlyph>
    <TTGlyph name="registered" xMin="50" yMin="299" xMax="543" yMax="700">
      <contour>
        <pt x="187" y="299" on="0"/>
        <pt x="50" y="402" on="0"/>
        <pt x="50" y="588" on="0"/>
        <pt x="191" y="700" on="0"/>
        <pt x="405" y="700" on="0"/>
        <pt x="543" y="596" on="0"/>
        <pt x="543" y="410" on="0"/>
        <pt x="402" y="299" on="0"/>
      </contour>
      <contour>
        <pt x="226" y="692" on="0"/>
        <pt x="130" y="586" on="0"/>
        <pt x="130" y="407" on="0"/>
        <pt x="224" y="307" on="0"/>
        <pt x="367" y="307" on="0"/>
        <pt x="463" y="412" on="0"/>
        <pt x="463" y="591" on="0"/>
        <pt x="369" y="692" on="0"/>
      </contour>
      <contour>
        <pt x="253" y="376" on="1"/>
        <pt x="224" y="376" on="1"/>
        <pt x="224" y="619" on="1"/>
        <pt x="269" y="622" on="0"/>
        <pt x="294" y="622" on="1"/>
        <pt x="382" y="622" on="0"/>
        <pt x="382" y="506" on="0"/>
        <pt x="329" y="494" on="1"/>
        <pt x="400" y="376" on="1"/>
        <pt x="367" y="376" on="1"/>
        <pt x="298" y="492" on="1"/>
        <pt x="253" y="492" on="1"/>
      </contour>
      <contour>
        <pt x="296" y="618" on="1"/>
        <pt x="269" y="618" on="0"/>
        <pt x="253" y="616" on="1"/>
        <pt x="253" y="496" on="1"/>
        <pt x="305" y="496" on="1"/>
        <pt x="354" y="498" on="0"/>
        <pt x="354" y="563" on="1"/>
        <pt x="354" y="618" on="0"/>
      </contour>
    </TTGlyph>
    <TTGlyph name="ring" xMin="81" yMin="573" xMax="318" yMax="750">
      <contour>
        <pt x="148" y="573" on="0"/>
        <pt x="81" y="618" on="0"/>
        <pt x="81" y="700" on="0"/>
        <pt x="150" y="750" on="0"/>
        <pt x="252" y="750" on="0"/>
        <pt x="318" y="705" on="0"/>
        <pt x="318" y="622" on="0"/>
        <pt x="250" y="573" on="0"/>
      </contour>
      <contour>
        <pt x="175" y="742" on="0"/>
        <pt x="141" y="695" on="0"/>
        <pt x="141" y="624" on="0"/>
        <pt x="174" y="581" on="0"/>
        <pt x="223" y="581" on="0"/>
        <pt x="258" y="628" on="0"/>
        <pt x="258" y="699" on="0"/>
        <pt x="224" y="742" on="0"/>
      </contour>
    </TTGlyph>
    <TTGlyph name="s" xMin="35" yMin="-4" xMax="387" yMax="504">
      <contour>
        <pt x="332" y="465" on="1"/>
        <pt x="316" y="478" on="0"/>
        <pt x="245" y="496" on="0"/>
        <pt x="209" y="496" on="0"/>
        <pt x="206" y="496" on="1"/>
        <pt x="152" y="495" on="0"/>
        <pt x="104" y="442" on="0"/>
        <pt x="104" y="376" on="0"/>
        <pt x="146" y="331" on="0"/>
        <pt x="209" y="306" on="0"/>
        <pt x="282" y="274" on="0"/>
        <pt x="345" y="241" on="0"/>
        <pt x="387" y="178" on="0"/>
        <pt x="387" y="84" on="0"/>
        <pt x="321" y="18" on="0"/>
        <pt x="240" y="-4" on="0"/>
        <pt x="193" y="-4" on="1"/>
        <pt x="91" y="-4" on="0"/>
        <pt x="40" y="41" on="1"/>
        <pt x="46" y="47" on="1"/>
        <pt x="66" y="28" on="0"/>
        <pt x="145" y="4" on="0"/>
        <pt x="182" y="4" on="1"/>
        <pt x="241" y="4" on="0"/>
        <pt x="318" y="69" on="0"/>
        <pt x="318" y="166" on="0"/>
        <pt x="260" y="225" on="0"/>
        <pt x="177" y="258" on="0"/>
        <pt x="93" y="291" on="0"/>
        <pt x="35" y="350" on="0"/>
        <pt x="35" y="428" on="0"/>
        <pt x="71" y="477" on="0"/>
        <pt x="101" y="487" on="1"/>
        <pt x="152" y="504" on="0"/>
        <pt x="203" y="504" on="1"/>
        <pt x="289" y="504" on="0"/>
        <pt x="337" y="472" on="1"/>
      </contour>
    </TTGlyph>
    <TTGlyph name="section" xMin="35" yMin="-201" xMax="480" yMax="702">
      <contour>
        <pt x="407" y="81" on="1"/>
        <pt x="428" y="54" on="1"/>
        <pt x="480" y="101" on="0"/>
        <pt x="480" y="188" on="1"/>
        <pt x="480" y="243" on="0"/>
        <pt x="438" y="324" on="0"/>
        <pt x="370" y="370" on="0"/>
        <pt x="288" y="406" on="0"/>
        <pt x="207" y="435" on="0"/>
        <pt x="173" y="452" on="1"/>
        <pt x="97" y="492" on="0"/>
        <pt x="97" y="565" on="1"/>
        <pt x="97" y="625" on="0"/>
        <pt x="187" y="693" on="0"/>
        <pt x="348" y="693" on="0"/>
        <pt x="439" y="658" on="1"/>
        <pt x="443" y="668" on="1"/>
        <pt x="341" y="702" on="0"/>
        <pt x="144" y="702" on="0"/>
        <pt x="46" y="611" on="0"/>
        <pt x="46" y="538" on="1"/>
        <pt x="46" y="446" on="0"/>
        <pt x="122" y="396" on="1"/>
        <pt x="156" y="373" on="0"/>
        <pt x="238" y="336" on="0"/>
        <pt x="319" y="302" on="0"/>
        <pt x="387" y="262" on="0"/>
        <pt x="429" y="199" on="0"/>
        <pt x="429" y="112" on="0"/>
      </contour>
      <contour>
        <pt x="130" y="448" on="1"/>
        <pt x="97" y="415" on="0"/>
        <pt x="97" y="326" on="0"/>
        <pt x="139" y="270" on="0"/>
        <pt x="207" y="235" on="0"/>
        <pt x="288" y="206" on="0"/>
        <pt x="370" y="170" on="0"/>
        <pt x="438" y="124" on="0"/>
        <pt x="480" y="43" on="0"/>
        <pt x="480" y="-82" on="0"/>
        <pt x="410" y="-170" on="0"/>
        <pt x="311" y="-201" on="0"/>
        <pt x="245" y="-201" on="1"/>
        <pt x="122" y="-201" on="0"/>
        <pt x="35" y="-140" on="1"/>
        <pt x="40" y="-132" on="1"/>
        <pt x="73" y="-158" on="0"/>
        <pt x="178" y="-191" on="0"/>
        <pt x="233" y="-191" on="1"/>
        <pt x="314" y="-191" on="0"/>
        <pt x="429" y="-116" on="0"/>
        <pt x="429" y="-43" on="1"/>
        <pt x="429" y="37" on="0"/>
        <pt x="353" y="82" on="1"/>
        <pt x="319" y="102" on="0"/>
        <pt x="238" y="136" on="0"/>
        <pt x="156" y="173" on="0"/>
        <pt x="122" y="196" on="1"/>
        <pt x="46" y="246" on="0"/>
        <pt x="46" y="425" on="0"/>
        <pt x="108" y="467" on="1"/>
      </contour>
    </TTGlyph>
    <TTGlyph name="semicolon" xMin="72" yMin="-100" xMax="147" yMax="469">
      <contour>
        <pt x="83" y="424" on="0"/>
        <pt x="83" y="450" on="0"/>
        <pt x="102" y="469" on="0"/>
        <pt x="128" y="469" on="0"/>
        <pt x="147" y="450" on="0"/>
        <pt x="147" y="424" on="0"/>
        <pt x="128" y="405" on="0"/>
        <pt x="102" y="405" on="0"/>
      </contour>
      <contour>
        <pt x="98" y="81" on="1"/>
        <pt x="130" y="83" on="1"/>
        <pt x="85" y="-100" on="1"/>
        <pt x="72" y="-100" on="1"/>
      </contour>
    </TTGlyph>
    <TTGlyph name="seven" xMin="50" yMin="-100" xMax="379" yMax="501">
      <contour>
        <pt x="50" y="501" on="1"/>
        <pt x="379" y="501" on="1"/>
        <pt x="177" y="25" on="0"/>
        <pt x="103" y="-100" on="1"/>
        <pt x="95" y="-97" on="1"/>
        <pt x="174" y="39" on="0"/>
        <pt x="336" y="422" on="1"/>
        <pt x="50" y="423" on="1"/>
      </contour>
    </TTGlyph>
    <TTGlyph name="six" xMin="40" yMin="-4" xMax="451" yMax="600">
      <contour>
        <pt x="145" y="349" on="0"/>
        <pt x="209" y="392" on="0"/>
        <pt x="332" y="392" on="0"/>
        <pt x="449" y="302" on="0"/>
        <pt x="449" y="124" on="0"/>
        <pt x="337" y="-4" on="0"/>
        <pt x="232" y="-4" on="1"/>
        <pt x="40" y="-4" on="0"/>
        <pt x="40" y="231" on="1"/>
        <pt x="40" y="341" on="0"/>
        <pt x="96" y="432" on="1"/>
        <pt x="162" y="537" on="0"/>
        <pt x="290" y="578" on="1"/>
        <pt x="362" y="600" on="0"/>
        <pt x="451" y="600" on="1"/>
        <pt x="450" y="593" on="1"/>
        <pt x="273" y="593" on="0"/>
        <pt x="192" y="479" on="1"/>
        <pt x="148" y="417" on="0"/>
        <pt x="133" y="325" on="1"/>
      </contour>
      <contour>
        <pt x="128" y="300" on="1"/>
        <pt x="119" y="238" on="0"/>
        <pt x="119" y="186" on="1"/>
        <pt x="119" y="98" on="0"/>
        <pt x="186" y="4" on="0"/>
        <pt x="294" y="4" on="0"/>
        <pt x="369" y="124" on="0"/>
        <pt x="369" y="303" on="0"/>
        <pt x="300" y="384" on="0"/>
        <pt x="251" y="384" on="1"/>
        <pt x="218" y="384" on="0"/>
        <pt x="157" y="346" on="0"/>
        <pt x="128" y="307" on="0"/>
      </contour>
    </TTGlyph>
    <TTGlyph name="slash" xMin="100" yMin="0" xMax="361" yMax="749">
      <contour>
        <pt x="110" y="0" on="1"/>
        <pt x="100" y="0" on="1"/>
        <pt x="351" y="749" on="1"/>
        <pt x="361" y="749" on="1"/>
      </contour>
    </TTGlyph>
    <TTGlyph name="sterling" xMin="42" yMin="0" xMax="400" yMax="597">
      <contour>
        <pt x="42" y="292" on="1"/>
        <pt x="42" y="300" on="1"/>
        <pt x="82" y="300" on="1"/>
        <pt x="50" y="359" on="0"/>
        <pt x="50" y="500" on="0"/>
        <pt x="144" y="597" on="0"/>
        <pt x="256" y="597" on="1"/>
        <pt x="293" y="597" on="0"/>
        <pt x="348" y="576" on="0"/>
        <pt x="360" y="561" on="1"/>
        <pt x="387" y="529" on="0"/>
        <pt x="389" y="506" on="1"/>
        <pt x="390" y="496" on="1"/>
        <pt x="381" y="493" on="1"/>
        <pt x="381" y="505" on="0"/>
        <pt x="365" y="543" on="0"/>
        <pt x="341" y="568" on="0"/>
        <pt x="290" y="589" on="0"/>
        <pt x="255" y="589" on="1"/>
        <pt x="130" y="589" on="0"/>
        <pt x="130" y="419" on="1"/>
        <pt x="130" y="359" on="0"/>
        <pt x="153" y="300" on="1"/>
        <pt x="300" y="300" on="1"/>
        <pt x="300" y="292" on="1"/>
        <pt x="156" y="292" on="1"/>
        <pt x="165" y="267" on="0"/>
        <pt x="185" y="227" on="1"/>
        <pt x="226" y="145" on="0"/>
        <pt x="226" y="104" on="1"/>
        <pt x="226" y="46" on="0"/>
        <pt x="179" y="8" on="1"/>
        <pt x="400" y="8" on="1"/>
        <pt x="400" y="0" on="1"/>
        <pt x="66" y="0" on="1"/>
        <pt x="66" y="8" on="1"/>
        <pt x="145" y="8" on="1"/>
        <pt x="195" y="50" on="0"/>
        <pt x="195" y="105" on="1"/>
        <pt x="195" y="131" on="0"/>
        <pt x="162" y="187" on="0"/>
        <pt x="103" y="264" on="0"/>
        <pt x="87" y="292" on="1"/>
      </contour>
    </TTGlyph>
    <TTGlyph name="t" xMin="35" yMin="-3" xMax="299" yMax="600">
      <contour>
        <pt x="35" y="492" on="1"/>
        <pt x="35" y="500" on="1"/>
        <pt x="56" y="500" on="1"/>
        <pt x="56" y="600" on="1"/>
        <pt x="126" y="600" on="1"/>
        <pt x="126" y="500" on="1"/>
        <pt x="279" y="500" on="1"/>
        <pt x="279" y="492" on="1"/>
        <pt x="126" y="492" on="1"/>
        <pt x="126" y="128" on="1"/>
        <pt x="126" y="63" on="0"/>
        <pt x="155" y="5" on="0"/>
        <pt x="248" y="5" on="0"/>
        <pt x="296" y="24" on="1"/>
        <pt x="299" y="16" on="1"/>
        <pt x="249" y="-3" on="0"/>
        <pt x="120" y="-3" on="0"/>
        <pt x="56" y="50" on="0"/>
        <pt x="56" y="129" on="1"/>
        <pt x="56" y="492" on="1"/>
      </contour>
    </TTGlyph>
    <TTGlyph name="thorn" xMin="40" yMin="-250" xMax="480" yMax="750">
      <contour>
        <pt x="40" y="750" on="1"/>
        <pt x="110" y="750" on="1"/>
        <pt x="110" y="376" on="1"/>
        <pt x="127" y="422" on="0"/>
        <pt x="219" y="504" on="0"/>
        <pt x="277" y="504" on="1"/>
        <pt x="480" y="504" on="0"/>
        <pt x="480" y="266" on="1"/>
        <pt x="480" y="-4" on="0"/>
        <pt x="218" y="-4" on="1"/>
        <pt x="171" y="-4" on="0"/>
        <pt x="110" y="18" on="1"/>
        <pt x="110" y="-250" on="1"/>
        <pt x="40" y="-250" on="1"/>
      </contour>
      <contour>
        <pt x="276" y="496" on="1"/>
        <pt x="214" y="496" on="0"/>
        <pt x="114" y="389" on="0"/>
        <pt x="110" y="346" on="1"/>
        <pt x="110" y="27" on="1"/>
        <pt x="171" y="4" on="0"/>
        <pt x="217" y="4" on="1"/>
        <pt x="410" y="4" on="0"/>
        <pt x="410" y="267" on="1"/>
        <pt x="410" y="496" on="0"/>
      </contour>
    </TTGlyph>
    <TTGlyph name="three" xMin="39" yMin="-100" xMax="329" yMax="500">
      <contour>
        <pt x="249" y="404" on="1"/>
        <pt x="249" y="492" on="0"/>
        <pt x="184" y="492" on="1"/>
        <pt x="125" y="492" on="0"/>
        <pt x="59" y="464" on="1"/>
        <pt x="55" y="471" on="1"/>
        <pt x="121" y="500" on="0"/>
        <pt x="187" y="500" on="1"/>
        <pt x="221" y="500" on="0"/>
        <pt x="257" y="490" on="1"/>
        <pt x="329" y="470" on="0"/>
        <pt x="329" y="404" on="1"/>
        <pt x="329" y="352" on="0"/>
        <pt x="244" y="281" on="0"/>
        <pt x="183" y="261" on="1"/>
        <pt x="240" y="255" on="0"/>
        <pt x="320" y="196" on="0"/>
        <pt x="320" y="92" on="0"/>
        <pt x="265" y="7" on="0"/>
        <pt x="222" y="-22" on="1"/>
        <pt x="133" y="-83" on="0"/>
        <pt x="40" y="-100" on="1"/>
        <pt x="39" y="-92" on="1"/>
        <pt x="114" y="-72" on="0"/>
        <pt x="240" y="59" on="0"/>
        <pt x="240" y="140" on="1"/>
        <pt x="240" y="195" on="0"/>
        <pt x="193" y="250" on="0"/>
        <pt x="162" y="254" on="1"/>
        <pt x="144" y="247" on="0"/>
        <pt x="132" y="246" on="1"/>
        <pt x="128" y="253" on="1"/>
        <pt x="180" y="269" on="0"/>
        <pt x="249" y="350" on="0"/>
      </contour>
    </TTGlyph>
    <TTGlyph name="threequarters" xMin="21" yMin="0" xMax="570" yMax="750">
      <contour>
        <pt x="210" y="0" on="1"/>
        <pt x="200" y="0" on="1"/>
        <pt x="451" y="749" on="1"/>
        <pt x="461" y="749" on="1"/>
      </contour>
      <contour>
        <pt x="570" y="63" on="1"/>
        <pt x="570" y="58" on="1"/>
        <pt x="541" y="58" on="1"/>
        <pt x="534" y="0" on="1"/>
        <pt x="488" y="0" on="1"/>
        <pt x="495" y="58" on="1"/>
        <pt x="357" y="58" on="1"/>
        <pt x="565" y="350" on="1"/>
        <pt x="570" y="347" on="1"/>
        <pt x="483" y="228" on="0"/>
        <pt x="366" y="63" on="1"/>
        <pt x="495" y="63" on="1"/>
        <pt x="515" y="224" on="1"/>
        <pt x="561" y="224" on="1"/>
        <pt x="542" y="63" on="1"/>
      </contour>
      <contour>
        <pt x="143" y="694" on="1"/>
        <pt x="143" y="745" on="0"/>
        <pt x="105" y="745" on="1"/>
        <pt x="72" y="745" on="0"/>
        <pt x="32" y="729" on="1"/>
        <pt x="30" y="733" on="1"/>
        <pt x="69" y="750" on="0"/>
        <pt x="107" y="750" on="1"/>
        <pt x="124" y="750" on="0"/>
        <pt x="146" y="744" on="1"/>
        <pt x="190" y="732" on="0"/>
        <pt x="190" y="694" on="1"/>
        <pt x="190" y="639" on="0"/>
        <pt x="105" y="611" on="1"/>
        <pt x="138" y="608" on="0"/>
        <pt x="184" y="573" on="0"/>
        <pt x="184" y="540" on="1"/>
        <pt x="184" y="488" on="0"/>
        <pt x="80" y="412" on="0"/>
        <pt x="21" y="401" on="1"/>
        <pt x="21" y="405" on="1"/>
        <pt x="64" y="417" on="0"/>
        <pt x="138" y="493" on="0"/>
        <pt x="138" y="540" on="1"/>
        <pt x="138" y="600" on="0"/>
        <pt x="92" y="607" on="1"/>
        <pt x="87" y="604" on="0"/>
        <pt x="75" y="602" on="1"/>
        <pt x="73" y="606" on="1"/>
        <pt x="103" y="616" on="0"/>
        <pt x="143" y="663" on="0"/>
      </contour>
    </TTGlyph>
</ttFont>
